<svg height="173" viewBox="0 0 624 173" width="624" xmlns="http://www.w3.org/2000/svg" xmlns:xlink="http://www.w3.org/1999/xlink"><clipPath id="a"><path d="m14 15h596v145h-596z"/></clipPath><clipPath id="b"><path d="m14 15h596v145h-596z"/></clipPath><clipPath id="c"><path d="m45 49h151v29h-151z"/></clipPath><clipPath id="d"><path d="m256 15h354v145h-354z"/></clipPath><clipPath id="e"><path d="m256 15h354v145h-354z"/></clipPath><clipPath id="f"><path d="m256 15h354v145h-354z"/></clipPath><clipPath id="g"><path d="m256 15h354v145h-354z"/></clipPath><clipPath id="h"><path d="m268 53h58v22h-58z"/></clipPath><clipPath id="i"><path d="m363 16h55v17h-55z"/></clipPath><clipPath id="j"><path d="m363 34h51v17h-51z"/></clipPath><clipPath id="k"><path d="m355 51h255v109h-255z"/></clipPath><clipPath id="l"><path d="m355 51h255v109h-255z"/></clipPath><clipPath id="m"><path d="m355 51h255v109h-255z"/></clipPath><clipPath id="n"><path d="m363 97h42v17h-42z"/></clipPath><clipPath id="o"><path d="m430 51h134v55h-134z"/></clipPath><clipPath id="p"><path d="m430 51h134v55h-134z"/></clipPath><clipPath id="q"><path d="m430 51h134v55h-134z"/></clipPath><clipPath id="r"><path d="m430 51h134v55h-134z"/></clipPath><clipPath id="s"><path d="m438 70h20v17h-20z"/></clipPath><clipPath id="t"><path d="m491 52h55v17h-55z"/></clipPath><clipPath id="u"><path d="m491 70h65v17h-65z"/></clipPath><clipPath id="v"><path d="m491 88h65v17h-65z"/></clipPath><clipPath id="w"><path d="m430 105h180v55h-180z"/></clipPath><clipPath id="x"><path d="m430 105h180v55h-180z"/></clipPath><clipPath id="y"><path d="m430 105h180v55h-180z"/></clipPath><clipPath id="z"><path d="m430 105h180v55h-180z"/></clipPath><clipPath id="A"><path d="m438 124h41v17h-41z"/></clipPath><clipPath id="B"><path d="m512 106h90v17h-90z"/></clipPath><clipPath id="C"><path d="m512 124h86v17h-86z"/></clipPath><clipPath id="D"><path d="m512 142h77v17h-77z"/></clipPath><path d="m-485-484h1594v1143h-1594z" fill="#fff"/><path clip-path="url(#a)" d="m235 63c0 .3855667 3.5839996.698494 8 .698494h14" fill="none" stroke="#017c98"/><path clip-path="url(#b)" d="m225 63h10" fill="none" stroke="#808080"/><path clip-path="url(#c)" d="m57.1132813 71.796875v-5.5898437h-5.1152344c-.1992188 2.4375152-.9081955 4.4589767-2.1269531 6.0644531-.3046875-.3867188-.6503907-.7910156-1.0371094-1.2128906.7617187-1.0781327 1.2773437-2.2734299 1.546875-3.5859375.2578125-1.2656327.3867187-3.0585785.3867187-5.3789063v-6.2753906h14.3261719v13.9746094c0 1.3945388-.6621017 2.0917968-1.9863281 2.0917968-.8085976 0-1.7167931-.0175781-2.7246094-.0527343-.0585937-.3867188-.1464844-.8730469-.2636719-1.4589844 1.0195351.0703125 1.8456993.1054687 2.4785157.1054687.7265663 0 1.0898437-.3457031 1.0898437-1.0371093v-3.234375h-5.1679687v5.5898437zm1.40625-6.8554687h5.1679687v-3.2871094h-5.1679687zm5.1679687-7.8222657h-5.1679687v3.2695313h5.1679687zm-11.5927734 7.8222657h5.0185547v-3.2871094h-4.9394532c.0351563 1.1367225.0087891 2.232418-.0791015 3.2871094zm.0791015-7.8222657v3.2695313h4.9394532v-3.2695313zm23.0273438.5625h-5.2558594v4.5527344h4.8691406v1.546875h-4.8691406v5.9501953h-1.7578125v-13.6142578h7.0136719zm2.3203125 12.0498047v-14.3876953h1.7226562v14.3876953zm12.8232422 0h-1.7314453v-1.5292969h-.0351563c-.6503906 1.1718827-1.6494064 1.7578125-2.9970703 1.7578125-2.3027496 0-3.4541016-1.3769378-3.4541016-4.1308593v-5.8183594h1.7050782v5.5634766c0 1.974617.7558517 2.961914 2.2675781 2.961914.75 0 1.3564453-.2768555 1.8193359-.8305664s.694336-1.2524338.694336-2.0961914v-5.5986328h1.7314453zm7.734375-.0966797c-.375.2050782-.881836.3076172-1.5205078.3076172-1.7402421 0-2.6103516-.9638595-2.6103516-2.8916015v-5.616211h-1.6699219v-1.4238281h1.6699219v-2.3378906l1.7138672-.5449219v2.8828125h2.4169922v1.4238281h-2.4169922v5.3085938c0 .6386718.1083984 1.0957031.3251953 1.3710937s.5771484.413086 1.0810547.413086c.3867187 0 .7236328-.1083985 1.0107422-.3251954zm6.7060547 0c-.375.2050782-.881836.3076172-1.5205079.3076172-1.740242 0-2.6103515-.9638595-2.6103515-2.8916015v-5.616211h-1.6699219v-1.4238281h1.6699219v-2.3378906l1.7138672-.5449219v2.8828125h2.4169922v1.4238281h-2.4169922v5.3085938c0 .6386718.1083984 1.0957031.3251953 1.3710937s.5771484.413086 1.0810547.413086c.3867187 0 .7236328-.1083985 1.0107422-.3251954zm9.8085937-4.3242187h-6.8027344c.0292969 1.037117.3134766 1.8383789.8525391 2.4038086s1.2919845.8481445 2.2587891.8481445c1.0898513 0 2.0888595-.3486328 2.9970703-1.0458984v1.5380859c-.8554764.6035156-1.9892502.9052734-3.4013672.9052734-1.4062577 0-2.503418-.4453048-3.2915039-1.3359375-.788086-.8906326-1.1821289-2.1269455-1.1821289-3.7089843 0-1.4882889.4321212-2.7158165 1.2963867-3.6826172.8642654-.9668007 1.9379806-1.4501953 3.2211914-1.4501953 1.271492 0 2.2646484.4086876 2.9794922 1.2260742.7148437.8173866 1.0722656 1.9614181 1.0722656 3.4321289zm-1.7226562-1.3798828c-.0058594-.8789101-.2138672-1.55859-.6240235-2.0390625-.4101562-.4804726-.9873047-.7207032-1.7314453-.7207032-.6855469 0-1.2788086.254879-1.7797852.7646485-.5009765.5097694-.8159179 1.1748008-.9448242 1.9951172zm9.2285156-2.2148438c-.2871094-.2050781-.6826172-.3076172-1.1865235-.3076172-.6679687 0-1.21875.3120079-1.6523437.9360352-.4335938.6240272-.6503906 1.4457969-.6503906 2.465332v4.921875h-1.7226563v-9.7207031h1.7226563v1.9775391h.0351562c.4921875-1.4296952 1.3417893-2.1445313 2.5488281-2.1445313.3925782 0 .694336.0439453.9052735.1318359zm.4746094.834961h4.5878906v-5.1152344h-3.8144531v-1.3886719h15.7675781v1.3886719h-3.5859375v5.1152344h4.3417969v1.3886718h-4.3417969v8.015625h-1.4414063v-8.015625h-5.493164c-.0410157 2.1445389-.3486328 3.7382736-.9228516 4.78125-.5742187 1.1484452-1.8925705 2.3027268-3.9550781 3.4628907-.3046875-.421875-.6386719-.8320313-1.0019531-1.2304688 1.7929763-.9140701 2.9882812-1.869133 3.5859375-2.8652344.5332031-.8027343.8173828-2.1855392.852539-4.1484375h-4.5791015zm6.0292968 0h5.484375v-5.1152344h-5.484375zm14.2734375-3.8144532h3.7177735c.2871093-1.224617.5302734-2.5605392.7294922-4.0078125l1.4941406.1933594c-.1992188 1.3300858-.4423828 2.6015549-.7294922 3.8144531h9.7119141v1.3007813h-10.0458985c-.2109375.7734413-.4423828 1.5175743-.6943359 2.2324219h8.71875v1.2128906c-.7734375 1.9160232-1.9775391 3.5712814-3.6123047 4.9658203 1.6464844.9961014 3.5654144 1.6962891 5.7568359 2.1005859-.5273437.5859375-.9375 1.078125-1.2304687 1.4765625-1.875-.6210937-3.7617188-1.5292892-5.6601563-2.7246093-1.5234375 1.0019607-3.7031097 1.9511642-6.5390625 2.8476562-.328125-.46875-.6796875-.9023437-1.0546875-1.3007812 2.8828278-.75 5.0361328-1.5439377 6.459961-2.381836-1.5410157-1.318367-2.6396485-2.9794845-3.2958985-4.9833984-1.2832031 3.2109527-3.0292816 5.8476486-5.2382812 7.9101562-.3164063-.4453125-.6269531-.84375-.9316406-1.1953125 2.6425933-2.3847809 4.5849609-5.7714615 5.8271484-10.1601562h-4.8779297v-1.3183594c.4804688-1.1132889.9199219-2.2324142 1.3183594-3.3574219l1.4238281.3867188c-.4101562 1.0312538-.8261719 2.0273399-1.2480469 2.9882812zm11.3554688 4.7460938h-6.3544922c.5273437 1.6230545 1.5732422 3.0205002 3.1376953 4.1923828 1.5175781-1.2539139 2.5898438-2.6513596 3.2167969-4.1923828zm-2.7070313-7.5410156.7734375-.984375c1.1484375.7265663 2.25 1.482418 3.3046875 2.2675781l-.9492187 1.1425781c-1.0195313-.8671913-2.0625-1.6757774-3.1289063-2.4257812zm19.1513672 13.790039h-1.9423828l-1.3886719-3.7265625h-5.6689453l-1.3095703 3.7265625h-1.9423828l5.1855469-13.6142578h1.8808593zm-3.8759765-5.2646484-2.0566407-5.6601563c-.0644531-.1816406-.1347656-.498043-.2109375-.9492187h-.0439453c-.0644531.4101562-.1376953.7265625-.2197265.9492187l-2.0390625 5.6601563zm7.602539.1757812v5.0888672h-1.7578125v-13.6142578h3.8671875c1.4707031 0 2.6118164.3544884 3.4233399 1.0634766.8115234.7089882 1.2172851 1.7226486 1.2172851 3.0410156 0 1.3359451-.4746094 2.4184532-1.4238281 3.2475586-.9492188.8291092-2.1357422 1.2202148-3.5595703 1.1733398zm0-6.9785156v5.4316406h1.6259766c1.0722656 0 1.8867187-.2416954 2.4433594-.7250976.5566406-.4834023.8349609-1.1762657.8349609-2.0786133 0-1.7519608-1.0370941-2.6279297-3.1113281-2.6279297zm11.0126953 6.9785156v5.0888672h-1.7578125v-13.6142578h3.8671875c1.4707032 0 2.6118164.3544884 3.4233399 1.0634766.8115234.7089882 1.2172851 1.7226486 1.2172851 3.0410156 0 1.3359451-.4746093 2.4184532-1.4238281 3.2475586-.9492187.8291092-2.1357422 1.2202148-3.5595703 1.1733398zm0-6.9785156v5.4316406h1.6259766c1.0722656 0 1.8867187-.2416954 2.4433594-.7250976.5566406-.4834023.8349609-1.1762657.8349609-2.0786133 0-1.7519608-1.0371094-2.6279297-3.1113281-2.6279297zm7.4970703 12.0673828" fill="#4c4c4c"/><g fill="none" stroke="#017c98"><path clip-path="url(#d)" d="m348.9998169 63.7611923v-39.7611923h7.0001831"/><path clip-path="url(#e)" d="m348.9998169 63.7611923v-21.7611923h7.0001831"/><path clip-path="url(#f)" d="m348.9998169 63.7611923v41.2388077h7.0001831"/><path clip-path="url(#g)" d="m336 63.6965179 12.9998169.0646744"/></g><path clip-path="url(#h)" d="m270.7094727 63.3525391h3.3134765v-3.694336h-2.7548828v-1.0029297h11.3876953v1.0029297h-2.5898437v3.694336h3.1357422v1.0029297h-3.1357422v5.7890625h-1.0410157v-5.7890625h-3.9672851c-.0296021 1.5488357-.25177 2.6998672-.6665039 3.453125-.4147339.8294296-1.3668518 1.6630783-2.8564453 2.5009765-.2200318-.3046875-.4612427-.6009064-.7236328-.8886719 1.2949218-.6601562 2.1582031-1.3499298 2.5898437-2.0693359.3850708-.5797577.590332-1.5784454.6157227-2.9960937h-3.3071289zm4.3544921 0h3.9609375v-3.694336h-3.9609375zm10.3085938-2.7548828h2.6850586c.2073364-.8844452.3829956-1.8492775.5268555-2.8945313l1.0791015.1396484c-.1438598.9606171-.319519 1.8789025-.5268554 2.7548829h7.0141601v.9394531h-7.2553711c-.1523437.5585975-.319519 1.0960273-.5014648 1.6123047h6.296875v.8759765c-.5585938 1.3837967-1.4282227 2.5792618-2.6088867 3.5864258 1.1891479.7194061 2.5750122 1.2250977 4.1577148 1.5170899-.3808594.4231796-.677063.7786407-.8886719 1.0664062-1.354187-.4485703-2.7167969-1.1044846-4.0878906-1.9677734-1.1002808.7236328-2.674469 1.4091797-4.7226563 2.0566406-.2369995-.3385468-.4909057-.6516876-.7617187-.9394531 2.0820312-.5416718 3.637207-1.1150666 4.6655273-1.7202149-1.112976-.952156-1.9064331-2.1518478-2.3803711-3.5991211-.9267578 2.3190232-2.1878051 4.2232971-3.7832031 5.7128907-.2285156-.3216172-.4528198-.609375-.6728515-.8632813 1.9085388-1.7223358 3.3113403-4.1682816 4.2084961-7.3378906h-3.5229493v-.9521485c.3469849-.804039.6643677-1.6123008.9521485-2.4248046l1.0283203.2792968c-.2962036.7447968-.5966797 1.4641876-.9013672 2.1582032zm8.2011719 3.4277343h-4.5893555c.3808594 1.1722031 1.1362305 2.1814728 2.2661133 3.0278321 1.0960388-.9056015 1.8704223-1.9148713 2.3232422-3.0278321zm-1.9550782-5.446289.5585938-.7109375c.8294372.5247421 1.625 1.0706367 2.3867187 1.6376953l-.6855468.8251953c-.7363282-.6263046-1.489563-1.2102852-2.2597657-1.7519531zm10.1308594.9267578v-.9521485h6.9951172v.9521485h-3.269043c-.2877807.9902382-.6135864 1.9339142-.977539 2.8310547h.8315429v7.8583984h-1.0029296v-7.4458008c-.850586 1.988945-1.8916016 3.7429962-3.1230469 5.2622071-.2200318-.2200547-.4866333-.4274064-.7998047-.6220704 1.8154297-2.2132263 3.1568909-4.8411293 4.0244141-7.883789zm-5.1035156 7.1601562c.609375-.1481094 1.2568359-.3131485 1.9423828-.4951172v-2.9960937h-1.7011719v-.9140625h1.7011719v-2.3359375h-1.7900391v-.9140625h4.4814454v.9140625h-1.6884766v2.3359375h1.6757812v.9140625h-1.6757812v2.7294922c.5120544-.1396485 1.045227-.2877579 1.5996094-.444336-.0253907.3131562-.0296021.6051407-.0126953.8759766-1.6842652.5332031-3.1399537 1.0029297-4.3671875 1.4091797zm9.6738281-4.0371093c1.2949219 1.7350311 2.2809143 3.1399688 2.9580078 4.2148437l-.8632812.6601563c-.8971558-1.5065156-1.8577271-2.9580002-2.881836-4.3544922zm7.8837891.3808593h6.9443359v4.3291016h-.8759765v-.2919922h-1.1933594v1.3710938c0 .4654998.2200317.6982421.6601562.6982421h.7998047c.4147339 0 .6516724-.211586.7109375-.6347656.0507813-.3300781.0846558-.7193985.1015625-1.1679687.3215943.1438827.6347656.2708358.9394531.3808593-.0592651.5247422-.1227417.9225235-.1904296 1.1933594-.1438599.7194061-.6220704 1.0791016-1.4345704 1.0791016h-1.1552734c-.8886719 0-1.3330078-.423172-1.3330078-1.2695313v-1.6503906h-1.1870117c-.1100464.9267654-.4718323 1.6165314-1.0854492 2.0693359-.5162964.4147187-1.421875.8082657-2.7167969 1.1806641-.1777344-.2877655-.3723755-.5797501-.5839844-.8759766 1.3203125-.2792968 2.2258911-.617836 2.7167969-1.015625.40625-.3173828.6516723-.7701797.7363281-1.3583984h-.9775391v.2919922h-.8759765zm-4.5322266 4.1513672c.4528198-.1057968.9775391-.2348633 1.5742188-.387207v-4.855957h-1.4472657v-.9013672h1.4472657v-3.1738282h.9267578v3.1738282h1.3076172v.9013672h-1.3076172v4.6083984c.473938-.1269531.9859924-.2666016 1.5361328-.4189453.0084839.3639374.0211792.6813125.0380859.9521484-1.3034057.3554688-2.5982971.7405548-3.8847656 1.1552735zm4.0751953-5.7763672h2.2851563c-.2327271-.368164-.4909058-.7363281-.7744141-1.1044922l.7490235-.4697265c.3469848.4231796.6686401.8421211.9648437 1.2568359l-.4760742.3173828h1.9169922c.3427734-.5247421.6622925-1.0537071.9584961-1.586914l.9140625.5078125c-.2877808.368164-.5734253.7278633-.8569336 1.0791015h2.621582v.7617188h-8.3027344zm.3046875-2.399414h3.3515625c-.1523437-.3046875-.3215942-.6136055-.5078125-.9267578l.8886719-.3681641c.2581177.4528007.4782105.8844375.6601563 1.2949219h3.1738281v.7617187h-7.5664063zm1.0283203 7.3251953h5.1923829v-.9394531h-5.1923829zm5.1923829-2.5644531h-5.1923829v.9140625h5.1923829zm2.1835937 4.7924804" fill="#303030"/><path clip-path="url(#i)" d="m366.1948242 28.1254883c1.4707031-.225586 2.671875-.6005821 3.6035156-1.125-.7646484-.3574219-1.5732421-.7265625-2.4257812-1.1074219.2783203-.4160194.5522461-.8496056.8217773-1.3007812h-2.3071289v-.6503907h2.6894532c.2958984-.5185585.5888671-1.0576133.8789062-1.6171875l.6943359.2900391c-.2578125.4541054-.5112304.8964806-.7602539 1.3271484h5.2163086v.6503907h-1.8852539c-.2929687.8876991-.7983398 1.6464805-1.5161133 2.2763671.9228516.4160195 1.8427735.8378869 2.7597657 1.265625l-.4306641.703125c-.8935547-.4687538-1.8823242-.9594688-2.9663086-1.4721679-1.0195312.6855507-2.3540039 1.1791992-4.003418 1.480957-.1054687-.2226562-.2285156-.4628906-.3691406-.7207031zm.1230469-6.6357422h3.9594727c-.2226563-.3222656-.479004-.6533203-.769043-.9931641l.5888672-.3955078c.3574218.3867226.6591797.7587891.9052734 1.116211l-.4042969.2724609h3.5947266v1.6699219h-.7119141v-1.0195313h-6.4599609v1.0195313h-.703125zm2.0654297 4.1396484c.703125.3017578 1.4033203.6079102 2.1005859.9184571.7001953-.533207 1.190918-1.1850548 1.472168-1.9555664h-2.9487305c-.2109375.3544921-.4189453.7001953-.6240234 1.0371093zm11.5576172 1.7050782c-.0058594.2578125-.0058594.4892578 0 .6943359-.7792969.2226562-1.4003907.4160156-1.8632813.5800781-.1757812.0644531-.3867187.1611328-.6328125.2900391l-.3867187-.5361328c.140625-.1171875.2109375-.319336.2109375-.6064453v-.6811524c-.5976563.3486328-1.2714844.6635742-2.0214844.9448242-.1113281-.2109375-.2431641-.4189453-.3955078-.6240234 1.5644531-.5039101 2.7993164-1.1777306 3.7045898-2.0214844h-3.590332v-.6152344h4.1176758c-.140625-.2255859-.2797852-.4365234-.4174805-.6328125l.5625-.3427734c.1992188.2929688.3837891.5625.5537109.8085938l-.28125.1669921h4.0605469v.6152344h-4.0034179c.243164.4775429.5639648.8891602.9624023 1.2348633.6533203-.3134766 1.2978516-.6459961 1.9335937-.9975586l.3691407.6416016c-.5830078.2314453-1.1762696.4790039-1.7797852.7426758.6826172.4335975 1.5366211.7250976 2.5620117.8745117-.1757812.234375-.336914.4541015-.4833984.6591797-1.8984375-.3720704-3.2548828-1.3051682-4.0693359-2.7993164-.3339844.3310546-.7119141.6430664-1.1337891.9360351v1.2832031c.6972656-.1933593 1.3710937-.3984375 2.0214844-.6152343zm-1.2304688-4.2011719h1.9072266v-1.1689453h-2.2148438v-.6064453h2.2148438v-1.1865235h.6591797v1.1865235h2.2675781v.6064453h-2.2675781v1.1689453h1.96875v.6064453h-4.5351563zm-1.3535156-2.9794922h.6503906v4.0517578h-.6503906v-1.3491211c-.6328125.3632813-1.2949219.7485314-1.9863281 1.1557617-.0644532-.1347656-.1845703-.3515625-.3603516-.6503906.8349609-.4248085 1.6171875-.845211 2.3466797-1.2612305zm-2.109375.8701172.4658203-.4570313c.5332031.439457.9345703.7939453 1.2041016 1.0634766l-.5273438.5097656c-.421875-.4511757-.8027344-.8232422-1.1425781-1.1162109zm15.8759766.6240234h-2.6279297v2.2763672h2.4345703v.7734375h-2.4345703v2.9750977h-.8789063v-6.8071289h3.506836zm1.3789062 6.0249024v-7.1938477h.8613281v7.1938477zm6.0166016 0h-.8657227v-.7646485h-.0175781c-.3251953.5859413-.824707.8789063-1.4985352.8789063-1.1513672 0-1.7270507-.688469-1.7270507-2.0654297v-2.9091797h.852539v2.7817383c0 .9873085.3779297 1.480957 1.1337891 1.480957.375 0 .6782226-.1384277.9096679-.4152832.2314454-.2768555.347168-.6262169.347168-1.0480957v-2.7993164h.8657227zm4.321289-.0483399c-.1875.1025391-.4409179.1538086-.7602539.1538086-.8701172 0-1.3051758-.4819298-1.3051758-1.4458008v-2.8081054h-.8349609v-.7119141h.8349609v-1.1689453l.8569336-.2724609v1.4414062h1.2084961v.7119141h-1.2084961v2.6542968c0 .319336.0541993.5478516.1625977.6855469s.2885742.206543.5405273.206543c.1933594 0 .3618164-.0541992.5053711-.1625977zm3 0c-.1875.1025391-.4409179.1538086-.7602539.1538086-.8701172 0-1.3051758-.4819298-1.3051758-1.4458008v-2.8081054h-.8349609v-.7119141h.8349609v-1.1689453l.8569336-.2724609v1.4414062h1.2084961v.7119141h-1.2084961v2.6542968c0 .319336.0541993.5478516.1625977.6855469s.2885742.206543.5405273.206543c.1933594 0 .3618164-.0541992.5053711-.1625977zm4.6259766-2.1621094h-3.4013672c.0146484.5185585.1567383.9191895.4262695 1.2019043.2695313.2827149.6459961.4240723 1.1293946.4240723.5449218 0 1.0444336-.1743164 1.4985351-.5229492v.769043c-.4277343.3017578-.9946289.4526367-1.7006836.4526367-.703125 0-1.251709-.2226525-1.6457519-.6679688-.394043-.4453163-.5910645-1.0634727-.5910645-1.8544922 0-.7441444.2160645-1.3579063.6481934-1.8413086.4321289-.4834022.9689941-.7250976 1.6105957-.7250976.6357422 0 1.1323242.2043419 1.4897461.6130371s.5361328.9807091.5361328 1.7160645zm-.8613281-.6899414c-.0029297-.4394569-.1069336-.7792968-.3120117-1.0195312-.2050782-.2402344-.4936524-.3603516-.8657227-.3603516-.3427734 0-.6394043.1274414-.8898926.3823242-.2504883.2548829-.407959.5873986-.4724121.9975586zm4.5078125-1.1074218c-.1435547-.1025391-.3413086-.1538086-.5932617-.1538086-.3339844 0-.609375.1560058-.8261719.4680175-.2167969.3120118-.3251953.7228966-.3251953 1.2326661v2.4609375h-.8613282v-4.8603516h.8613282v.9887695h.0175781c.2460937-.7148475.6708984-1.0722656 1.2744141-1.0722656.196289 0 .3471679.0219727.4526367.065918zm.0615234 4.0078125"/><path clip-path="url(#j)" d="m369.644043 38.8964844h4.8867187c-.0878906 3.0644684-.1552734 5.0654258-.2021484 6.0029297-.0234375 1.0957107-.4921875 1.6376953-1.40625 1.6259765-.2988281 0-.7294922-.008789-1.2919922-.0263672-.0410156-.2753906-.0878906-.5390625-.140625-.7910156.5625.0527344 1.0136719.0791016 1.3535156.0791016.4804688.0175781.7324219-.292965.7558594-.9316406.0585937-.9199257.1201172-2.6806489.1845703-5.2822266h-1.9951172c-.0351562 1.1367264-.0791015 2.0566368-.1318359 2.7597656-.1289063 1.8105545-.9228516 3.2929611-2.381836 4.4472656-.1523437-.1816406-.3398437-.3691406-.5625-.5625 1.359375-1.0488357 2.0947266-2.3613205 2.2060547-3.9375.0673828-.776371.1098633-1.6787033.1274414-2.7070312h-1.4018554zm-3.3222657 1.5292969v-.6328125h2.9091797v.6503906c-.3251953.5595703-.6708984 1.0795898-1.0371093 1.5600586v.2724609c.140625.0996094.2827148.1992188.4262695.2988281.2900391-.3867187.5610351-.7895507.8129883-1.2084961l.5800781.3691407c-.2519531.3632812-.5493164.7631836-.8920898 1.199707.2929687.2138672.5874023.4321289.8833007.6547852l-.4482422.5361328c-.4482421-.3691407-.9023437-.7338868-1.3623046-1.0942383v3.7045898h-.6679688v-3.9287109c-.3457031.3808594-.7089844.7324219-1.0898437 1.0546875-.0644532-.2285156-.1435547-.4804688-.2373047-.7558594.84375-.6621132 1.59375-1.5556564 2.25-2.680664zm.834961-2.0302735.6152344-.3076172c.2167968.3457032.4453125.7470703.6855468 1.2041016l-.6503906.3339844c-.2167969-.46875-.4335937-.8789063-.6503906-1.2304688zm11.9443359 4.4296875h4.2363281v3.9550781h-.6679687v-.6152343h-2.9003906v.6240234h-.6679688zm-.28125 2.4785156-.5185547.5800782c-.3193359-.3251953-.6386718-.6416016-.9580078-.9492188-.4335937.626957-.9990234 1.21875-1.696289 1.7753906-.1230469-.1816406-.2578125-.3720703-.4042969-.571289.6708984-.4951172 1.2099609-1.0488243 1.6171875-1.6611328-.4189453-.3925782-.8378906-.7705078-1.256836-1.1337891.2080079-.7880898.3969727-1.6699142.5668946-2.6455078h-.9008789v-.6591797h1.0151367c.09375-.5918007.1831055-1.2158165.2680664-1.8720703l.7119141.1054687c-.0966797.635746-.1933594 1.2246094-.2900391 1.7666016h1.6347656v.6503906c-.1376953 1.5703202-.430664 2.7758751-.8789062 3.6166992.3984375.3486329.7617187.6811524 1.0898437.9975586zm3.6386719-5.9941406c.5976562.9433632 1.1132812 1.8632774 1.546875 2.7597656l-.6943359.3251954c-.1230469-.28125-.2504883-.5595704-.3823243-.834961-.9257812.0556641-2.0317382.1435547-3.3178711.2636719-.1640625.0175781-.3720703.0673828-.6240234.1494141l-.3251953-.6328125c.2050781-.1230469.3808594-.2871094.5273437-.4921875.4746094-.7089882.9550782-1.6201096 1.4414063-2.7333985l.7382812.2373047c-.5332031 1.0195389-1.0634765 1.9453087-1.5908203 2.7773438 1.171875-.0732422 2.1240235-.1274415 2.8564453-.1625977-.2373046-.4658203-.4863281-.9243164-.7470703-1.3754883zm.2109375 4.1308594h-2.9003906v2.1269531h2.9003906zm-4.7373047-2.7421875h-1.0766601c-.1845704.9697342-.3676758 1.7753868-.5493165 2.4169922.319336.2578125.6225586.5068359.909668.7470703.3984375-.8173866.637207-1.8720627.7163086-3.1640625zm8.7714844 2.8740234c.7675781-.3574218 1.4853515-.7690429 2.1533203-1.2348633v-4.0297851h.7558594v3.4628906c.8964843-.7236366 1.6933593-1.5585899 2.390625-2.5048828l.6416015.4658203c-.852539 1.1337967-1.8632812 2.1254845-3.0322265 2.9750977v2.4829101c0 .3984375.2109375.5976563.6328125.5976563h1.1162109c.3984375 0 .6298828-.1904297.6943359-.5712891.0820313-.3984375.1347657-.8583984.1582032-1.3798828.2460937.09375.5039062.1787109.7734375.2548828-.046875.4921875-.1083985.9433594-.1845703 1.3535156-.1113282.673832-.5332032 1.0107422-1.265625 1.0107422h-1.4853516c-.796875 0-1.1953125-.3925743-1.1953125-1.1777343v-2.0566407c-.5478516.3515625-1.125.6738282-1.7314453.9667969-.1230469-.1933594-.2636719-.3984375-.421875-.6152344zm-2.4697266-1.0810547c1.0195313-1.3535232 1.7695313-2.7919845 2.25-4.3154296l.7646485.2197265c-.2783204.7265663-.5800782 1.4106407-.9052735 2.0522461v6.2885742h-.7382812v-4.9658203c-.3251953.5273438-.6708985 1.022461-1.0371094 1.4853516-.0996094-.2519531-.2109375-.506836-.3339844-.7646485zm12.5244141-2.118164h1.6259765l.2460938-1.0986328h-2.0742188v-.6152344h5.2998047v.6152344h-2.4609375l-.290039 1.0986328h2.3115234v4.5878906h-.6855469v-3.9726562h-3.2871093v3.9726562h-.6855469zm-3.5859375 4.3066406c.4804687-.1054687.9228515-.2080078 1.3271484-.3076172v-4.6669922h-1.2041015v-.6328125h3.0146484v.6328125h-1.125v4.5c.4863281-.1171875.9023437-.2226562 1.2480469-.3164062.0117187.3046875.0322265.5361328.0615234.6943359-1.40625.3515625-2.4492187.6210938-3.1289062.8085938zm5.5722656-3.1201172h.6855469v1.3623047c0 .6093788-.0820313 1.1455078-.2460938 1.6083984 1.0253907.5507813 1.9423828 1.0986329 2.7509766 1.6435547l-.4570313.6240235c-.8085937-.6035195-1.6640625-1.1660157-2.5664062-1.6875-.0410156.0644531-.0820313.1259765-.1230469.1845703-.4746094.6503944-1.3095703 1.1894531-2.5048828 1.6171875-.1171875-.1816406-.2636719-.3808594-.4394531-.5976563 1.1484375-.3867187 1.9423828-.8701133 2.3818359-1.4501953.3457031-.4453125.5185547-1.1015587.5185547-1.96875zm4.6933594-2.9970703h6.3632812v8.1386719h-.7470703v-.6591797h-4.8691406v.6591797h-.7470703zm.7470703 5.1679688v1.6611328h4.8691406v-1.6611328zm0-2.2587891v1.6435547h4.8691406v-1.6435547zm0-2.2587891v1.6435547h4.8691406v-1.6435547zm6.9257812 6.4028321"/><path clip-path="url(#k)" d="m424 105v-23c0-2.2080002 1.7919922-4 4-4h3" fill="none" stroke="#017c98"/><path clip-path="url(#l)" d="m424 105v23c0 2.2080078 1.7919922 4 4 4h3" fill="none" stroke="#017c98"/><path clip-path="url(#m)" d="m411 105h13" fill="none" stroke="#017c98"/><path clip-path="url(#n)" d="m365.6933594 105.9570313h3.8935547v-3.6738282h-3.4980469v-.6767578h7.7695312v.6767578h-3.5332031v3.6738282h3.9199219v.6767578h-3.9199219v3.234375h-.7382812v-3.234375h-3.8935547zm5.3173828-.8789063c.6445312-.6796875 1.2246094-1.4296875 1.7402344-2.25l.6591797.421875c-.6621094.9082031-1.2802735 1.6699219-1.8544922 2.2851563zm-4.4736328-1.828125.5537109-.3867187c.65625.7675781 1.2216797 1.508789 1.6962891 2.2236328l-.6240235.4658203c-.4511718-.7324219-.993164-1.5-1.6259765-2.3027344zm15.5566406 2.5839844v3.9902344h-.7207031v-.5800782h-4.8339844v.5800782h-.7207031v-3.9902344zm-1.2919922-3.4892578c.9199219.8554687 1.7900391 1.7314453 2.6103516 2.6279297l-.6240235.5185546c-.234375-.2753906-.4716796-.5463867-.711914-.8129882-2.6308594.1113281-4.640625.2065429-6.0292969.2856445-.3222656.0234375-.6328125.0703125-.9316406.140625l-.2900391-.7558594c.2695313-.0996094.5126953-.2373047.7294922-.4130859 1.0019531-.8203125 1.9189453-1.7666016 2.7509766-2.8388672l.6591797.4042969c-.8789063 1.03125-1.7958985 1.9482422-2.7509766 2.7509765 1.7958984-.055664 3.5625-.1201172 5.2998047-.1933593-.4013672-.4365235-.8085938-.8613282-1.2216797-1.2744141zm.5712891 4.1396484h-4.8339844v2.1269531h4.8339844zm5.2207031-.7822266v-.6064453h4.7900391v.6064453c-.4628907 1.0166016-1.0341797 1.8134766-1.7138672 2.390625.7470703.4921875 1.6464844.834961 2.6982422 1.0283204-.2050782.2636718-.3837891.5009765-.5361328.711914-1.0458985-.3017578-1.9570313-.7397461-2.7333985-1.3139648-.796875.5390625-1.8046875 1.0004883-3.0234375 1.3842773-.1523437-.2167969-.3046875-.4277344-.4570312-.6328125 1.1630859-.3134765 2.1357422-.7133789 2.9179687-1.199707-.6796875-.65625-1.1733398-1.4458008-1.480957-2.3686524zm3.6914063-3.4277343h-2.1972657v.2548828c0 1.078125-.4921875 1.8808594-1.4765625 2.4082031-.1582031-.1933594-.328125-.375-.5097656-.5449219.8671875-.4453125 1.3007813-1.0605468 1.3007813-1.8457031v-.9228516h3.5683593v1.7929688c0 .2636719.1347657.3955078.4042969.3955078h.9667969c-.0292969.2402344-.0527344.4570313-.0703125.6503906h-1.1601563c-.5507812 0-.8261718-.3046875-.8261718-.9140625zm-3.6650391 4.9570312c.0117187.2753906.0322266.5361328.0615234.7822266-.8027343.5214844-1.4003906.9404297-1.7929687 1.2568359l-.421875-.5800781c.1992187-.1933594.2988281-.4570313.2988281-.7910156v-3.1289063h-1.1162109v-.6328125h1.7841797v3.9023438c.3808593-.2519532.7763671-.5214844 1.1865234-.8085938zm-1.7753906-5.765625c.4511718.4453125.8818359.8964844 1.2919922 1.3535156l-.6152344.5097657c-.4277344-.5507813-.8291016-1.0195313-1.2041016-1.40625zm2.8740234 4.2363281c.2958984.7470704.7602539 1.4047852 1.3930664 1.9731446.6210938-.4804688 1.1176758-1.1381836 1.4897461-1.9731446zm4.8691406 3.375h1.3095703v-4.0693359h2.6894532v-.5712891h-3.788086v-.4921875h3.788086v-.4658203h.6328125v.4658203h3.8847656v.4921875h-3.8847656v.5712891h2.8740234v4.0693359h1.2128906v.5097657h-8.71875zm.7646485-7.4794921h7.1982422v1.9599609h-.5976563v-.2021484h-5.9941406v.2021484h-.6064453zm1.1601562 7.4794921h4.9658203v-.5625h-4.9658203zm0-1.0195312h4.9658203v-.5537109h-4.9658203zm0-1.0107422h4.9658203v-.5537109h-4.9658203zm4.9658203-1.5644531h-4.9658203v.5537109h4.9658203zm.4746094-3.4101563h-1.6171875v.8085938h1.6171875zm-3.8056641.8085938h1.6083985v-.8085938h-1.6083985zm-2.1884765 0h1.6083984v-.8085938h-1.6083984zm7.4970703 5.7963867"/><g fill="none" stroke="#017c98"><path clip-path="url(#o)" d="m477 78v-14c0-2.2080002 1.7919922-4 4-4h3"/><path clip-path="url(#p)" d="m477 78h4 3"/><path clip-path="url(#q)" d="m477 78v14c0 2.2080002 1.7919922 4 4 4h3"/><path clip-path="url(#r)" d="m464 78h13"/></g><path clip-path="url(#s)" d="m440.9587402 75.4260254c0-.1523438.052002-.2805176.1560059-.3845215s.2321777-.1560059.3845215-.1560059c.1552734 0 .2863769.0512696.3933105.1538086.1069336.1025391.1604004.2314454.1604004.3867188 0 .1523437-.0534668.2790527-.1604004.3801269-.1069336.1010743-.2380371.1516114-.3933105.1516114-.1552735 0-.2841797-.0505371-.3867188-.1516114-.102539-.1010742-.1538086-.2277832-.1538086-.3801269zm.1010743 6.5742187v-4.8603515h.8613281v4.8603515zm1.6748046-3.3222656c0-1.0986404.2973633-1.9731445.8920899-2.6235351.5947265-.6503907 1.4003906-.975586 2.4169922-.975586.946289 0 1.7080078.3178711 2.2851562.9536133.5771485.6357422.8657227 1.4633713.8657227 2.4829102 0 1.1044998-.2958985 1.9804687-.8876953 2.6279296-.5917969.647461-1.3828125.9711915-2.3730469.9711915-.9667969 0-1.7416992-.3178711-2.324707-.9536133-.5830079-.6357422-.8745118-1.4633713-.8745118-2.4829102zm.9228516-.0703125c0 .8232422.2102051 1.4831543.6306152 1.9797363.4204102.4965821.9689942.7448731 1.645752.7448731.7265625 0 1.2971191-.2380371 1.7116699-.7141113.4145508-.4760743.6218262-1.1418457.6218262-1.9973145 0-.8789139-.2028809-1.5571289-.6086426-2.034668-.4057617-.477539-.9616699-.7163086-1.6677246-.7163086-.6943359 0-1.2568359.2519532-1.6875.7558594-.4306641.5039063-.6459961 1.1645508-.6459961 1.9819336zm6.2001953 2.1137695c.2080078.1816407.4863281.3310547.834961.4482422.3486328.1171875.6796875.1757813.993164.1757813.9550781 0 1.4326172-.3398438 1.4326172-1.0195313 0-.1904297-.0512695-.3618164-.1538086-.5141601-.1025391-.1523438-.2431641-.2871094-.421875-.4042969s-.5141601-.2973633-1.0063476-.5405273c-.6826172-.3398438-1.1323243-.6555176-1.3491211-.9470215-.2167969-.2915039-.3251954-.6247559-.3251954-.9997559 0-.5654297.2270508-1.0136719.6811524-1.3447265.4541016-.3310547 1.0268555-.4965821 1.7182617-.4965821.6767578 0 1.1733399.0820313 1.4897461.2460938v.9580078c-.4101562-.2841797-.9287109-.4262695-1.5556641-.4262695-.4160156 0-.7551269.0871582-1.0173339.2614746-.2622071.1743164-.3933106.416748-.3933106.7272949 0 .2753906.0908203.4995117.2724609.6723633.1816407.1728515.5756836.4086914 1.182129.7075195.6679687.3193359 1.1352539.6386719 1.4018554.9580078.2666016.3193359.3999024.6782227.3999024 1.0766602 0 .5976562-.2167969 1.0561523-.6503907 1.3754882-.4335937.319336-1.0356445.479004-1.8061523.479004-.2695313 0-.5837402-.0373536-.942627-.1120606-.3588867-.074707-.6203613-.1677246-.7844238-.2790527zm4.631836 1.2788086"/><path clip-path="url(#t)" d="m494.0180664 64.1254883c1.4707031-.225586 2.671875-.6005821 3.6035156-1.125-.7646484-.3574219-1.5732422-.7265625-2.4257812-1.1074219.2783203-.4160194.5522461-.8496056.8217773-1.3007812h-2.3071289v-.6503907h2.6894531c.2958985-.5185585.5888672-1.0576133.8789063-1.6171875l.6943359.2900391c-.2578125.4541054-.5112304.8964806-.7602539 1.3271484h5.2163086v.6503907h-1.8852539c-.2929687.8876991-.7983398 1.6464805-1.5161133 2.2763671.9228516.4160195 1.8427735.8378869 2.7597657 1.265625l-.4306641.703125c-.8935547-.46875-1.8823242-.9594688-2.9663086-1.4721679-1.0195312.6855469-2.3540039 1.1791992-4.003418 1.480957-.1054687-.2226562-.2285156-.4628906-.3691406-.7207031zm.1230469-6.6357422h3.9594726c-.2226562-.3222656-.4790039-.6533203-.7690429-.9931641l.5888672-.3955078c.3574218.3867188.6591796.7587891.9052734 1.116211l-.4042969.2724609h3.5947266v1.6699219h-.7119141v-1.0195313h-6.4599609v1.0195313h-.703125zm2.0654297 4.1396484c.703125.3017578 1.4033203.6079102 2.1005859.9184571.7001953-.533207 1.190918-1.1850548 1.472168-1.9555664h-2.9487305c-.2109375.3544921-.4189453.7001953-.6240234 1.0371093zm11.5576172 1.7050782c-.0058594.2578125-.0058594.4892578 0 .6943359-.7792969.2226562-1.4003907.4160156-1.8632813.5800781-.1757812.0644531-.3867187.1611328-.6328125.2900391l-.3867187-.5361328c.140625-.1171875.2109375-.319336.2109375-.6064453v-.6811524c-.5976563.3486328-1.2714844.6635742-2.0214844.9448242-.1113281-.2109375-.2431641-.4189453-.3955078-.6240234 1.5644531-.5039101 2.7993164-1.1777306 3.7045898-2.0214844h-3.590332v-.6152344h4.1176758c-.140625-.2255859-.2797852-.4365234-.4174805-.6328125l.5625-.3427734c.1992187.2929688.3837891.5625.5537109.8085938l-.28125.1669921h4.0605469v.6152344h-4.003418c.2431641.4775429.5639649.8891602.9624024 1.2348633.6533203-.3134766 1.2978515-.6459961 1.9335937-.9975586l.3691407.6416016c-.5830079.2314453-1.1762696.4790039-1.7797852.7426758.6826172.4335975 1.5366211.7250976 2.5620117.8745117-.1757812.234375-.336914.4541015-.4833984.6591797-1.8984375-.3720704-3.2548828-1.3051682-4.069336-2.7993164-.3339843.3310546-.711914.6430664-1.133789.9360351v1.2832031c.6972656-.1933593 1.3710937-.3984375 2.0214844-.6152343zm-1.2304688-4.2011719h1.9072266v-1.1689453h-2.2148438v-.6064453h2.2148438v-1.1865235h.6591797v1.1865235h2.2675781v.6064453h-2.2675781v1.1689453h1.96875v.6064453h-4.5351563zm-1.3535156-2.9794922h.6503906v4.0517578h-.6503906v-1.3491211c-.6328125.3632813-1.2949219.7485314-1.9863281 1.1557617-.0644532-.1347656-.1845704-.3515625-.3603516-.6503906.8349609-.4248047 1.6171875-.8452148 2.3466797-1.2612305zm-2.109375.8701172.4658203-.4570313c.5332031.439457.9345703.7939453 1.2041016 1.0634766l-.5273438.5097656c-.421875-.4511757-.8027344-.8232422-1.1425781-1.1162109zm17.1635742 6.6489258h-1.0678711l-1.5205078-2.5620118c-.0351563-.0585937-.0864258-.1757812-.1538086-.3515625h-.0219727c-.0058593.0234375-.0585937.1420899-.1582031.3559571l-1.5644531 2.5576172h-1.0722656l2.2631836-3.4189453-2.0830078-3.3881836h1.0766601l1.3447266 2.3554687c.0791015.1376953.1582031.2988281.2373047.4833984h.0175781c.0703125-.1582031.1567383-.3266601.2592773-.505371l1.40625-2.3334961h1.0063477l-2.1269531 3.375zm4.453125-.2197266c-.3720703.2226563-.8203125.3339844-1.3447266.3339844-.703125 0-1.2685546-.2255821-1.696289-.6767578s-.6416016-1.0356408-.6416016-1.753418c0-.7968788.2307129-1.4392052.6921387-1.927002.4614258-.4877967 1.0788574-.7316894 1.8522949-.7316894.4453125 0 .8261719.0791016 1.1425781.2373047v.852539c-.3427734-.2519531-.7236328-.3779296-1.1425781-.3779296-.4921875 0-.8928223.1706542-1.2019043.5119628s-.463623.7961388-.463623 1.364502c0 .5595741.1457519.9975586.4372558 1.3139648.2915039.3164063.6848145.4746094 1.1799317.4746094.4189453 0 .8144531-.1376953 1.1865234-.4130859zm1.3173828-2.1577148c0-.8027382.2241211-1.4362755.6723633-1.9006348s1.0561523-.6965332 1.8237305-.6965332c.7294922 0 1.3015136.2233848 1.7160644.670166s.6218262 1.0642052.6218262 1.8522949c0 .767582-.2211914 1.3872032-.6635742 1.8588867s-1.0356446.7075196-1.7797852.7075196c-.7265625 0-1.3066406-.2285118-1.7402344-.6855469-.4335937-.4570351-.6503906-1.0590782-.6503906-1.8061523zm.8789063-.0263672c0 .5595741.1413574 1.0004883.4240722 1.3227539.2827149.3222656.6628418.4833984 1.1403809.4833984.4921875 0 .8671875-.1574707 1.125-.4724121s.3867187-.7668419.3867187-1.3557129c0-.5918007-.1289062-1.0458984-.3867187-1.3623047-.2578125-.3164062-.6328125-.4746093-1.125-.4746093-.4833984 0-.8649902.1655273-1.1447754.496582s-.4196777.7851524-.4196777 1.3623047zm9.665039 2.4038086h-.8613281v-.8085938h-.0175781c-.3544922.6152382-.9052735.9228516-1.6523438.9228516-.6152343 0-1.1044922-.2189904-1.4677734-.6569824-.3632813-.4379921-.5449219-1.029049-.5449219-1.7731934 0-.8027382.2050781-1.4465294.6152344-1.9313965.4101562-.4848671.9462891-.7272949 1.6083984-.7272949.6621094 0 1.1425782.2578087 1.4414063.7734375h.0175781v-2.9926758h.8613281zm-.8569336-2.8916016c0-.3896484-.1281738-.7155762-.3845215-.9777832-.2563476-.262207-.5720214-.3933105-.9470214-.3933105-.4570313 0-.8173828.1706542-1.0810547.5119628s-.3955078.8063927-.3955078 1.3952637c0 .541996.1267089.970459.3801269 1.2854004s.5910645.4724121 1.0129395.4724121c.4160156 0 .7558593-.154541 1.0195312-.463623.2636719-.3090821.3955078-.6935997.3955078-1.1535645zm6.5976563.6811523h-3.4013672c.0146484.5185585.1567383.9191895.4262695 1.2019043.2695313.2827149.6459961.4240723 1.1293946.4240723.5449218 0 1.0444336-.1743164 1.4985351-.5229492v.769043c-.4277344.3017578-.9946289.4526367-1.7006836.4526367-.703125 0-1.251709-.2226525-1.6457519-.6679688-.394043-.4453163-.5910645-1.0634727-.5910645-1.8544922 0-.7441444.2160645-1.3579063.6481934-1.8413086.4321289-.4834022.9689941-.7250976 1.6105957-.7250976.6357422 0 1.1323242.2043457 1.4897461.6130371.3574218.4086952.5361328.9807091.5361328 1.7160645zm-.8613281-.6899414c-.0029297-.4394569-.1069336-.7792968-.3120118-1.0195312-.2050781-.2402344-.4936523-.3603516-.8657226-.3603516-.3427735 0-.6394043.1274414-.8898926.3823242-.2504883.2548829-.407959.5873986-.4724121.9975586zm1.2392578 2.9003907"/><path clip-path="url(#u)" d="m496.6113281 78.6757813v-.6064454h4.7900391v.6064454c-.4628906 1.0166091-1.0341797 1.8134765-1.7138672 2.390625.7470703.4921875 1.6464844.8349609 2.6982422 1.0283203-.2050781.2636718-.3837891.5009765-.5361328.711914-1.0458985-.3017578-1.9570313-.7397461-2.7333985-1.3139648-.796875.5390625-1.8046875 1.0004883-3.0234375 1.3842773-.1523437-.2167968-.3046875-.4277343-.4570312-.6328125 1.1630859-.3134765 2.1357422-.7133789 2.9179687-1.199707-.6796875-.65625-1.1733398-1.4458008-1.480957-2.3686523zm3.6914063-3.4277344h-2.1972656v.2548828c0 1.0781326-.4921875 1.8808594-1.4765625 2.4082031-.1582032-.1933594-.328125-.375-.5097657-.5449219.8671875-.4453125 1.3007813-1.0605468 1.3007813-1.8457031v-.9228515h3.5683594v1.7929687c0 .2636719.1347656.3955078.4042968.3955078h.9667969c-.0292969.2402344-.0527344.4570313-.0703125.6503906h-1.1601562c-.5507813 0-.8261719-.3046875-.8261719-.9140625zm-3.6650391 4.9570312c.0117188.2753907.0322266.5361328.0615235.7822266-.8027344.5214844-1.4003907.9404297-1.7929688 1.2568359l-.421875-.5800781c.1992188-.1933594.2988281-.4570312.2988281-.7910156v-3.1289063h-1.1162109v-.6328125h1.7841797v3.9023438c.3808594-.2519531.7763672-.5214844 1.1865234-.8085938zm-1.7753906-5.765625c.4511719.4453125.8818359.8964844 1.2919922 1.3535157l-.6152344.5097656c-.4277344-.5507813-.8291016-1.0195313-1.2041016-1.40625zm2.8740234 4.2363282c.2958985.7470703.7602539 1.4047851 1.3930664 1.9731445.6210938-.4804688 1.1176758-1.1381836 1.4897461-1.9731445zm4.8691407 3.375h1.3095703v-4.069336h2.6894531v-.571289h-3.7880859v-.4921875h3.7880859v-.4658204h.6328125v.4658204h3.8847656v.4921875h-3.8847656v.571289h2.8740234v4.069336h1.2128907v.5097656h-8.71875zm.7646484-7.4794922h7.1982422v1.9599609h-.5976563v-.2021484h-5.9941406v.2021484h-.6064453zm1.1601562 7.4794922h4.9658204v-.5625h-4.9658204zm0-1.0195313h4.9658204v-.5537109h-4.9658204zm0-1.0107422h4.9658204v-.5537109h-4.9658204zm4.9658204-1.5644531h-4.9658204v.5537109h4.9658204zm.4746093-3.4101563h-1.6171875v.8085938h1.6171875zm-3.805664.8085938h1.6083984v-.8085938h-1.6083984zm-2.1884766 0h1.6083984v-.8085938h-1.6083984zm8.1606445-.777832c0-.1523438.052002-.2805176.1560059-.3845215s.2321777-.1560059.3845215-.1560059c.1552734 0 .2863769.0512695.3933105.1538086s.1604004.2314453.1604004.3867188c0 .1523437-.0534668.2790527-.1604004.3801269s-.2380371.1516113-.3933105.1516113c-.1552735 0-.2841797-.0505371-.3867188-.1516113-.102539-.1010742-.1538086-.2277832-.1538086-.3801269zm.1010743 6.5742187v-4.8603516h.8613281v4.8603516zm1.6748046-3.3222656c0-1.0986405.2973633-1.9731445.8920899-2.6235352.5947265-.6503906 1.4003906-.9755859 2.4169922-.9755859.946289 0 1.7080078.3178711 2.2851562.9536133.5771485.6357422.8657227 1.4633712.8657227 2.4829101 0 1.1044998-.2958985 1.9804688-.8876953 2.6279297-.5917969.647461-1.3828125.9711914-2.3730469.9711914-.9667969 0-1.7416992-.3178711-2.324707-.9536133-.5830079-.6357421-.8745118-1.4633712-.8745118-2.4829101zm.9228516-.0703125c0 .8232422.2102051 1.4831543.6306152 1.9797363.4204102.496582.9689942.7448731 1.645752.7448731.7265625 0 1.2971191-.2380372 1.7116699-.7141114s.6218262-1.1418457.6218262-1.9973144c0-.8789139-.2028809-1.5571289-.6086426-2.034668s-.9616699-.7163086-1.6677246-.7163086c-.6943359 0-1.2568359.2519531-1.6875.7558594-.4306641.5039062-.6459961 1.1645508-.6459961 1.9819336zm6.2001953 2.1137695c.2080078.1816406.4863281.3310547.834961.4482422.3486328.1171875.6796875.1757813.993164.1757813.9550781 0 1.4326172-.3398438 1.4326172-1.0195313 0-.1904297-.0512695-.3618164-.1538086-.5141602-.1025391-.1523437-.2431641-.2871093-.421875-.4042968s-.5141601-.2973633-1.0063476-.5405274c-.6826172-.3398437-1.1323243-.6555176-1.3491211-.9470215-.2167969-.2915039-.3251954-.6247558-.3251954-.9997558 0-.5654297.2270508-1.0136719.6811524-1.3447266s1.0268555-.496582 1.7182617-.496582c.6767578 0 1.1733399.0820312 1.4897461.2460937v.9580079c-.4101562-.2841797-.9287109-.4262696-1.5556641-.4262696-.4160156 0-.7551269.0871582-1.0173339.2614746-.2622071.1743164-.3933106.4167481-.3933106.727295 0 .2753906.0908203.4995117.2724609.6723632.1816407.1728516.5756836.4086914 1.182129.7075196.6679687.3193359 1.1352539.6386718 1.4018554.9580078.2666016.3193359.3999024.6782226.3999024 1.0766601 0 .5976563-.2167969 1.0561524-.6503907 1.3754883-.4335937.319336-1.0356445.4790039-1.8061523.4790039-.2695313 0-.5837402-.0373535-.942627-.1120605-.3588867-.0747071-.6203613-.1677246-.7844238-.2790528zm7.3203125-.1054687h2.5444336c.0380859-.2138672.0629883-.4775391.074707-.7910157h-1.3535156v.2460938h-.6328125v-3.1816406h4.7021485v3.1816406h-.6328125v-.2460938h-1.4765625c-.0175782.3222657-.0439454.5859375-.0791016.7910157h2.7597656v.5625h-2.4257812c.6357422.711914 1.4765625 1.1455078 2.5224609 1.3007812-.1640625.2167969-.3076172.4365235-.4306641.6591797-1.133789-.3310547-2.0170898-.9287109-2.6499023-1.7929687-.4189453.8408203-1.3813477 1.4560546-2.887207 1.8457031-.0996094-.2050781-.2138672-.4072266-.3427735-.6064453 1.3798828-.2900391 2.2617188-.7587891 2.6455078-1.40625h-2.3378906zm-2.7949219-.5976563c.506836-.8496094.909668-1.8339767 1.2084961-2.953125h-1.1030273v-.5800781h1.2216797v-1.9511719h.6152344v1.9511719h1.1425781v.5800781h-1.1425781v1.1601563l.3427734-.28125c.3339844.3574218.6445312.7177734.9316406 1.0810547l-.4833984.4042968c-.2695313-.3896484-.5332031-.7338867-.7910156-1.0327148v4.7592773h-.6152344v-4.7856445c-.3134766 1.0722732-.65625 1.8793945-1.0283203 2.4213867-.0820313-.2519531-.1816407-.5097656-.2988282-.7734375zm6.5390625-5.4755859h.6152344v.84375h1.5117188v.5625h-1.5117188v.711914h-.6152344v-.711914h-1.5644531v.711914h-.6152344v-.711914h-1.3886718v-.5625h1.3886718v-.8525391h.6152344v.8525391h1.5644531zm.9580079 2.8916015h-3.4365235v.6591797h3.4365235zm-3.4365235 1.8457032h3.4365235v-.6591797h-3.4365235zm4.9658203-.0791016c.3544922-.09375.75-.2080078 1.1865235-.3427734v-1.9863282h-1.0898438v-.5888671h1.0898438v-1.6962891h.6679687v1.6962891h1.0283203v.5888671h-1.0283203v1.7753907c.3339844-.1083985.6884766-.225586 1.0634766-.3515625-.0117188.2871093-.0175781.5126953-.0175781.6767578-.3457032.1113281-.694336.2270508-1.0458985.3471679v2.8168946c0 .5859375-.2548828.890625-.7646484.9140625-.28125.0117187-.5742188.0146484-.8789063.008789-.0292968-.2167968-.0673828-.4599609-.1142578-.7294921.2871094.0351562.5244141.0527343.7119141.0527343.2519531 0 .3779297-.1318359.3779297-.3955078v-2.4389648c-.3603516.1230468-.7236328.2504883-1.0898438.3823242zm6.9169922-4.5351562h.6679688c-.0117188 1.0078201-.0263672 1.8867187-.0439453 2.6367187-.038086 1.4150467-.1904297 2.4916992-.4570313 3.2299805.6357422.7177734 1.2011719 1.3901367 1.6962891 2.0170898l-.5888672.4833985c-.4511719-.6269532-.9228516-1.2465821-1.4150391-1.8588868-.4716797.796875-1.1865234 1.4809571-2.1445312 2.0522461-.1464844-.1992187-.3076172-.383789-.4833985-.5537109 1.1015625-.6210938 1.8574219-1.4003906 2.2675782-2.3378906.2753906-.6855469.4248046-1.6992112.4482421-3.0410157.0234375-.8789138.0410157-1.7548751.0527344-2.6279296zm-1.6347656 4.6933593c.0585937.2460938.1347656.4746094.2285156.6855469-.5214844.4746094-1.0605469.9785156-1.6171875 1.5117188-.1347656.1347656-.2695312.3017578-.4042969.5009765l-.4570312-.5800781c.1816406-.2109375.2724609-.4804688.2724609-.8085938v-5.4140625h.6679688v5.3525391c.328125-.2871094.7646484-.703125 1.3095703-1.2480469zm-.8789063-4.5966797.5712891-.290039c.4394531.7851562.8173828 1.5058594 1.1337891 2.1621094l-.6152344.3427734c-.3984375-.8671951-.7617188-1.6054688-1.0898438-2.2148438zm4.9042969 3.4541016h3.5507813c.0908203-.2197266.149414-.4746094.1757812-.7646484l.6328125.0878906c-.0351562.2460937-.0864258.4716797-.1538086.6767578h1.9160156c-.234375-.1699219-.4819335-.3369141-.7426757-.5009766l.3603515-.3955078c.3867188.2285157.7353516.4570313 1.0458985.6855469l-.1977539.2109375h1.6391601v.5800781h-3.3925781c.6767578.6621094 1.8779297.975586 3.6035156.9404297-.140625.2402344-.2607422.4658203-.3603515.6767578-.1552735-.0117187-.3046875-.0249023-.4482422-.0395508v2.6850586h-.6152344v-.4833984h-1.8808594v.4746094h-.6152344v-2.7158203h2.7993164c-1.6757812-.225586-2.746582-.7382813-3.2124023-1.538086h-.1582031c-.328125.6972657-1.3916016 1.209961-3.1904297 1.538086h2.8125v2.7158203h-.6152344v-.4746094h-1.8544922v.4833984h-.6152343v-2.671875c-.1552735.0292969-.3164063.0585938-.4833985.0878907-.0878906-.1757813-.2021484-.3837891-.3427734-.6240235 1.9570312-.2519531 3.1318359-.6035156 3.524414-1.0546875h-3.1816406zm4.5087891-3.1992187h3.1113281v2.5927734h-.6152344v-.3076172h-1.8808593v.2724609h-.6152344zm-4.0341797 0h3.0849609v2.5576171h-.6152343v-.2724609h-1.8544922v.3603516h-.6152344zm6.5302734.5449218h-1.8808593v1.1953125h1.8808593zm-4.0605468 0h-1.8544922v1.1953125h1.8544922zm4.0693359 5.3173828h-1.8808594v1.1513672h1.8808594zm-4.0605469 0h-1.8544922v1.1513672h1.8544922zm5.625 1.1206055"/><path clip-path="url(#v)" d="m493.9262695 100.1386719c1.4707032-.225586 2.671875-.600586 3.6035157-1.125-.7646485-.3574219-1.5732422-.7265625-2.4257813-1.1074219.2783203-.4160156.5522461-.8496094.8217774-1.3007812h-2.307129v-.6503907h2.6894532c.2958984-.5185547.5888672-1.0576172.8789062-1.6171875l.694336.2900391c-.2578125.4541016-.5112305.8964844-.7602539 1.3271484h5.2163085v.6503907h-1.8852539c-.2929687.8876953-.7983398 1.6464843-1.5161132 2.2763671.9228515.4160157 1.8427734.8378907 2.7597656 1.265625l-.4306641.703125c-.8935547-.46875-1.8823242-.9594726-2.9663086-1.4721679-1.0195312.6855468-2.3540039 1.1791992-4.0034179 1.480957-.1054688-.2226562-.2285157-.4628906-.3691407-.7207031zm.1230469-6.6357422h3.9594727c-.2226563-.3222656-.4790039-.6533203-.769043-.9931641l.5888672-.3955078c.3574219.3867188.6591797.7587891.9052734 1.116211l-.4042969.2724609h3.5947266v1.6699219h-.7119141v-1.0195313h-6.4599609v1.0195313h-.703125zm2.0654297 4.1396484c.703125.3017578 1.4033203.6079102 2.1005859.9184571.7001953-.5332032 1.190918-1.1850586 1.472168-1.9555664h-2.9487305c-.2109375.3544921-.4189453.7001953-.6240234 1.0371093zm11.5576172 1.7050782c-.0058594.2578125-.0058594.4892578 0 .6943359-.7792969.2226562-1.4003906.4160156-1.8632813.5800781-.1757812.0644531-.3867187.1611328-.6328125.2900391l-.3867187-.5361328c.140625-.1171875.2109375-.319336.2109375-.6064453v-.6811524c-.5976563.3486328-1.2714844.6635742-2.0214844.9448242-.1113281-.2109375-.2431641-.4189453-.3955078-.6240234 1.5644531-.5039063 2.7993164-1.1777344 3.7045898-2.0214844h-3.590332v-.6152344h4.1176758c-.140625-.2255859-.2797852-.4365234-.4174805-.6328125l.5625-.3427734c.1992188.2929688.3837891.5625.553711.8085938l-.28125.1669921h4.0605468v.6152344h-4.0034179c.243164.4775391.5639648.8891602.9624023 1.2348633.6533203-.3134766 1.2978516-.6459961 1.9335938-.9975586l.3691406.6416016c-.5830078.2314453-1.1762695.4790039-1.7797852.7426757.6826172.4335938 1.5366211.7250977 2.5620117.8745118-.1757812.234375-.336914.4541015-.4833984.6591797-1.8984375-.3720704-3.2548828-1.3051682-4.0693359-2.7993165-.3339844.3310547-.7119141.6430665-1.1337891.9360352v1.2832031c.6972656-.1933593 1.3710938-.3984375 2.0214844-.6152343zm-1.2304688-4.2011719h1.9072266v-1.1689453h-2.2148438v-.6064453h2.2148438v-1.1865235h.6591797v1.1865235h2.2675781v.6064453h-2.2675781v1.1689453h1.96875v.6064453h-4.5351563zm-1.3535156-2.9794922h.6503906v4.0517578h-.6503906v-1.3491211c-.6328125.3632813-1.2949219.7485352-1.9863281 1.1557617-.0644531-.1347656-.1845703-.3515625-.3603516-.6503906.834961-.4248047 1.6171875-.8452148 2.3466797-1.2612305zm-2.109375.8701172.4658203-.4570313c.5332031.4394532.9345703.7939453 1.2041016 1.0634766l-.5273438.5097656c-.421875-.4511719-.8027343-.8232422-1.1425781-1.1162109zm12.5068359.852539c.46875.6914063.9082032 1.4121094 1.3183594 2.1621094-.2226562.1054688-.4482422.2226563-.6767578.3515625-.1025391-.2167969-.2080078-.430664-.3164062-.6416015-1.2626954.1230468-2.4609375.243164-3.5947266.3603515l-.3164063-.7294922c.3398438-.1816406.6328125-.4716797.8789063-.8701172.2255859-.3398437.4467773-.7207031.6635742-1.1425781h-1.6391601v-.6503906h5.0449218v.6503906h-2.5751953c-.4365234.741211-.8789062 1.4150391-1.3271484 2.0214844.8349609-.0615234 1.6845703-.1376953 2.5488281-.2285156-.1933594-.3369141-.3955078-.6650391-.6064453-.984375zm-3.6210937 3.3574219h2.0654297v-1.0898437h.703125v1.0898437h2.0126953v.6503906h-2.0126953v1.546875c.6914062-.0878906 1.4033203-.1816406 2.1357422-.28125 0 .2050782.0117187.4335938.0351562.6855469-1.6582031.2050781-3.3251953.4306641-5.0009765.6767578l-.2021485-.7382812c.7470703-.0761719 1.5234375-.1625977 2.3291016-.2592774v-1.6303711h-2.0654297zm7.3652344-5.0449219h.7294922v7.4355469c0 .7324219-.3544922 1.0986328-1.0634766 1.0986328-.2402344 0-.6679688-.0029297-1.2832031-.008789-.0351563-.2402344-.0791016-.5039063-.131836-.7910157.515625.046875.9140625.0703125 1.1953125.0703125.3691407.0058594.553711-.1845703.553711-.571289zm-1.9072266.9492188h.7119141v5.5986328h-.7119141zm3.8100586-.0395508c0-.1523437.052002-.2805176.1560059-.3845215s.2321777-.1560058.3845214-.1560058c.1552735 0 .286377.0512695.3933106.1538086.1069336.102539.1604004.2314453.1604004.3867187 0 .1523438-.0534668.2790527-.1604004.380127-.1069336.1010742-.2380371.1516113-.3933106.1516113-.1552734 0-.2841796-.0505371-.3867187-.1516113-.1025391-.1010743-.1538086-.2277832-.1538086-.380127zm.1010742 6.5742188v-4.8603516h.8613281v4.8603516zm1.6748047-3.3222657c0-1.0986328.2973633-1.9731445.8920899-2.6235351.5947265-.6503906 1.4003906-.975586 2.4169921-.975586.9462891 0 1.7080079.3178711 2.2851563.9536133s.8657226 1.4633789.8657226 2.4829102c0 1.1044922-.2958984 1.9804687-.8876953 2.6279297-.5917968.6474609-1.3828125.9711914-2.3730468.9711914-.9667969 0-1.7416993-.3178711-2.3247071-.9536133s-.8745117-1.4633789-.8745117-2.4829102zm.9228516-.0703125c0 .8232422.210205 1.4831543.6306152 1.9797364.4204102.496582.9689941.744873 1.645752.744873.7265625 0 1.2971191-.2380371 1.7116699-.7141113s.6218262-1.1418457.6218262-1.9973145c0-.8789062-.2028809-1.5571289-.6086426-2.0346679-.4057617-.4775391-.9616699-.7163086-1.6677246-.7163086-.694336 0-1.256836.2519531-1.6875.7558593-.4306641.5039063-.6459961 1.1645508-.6459961 1.9819336zm6.2001953 2.1137696c.2080078.1816406.4863281.3310547.8349609.4482422s.6796875.1757812.9931641.1757812c.9550781 0 1.4326172-.3398437 1.4326172-1.0195312 0-.1904297-.0512696-.3618165-.1538086-.5141602-.1025391-.1523438-.2431641-.2871094-.421875-.4042969-.178711-.1171875-.5141602-.2973633-1.0063477-.5405273-.6826172-.3398438-1.1323242-.6555176-1.3491211-.9470215-.2167968-.2915039-.3251953-.6247559-.3251953-.9997559 0-.5654297.2270508-1.0136718.6811524-1.3447265.4541015-.3310547 1.0268554-.4965821 1.7182617-.4965821.6767578 0 1.1733398.0820313 1.4897461.2460938v.9580078c-.4101563-.2841797-.928711-.4262695-1.5556641-.4262695-.4160156 0-.7551269.0871582-1.017334.2614746-.262207.1743164-.3933105.416748-.3933105.7272949 0 .2753906.0908203.4995117.2724609.6723633.1816406.1728515.5756836.4086914 1.1821289.7075195.6679688.319336 1.1352539.6386719 1.4018555.9580078.2666016.319336.3999023.6782227.3999023 1.0766602 0 .5976562-.2167968 1.0561523-.6503906 1.3754883-.4335937.3193359-1.0356445.4790039-1.8061523.4790039-.2695313 0-.5837403-.0373535-.942627-.1120606-.3588867-.074707-.6203613-.1677246-.7844238-.2790527zm7.5751953-1.6962891v-.6064453h4.7900391v.6064453c-.4628907 1.0166016-1.0341797 1.8134766-1.7138672 2.390625.7470703.4921875 1.6464843.8349609 2.6982422 1.0283203-.2050782.2636719-.3837891.5009766-.5361329.7119141-1.0458984-.3017578-1.9570312-.7397461-2.7333984-1.3139649-.796875.5390625-1.8046875 1.0004883-3.0234375 1.3842774-.1523437-.2167969-.3046875-.4277344-.4570312-.6328125 1.1630859-.3134766 2.1357421-.7133789 2.9179687-1.1997071-.6796875-.65625-1.1733398-1.4458007-1.480957-2.3686523zm3.6914062-3.4277344h-2.1972656v.2548828c0 1.0781327-.4921875 1.8808594-1.4765625 2.4082032-.1582031-.1933594-.328125-.375-.5097656-.5449219.8671875-.4453125 1.3007812-1.0605469 1.3007812-1.8457031v-.9228516h3.5683594v1.7929688c0 .2636718.1347656.3955078.4042969.3955078h.9667969c-.0292969.2402343-.0527344.4570312-.0703125.6503906h-1.1601563c-.5507812 0-.8261719-.3046875-.8261719-.9140625zm-3.665039 4.9570313c.0117187.2753906.0322265.5361328.0615234.7822265-.8027344.5214844-1.4003906.9404297-1.7929687 1.256836l-.421875-.5800781c.1992187-.1933594.2988281-.4570313.2988281-.7910157v-3.1289062h-1.1162109v-.6328125h1.7841796v3.9023437c.3808594-.2519531.7763672-.5214843 1.1865235-.8085937zm-1.7753906-5.765625c.4511718.4453125.8818359.8964844 1.2919921 1.3535156l-.6152343.5097656c-.4277344-.5507812-.8291016-1.0195312-1.2041016-1.40625zm2.8740234 4.2363281c.2958984.7470703.7602539 1.4047852 1.3930664 1.9731445.6210938-.4804687 1.1176758-1.1381836 1.4897461-1.9731445zm6.1083984.0263672h6.2578125v4.0957031h-.6328125v-.3867187h-4.9921875v.3867187h-.6328125zm1.256836-4.6494141.6591797.28125c-.1289063.2138672-.2680664.4248047-.4174805.6328125h4.7592773v.5888672c-.5419922.6533203-1.2714843 1.2231445-2.1884765 1.7094727.9697265.3251953 2.1269531.5229492 3.4716797.5932617-.1933594.2753906-.3574219.5214844-.4921875.7382812-1.5146485-.1816406-2.784668-.4936523-3.8100586-.9360351-1.163086.4980469-2.5678711.8891601-4.2143555 1.1733398-.1054688-.2050781-.2285156-.4160156-.3691406-.6328125 1.453125-.2109375 2.71875-.5229492 3.796875-.9360351-.6914063-.4013672-1.2348633-.8789063-1.6303711-1.4326172-.4365235.5009765-.9301758.9829101-1.4809571 1.4458008-.1582031-.1757813-.3193359-.3369141-.4833984-.4833985 1.0488281-.84375 1.8486328-1.7578048 2.3994141-2.7421875zm4.0605468 1.4941407h-3.9418945c.4716797.5625 1.0913086 1.0253906 1.8588867 1.3886718.8261719-.3925781 1.5205078-.8554687 2.0830078-1.3886718zm-4.6845703 4.7636718h2.1796875v-1.0810547h-2.1796875zm4.9921875-1.0810547h-2.1796875v1.0810547h2.1796875zm-2.1796875 2.6542969h2.1796875v-1.0722656h-2.1796875zm-2.8125 0h2.1796875v-1.0722656h-2.1796875zm6.9960938-.2329101"/><path clip-path="url(#w)" d="m498 132v-14c0-2.2080002 1.7919922-4 4-4h3" fill="none" stroke="#017c98"/><path clip-path="url(#x)" d="m498 132h4 3" fill="none" stroke="#017c98"/><path clip-path="url(#y)" d="m498 132v14c0 2.2080078 1.7919922 4 4 4h3" fill="none" stroke="#017c98"/><path clip-path="url(#z)" d="m485 132h13" fill="none" stroke="#017c98"/><path clip-path="url(#A)" d="m447.1826172 136.0397949h-.9711914l-.694336-1.8632812h-2.8344726l-.6547852 1.8632812h-.9711914l2.5927735-6.8071289h.9404297zm-1.9379883-2.6323242-1.0283203-2.8300781c-.0322266-.0908203-.0673828-.2490235-.1054688-.4746094h-.0219726c-.0322266.2050781-.0688477.3632813-.1098633.4746094l-1.0195312 2.8300781zm6.5888672 2.6323242h-.8569336v-2.7641601c0-.9990235-.3647461-1.4985352-1.0942383-1.4985352-.3779297 0-.6884765.140625-.9316406.421875s-.3647461.637207-.3647461 1.0678711v2.7729492h-.8613281v-4.8603515h.8613281v.8041992h.0175781c.366211-.6123047.8979492-.9184571 1.5952149-.9184571.5332031 0 .9389648.1706543 1.2172851.5119629s.4174805.8386231.4174805 1.4919434zm6.1098633 0h-.8613281v-.8085937h-.0175782c-.3544922.6152343-.9052734.9228515-1.6523437.9228515-.6152344 0-1.1044922-.2189941-1.4677735-.6569824-.3632812-.4379883-.5449218-1.0290527-.5449218-1.7731933 0-.8027344.2050781-1.4465332.6152343-1.9313965.4101563-.4848633.9462891-.727295 1.6083985-.727295s1.1425781.2578125 1.4414062.7734375h.0175782v-2.9926757h.8613281zm-.8569336-2.8916015c0-.3896485-.1281738-.7155762-.3845215-.9777832-.2563477-.2622071-.5720215-.3933106-.9470215-.3933106-.4570312 0-.8173828.1706543-1.0810547.5119629-.2636718.3413086-.3955078.8063965-.3955078 1.3952637 0 .5419922.126709.970459.380127 1.2854004.2534179.3149414.5910644.4724121 1.0129394.4724121.4160156 0 .7558594-.154541 1.0195313-.4636231.2636718-.309082.3955078-.6936035.3955078-1.1535644zm5.2441406-1.116211c-.1435547-.102539-.3413086-.1538086-.5932617-.1538086-.3339844 0-.609375.1560059-.8261719.4680176s-.3251953.7229004-.3251953 1.232666v2.4609375h-.8613281v-4.8603515h.8613281v.9887695h.0175781c.2460938-.7148438.6708985-1.0722656 1.2744141-1.0722656.1962891 0 .347168.0219726.4526367.0659179zm.0688477 1.6303711c0-.8027344.2241211-1.4362793.6723632-1.9006347.4482422-.4643555 1.0561524-.6965333 1.8237305-.6965333.7294922 0 1.3015137.2233887 1.7160645.6701661.4145507.4467773.6218261 1.0642089.6218261 1.8522949 0 .7675781-.2211914 1.387207-.6635742 1.8588867s-1.0356445.7075195-1.7797851.7075195c-.7265625 0-1.3066407-.2285156-1.7402344-.6855468-.4335938-.4570313-.6503906-1.0590821-.6503906-1.8061524zm.8789062-.0263672c0 .5595703.1413574 1.0004883.4240723 1.3227539.2827148.3222657.6628418.4833985 1.1403808.4833985.4921875 0 .8671875-.1574707 1.125-.4724121s.3867188-.7668457.3867188-1.3557129c0-.5917969-.1289063-1.0458985-.3867188-1.3623047-.2578125-.3164063-.6328125-.4746094-1.125-.4746094-.4833984 0-.8649902.1655274-1.1447754.496582-.2797851.3310547-.4196777.7851563-.4196777 1.3623047zm5.3408203-4.1704101c0-.1523438.052002-.2805176.1560059-.3845215s.2321777-.1560059.3845215-.1560059c.1552734 0 .2863769.0512696.3933105.1538086.1069336.1025391.1604004.2314453.1604004.3867188 0 .1523437-.0534668.2790527-.1604004.3801269s-.2380371.1516114-.3933105.1516114c-.1552735 0-.2841797-.0505372-.3867188-.1516114-.102539-.1010742-.1538086-.2277832-.1538086-.3801269zm.1010742 6.5742187v-4.8603515h.8613282v4.8603515zm6.2231446 0h-.8613281v-.8085937h-.0175782c-.3544922.6152343-.9052734.9228515-1.6523437.9228515-.6152344 0-1.1044922-.2189941-1.4677735-.6569824-.3632812-.4379883-.5449218-1.0290527-.5449218-1.7731933 0-.8027344.2050781-1.4465332.6152343-1.9313965.4101563-.4848633.9462891-.727295 1.6083985-.727295s1.1425781.2578125 1.4414062.7734375h.0175782v-2.9926757h.8613281zm-.8569336-2.8916015c0-.3896485-.1281738-.7155762-.3845215-.9777832-.2563477-.2622071-.5720215-.3933106-.9470215-.3933106-.4570312 0-.8173828.1706543-1.0810547.5119629-.2636718.3413086-.3955078.8063965-.3955078 1.3952637 0 .5419922.126709.970459.380127 1.2854004.2534179.3149414.5910644.4724121 1.0129394.4724121.4160156 0 .7558594-.154541 1.0195313-.4636231.2636718-.309082.3955078-.6936035.3955078-1.1535644zm1.6259765 2.8916015"/><path clip-path="url(#B)" d="m515.2434082 118.1254883c1.4707031-.225586 2.671875-.600586 3.6035156-1.125-.7646484-.3574219-1.5732422-.7265625-2.4257812-1.1074219.2783203-.4160156.5522461-.8496094.8217773-1.3007812h-2.3071289v-.6503907h2.6894531c.2958985-.5185547.5888672-1.0576172.8789063-1.6171875l.6943359.2900391c-.2578125.4541016-.5112304.8964844-.7602539 1.3271484h5.2163086v.6503907h-1.8852539c-.2929687.8876953-.7983398 1.6464843-1.5161133 2.2763671.9228516.4160157 1.8427735.8378907 2.7597657 1.265625l-.4306641.703125c-.8935547-.46875-1.8823242-.9594726-2.9663086-1.4721679-1.0195313.6855469-2.3540039 1.1791992-4.003418 1.480957-.1054687-.2226562-.2285156-.4628906-.3691406-.7207031zm.1230469-6.6357422h3.9594726c-.2226562-.3222656-.4790039-.6533203-.7690429-.9931641l.5888672-.3955078c.3574218.3867188.6591796.7587891.9052734 1.116211l-.4042969.2724609h3.5947266v1.6699219h-.7119141v-1.0195313h-6.4599609v1.0195313h-.703125zm2.0654297 4.1396484c.703125.3017578 1.4033203.6079102 2.1005859.9184571.7001953-.5332032 1.190918-1.1850586 1.472168-1.9555664h-2.9487305c-.2109375.3544921-.4189453.7001953-.6240234 1.0371093zm11.5576172 1.7050782c-.0058594.2578125-.0058594.4892578 0 .6943359-.7792969.2226562-1.4003907.4160156-1.8632813.5800781-.1757812.0644531-.3867187.1611328-.6328125.2900391l-.3867187-.5361328c.140625-.1171875.2109375-.319336.2109375-.6064453v-.6811524c-.5976563.3486328-1.2714844.6635742-2.0214844.9448242-.1113281-.2109375-.2431641-.4189453-.3955078-.6240234 1.5644531-.5039063 2.7993164-1.1777344 3.7045898-2.0214844h-3.590332v-.6152344h4.1176758c-.140625-.2255859-.2797852-.4365234-.4174805-.6328125l.5625-.3427734c.1992187.2929688.3837891.5625.5537109.8085938l-.28125.1669921h4.0605469v.6152344h-4.003418c.2431641.4775391.5639649.8891602.9624024 1.2348633.6533203-.3134766 1.2978515-.6459961 1.9335937-.9975586l.3691407.6416016c-.5830079.2314453-1.1762696.4790039-1.7797852.7426758.6826172.4335937 1.5366211.7250976 2.5620117.8745117-.1757812.234375-.336914.4541015-.4833984.6591797-1.8984375-.3720704-3.2548828-1.3051682-4.069336-2.7993164-.3339843.3310546-.711914.6430664-1.133789.9360351v1.2832031c.6972656-.1933593 1.3710937-.3984375 2.0214844-.6152343zm-1.2304688-4.2011719h1.9072266v-1.1689453h-2.2148438v-.6064453h2.2148438v-1.1865235h.6591797v1.1865235h2.2675781v.6064453h-2.2675781v1.1689453h1.96875v.6064453h-4.5351563zm-1.3535156-2.9794922h.6503906v4.0517578h-.6503906v-1.3491211c-.6328125.3632813-1.2949219.7485352-1.9863281 1.1557617-.0644532-.1347656-.1845704-.3515625-.3603516-.6503906.8349609-.4248047 1.6171875-.8452148 2.3466797-1.2612305zm-2.109375.8701172.4658203-.4570313c.5332031.4394532.9345703.7939453 1.2041016 1.0634766l-.5273438.5097656c-.421875-.4511719-.8027344-.8232422-1.1425781-1.1162109zm14.7172851 6.6489258h-.9711914l-.6943359-1.8632813h-2.8344727l-.6547851 1.8632813h-.9711914l2.5927734-6.8071289h.9404297zm-1.9379882-2.6323243-1.0283204-2.8300781c-.0322265-.0908203-.0673828-.2490234-.1054687-.4746094h-.0219727c-.0322265.2050782-.0688476.3632813-.1098632.4746094l-1.0195313 2.8300781zm6.5888671 2.6323243h-.8569336v-2.7641602c0-.9990234-.364746-1.4985351-1.0942382-1.4985351-.3779297 0-.6884766.140625-.9316407.421875-.243164.28125-.3647461.637207-.3647461 1.067871v2.7729493h-.8613281v-4.8603516h.8613281v.8041992h.0175782c.3662109-.6123047.8979492-.918457 1.5952148-.918457.5332031 0 .9389649.1706543 1.2172852.5119629s.4174804.838623.4174804 1.4919433zm6.1098633 0h-.8613281v-.8085938h-.0175781c-.3544922.6152344-.9052735.9228516-1.6523438.9228516-.6152344 0-1.1044922-.2189942-1.4677734-.6569824-.3632813-.4379883-.5449219-1.0290528-.5449219-1.7731934 0-.8027344.2050781-1.4465332.6152344-1.9313965.4101562-.4848633.946289-.7272949 1.6083984-.7272949s1.1425781.2578125 1.4414063.7734375h.0175781v-2.9926758h.8613281zm-.8569336-2.8916016c0-.3896484-.1281738-.7155762-.3845215-.9777832-.2563476-.262207-.5720214-.3933105-.9470214-.3933105-.4570313 0-.8173829.1706542-1.0810547.5119628-.2636719.3413086-.3955078.8063965-.3955078 1.3952637 0 .5419922.1267089.970459.3801269 1.2854004s.5910645.4724121 1.0129395.4724121c.4160156 0 .7558593-.154541 1.0195312-.463623.2636719-.3090821.3955078-.6936035.3955078-1.1535645zm5.2441407-1.1162109c-.1435547-.1025391-.3413086-.1538086-.5932618-.1538086-.3339843 0-.609375.1560058-.8261718.4680175-.2167969.3120118-.3251954.7229004-.3251954 1.2326661v2.4609375h-.8613281v-4.8603516h.8613281v.9887695h.0175782c.2460937-.7148437.6708984-1.0722656 1.274414-1.0722656.1962891 0 .347168.0219727.4526368.065918zm.0688476 1.6303711c0-.8027344.2241211-1.4362793.6723633-1.9006348s1.0561523-.6965332 1.8237305-.6965332c.7294921 0 1.3015136.2233887 1.7160644.670166s.6218262 1.064209.6218262 1.8522949c0 .7675782-.2211914 1.3872071-.6635742 1.8588867-.4423828.4716797-1.0356446.7075196-1.7797852.7075196-.7265625 0-1.3066406-.2285156-1.7402344-.6855469-.4335937-.4570312-.6503906-1.059082-.6503906-1.8061523zm.8789063-.0263672c0 .5595703.1413574 1.0004883.4240722 1.3227539.2827149.3222656.6628418.4833984 1.1403809.4833984.4921875 0 .8671875-.1574707 1.125-.4724121s.3867187-.7668457.3867187-1.3557129c0-.5917969-.1289062-1.0458984-.3867187-1.3623047-.2578125-.3164062-.6328125-.4746093-1.125-.4746093-.4833985 0-.8649902.1655273-1.1447754.496582s-.4196777.7851562-.4196777 1.3623047zm5.3408203-4.1704102c0-.1523437.0520019-.2805176.1560058-.3845215s.2321778-.1560058.3845215-.1560058c.1552735 0 .286377.0512695.3933106.1538086.1069336.102539.1604004.2314453.1604004.3867187 0 .1523438-.0534668.2790527-.1604004.380127-.1069336.1010742-.2380371.1516113-.3933106.1516113-.1552734 0-.2841797-.0505371-.3867187-.1516113-.1025391-.1010743-.1538086-.2277832-.1538086-.380127zm.1010742 6.5742188v-4.8603516h.8613281v4.8603516zm6.2231445 0h-.8613281v-.8085938h-.0175781c-.3544922.6152344-.9052735.9228516-1.6523438.9228516-.6152344 0-1.1044922-.2189942-1.4677734-.6569824-.3632813-.4379883-.5449219-1.0290528-.5449219-1.7731934 0-.8027344.2050781-1.4465332.6152344-1.9313965.4101562-.4848633.946289-.7272949 1.6083984-.7272949s1.1425781.2578125 1.4414063.7734375h.0175781v-2.9926758h.8613281zm-.8569336-2.8916016c0-.3896484-.1281738-.7155762-.3845215-.9777832-.2563476-.262207-.5720214-.3933105-.9470214-.3933105-.4570313 0-.8173829.1706542-1.0810547.5119628-.2636719.3413086-.3955078.8063965-.3955078 1.3952637 0 .5419922.1267089.970459.3801269 1.2854004s.5910645.4724121 1.0129395.4724121c.4160156 0 .7558593-.154541 1.0195312-.463623.2636719-.3090821.3955078-.6936035.3955078-1.1535645zm5.4316407 1.612793c.2080078.1816406.4863281.3310547.8349609.4482422s.6796875.1757812.9931641.1757812c.9550781 0 1.4326171-.3398437 1.4326171-1.0195312 0-.1904297-.0512695-.3618164-.1538086-.5141602-.102539-.1523437-.243164-.2871094-.421875-.4042969-.1787109-.1171875-.5141601-.2973633-1.0063476-.5405273-.6826172-.3398438-1.1323242-.6555176-1.3491211-.9470215s-.3251953-.6247559-.3251953-.9997559c0-.5654296.2270508-1.0136718.6811523-1.3447265.4541016-.3310547 1.0268555-.4965821 1.7182617-.4965821.6767579 0 1.1733399.0820313 1.4897461.2460938v.9580078c-.4101562-.2841797-.9287109-.4262695-1.555664-.4262695-.4160156 0-.755127.0871582-1.017334.2614746s-.3933106.416748-.3933106.7272949c0 .2753906.0908204.4995117.272461.6723633s.5756836.4086914 1.1821289.7075195c.6679687.319336 1.1352539.6386719 1.4018555.9580078.2666015.319336.3999023.6782227.3999023 1.0766602 0 .5976562-.2167969 1.0561523-.6503906 1.3754883-.4335938.3193359-1.0356446.4790039-1.8061524.4790039-.2695312 0-.5837402-.0373535-.9426269-.1120606-.3588867-.074707-.6203613-.1677246-.7844238-.2790527zm7.540039 1.2304687c-.1875.1025391-.440918.1538086-.7602539.1538086-.8701172 0-1.3051758-.4819336-1.3051758-1.4458008v-2.8081054h-.8349609v-.7119141h.8349609v-1.1689453l.8569336-.2724609v1.4414062h1.2084961v.7119141h-1.2084961v2.6542968c0 .319336.0541992.5478516.1625977.6855469.1083984.1376953.2885742.206543.5405273.206543.1933594 0 .3618164-.0541992.5053711-.1625977zm4.678711.0483399h-.8657227v-.7646485h-.0175781c-.3251953.5859375-.8247071.8789063-1.4985352.8789063-1.1513672 0-1.7270508-.688469-1.7270508-2.0654297v-2.9091797h.8525391v2.7817383c0 .9873047.3779297 1.480957 1.1337891 1.480957.375 0 .6782226-.1384277.9096679-.4152832s.347168-.6262207.347168-1.0480957v-2.7993164h.8657227zm6.2065429 0h-.8613281v-.8085938h-.0175781c-.3544922.6152344-.9052735.9228516-1.6523438.9228516-.6152344 0-1.1044922-.2189942-1.4677734-.6569824-.3632813-.4379883-.5449219-1.0290528-.5449219-1.7731934 0-.8027344.2050781-1.4465332.6152344-1.9313965.4101562-.4848633.946289-.7272949 1.6083984-.7272949s1.1425781.2578125 1.4414063.7734375h.0175781v-2.9926758h.8613281zm-.8569336-2.8916016c0-.3896484-.1281738-.7155762-.3845215-.9777832-.2563476-.262207-.5720214-.3933105-.9470214-.3933105-.4570313 0-.8173829.1706542-1.0810547.5119628-.2636719.3413086-.3955078.8063965-.3955078 1.3952637 0 .5419922.1267089.970459.3801269 1.2854004s.5910645.4724121 1.0129395.4724121c.4160156 0 .7558593-.154541 1.0195312-.463623.2636719-.3090821.3955078-.6936035.3955078-1.1535645zm2.5327149-3.6826172c0-.1523437.0520019-.2805176.1560058-.3845215s.2321778-.1560058.3845215-.1560058c.1552735 0 .286377.0512695.3933106.1538086.1069336.102539.1604004.2314453.1604004.3867187 0 .1523438-.0534668.2790527-.1604004.380127-.1069336.1010742-.2380371.1516113-.3933106.1516113-.1552734 0-.2841797-.0505371-.3867187-.1516113-.1025391-.1010743-.1538086-.2277832-.1538086-.380127zm.1010742 6.5742188v-4.8603516h.8613281v4.8603516zm1.6791992-2.3774414c0-.8027344.2241211-1.4362793.6723633-1.9006348s1.0561523-.6965332 1.8237305-.6965332c.7294921 0 1.3015136.2233887 1.7160644.670166s.6218262 1.064209.6218262 1.8522949c0 .7675782-.2211914 1.3872071-.6635742 1.8588867-.4423828.4716797-1.0356446.7075196-1.7797852.7075196-.7265625 0-1.3066406-.2285156-1.7402344-.6855469-.4335937-.4570312-.6503906-1.059082-.6503906-1.8061523zm.8789063-.0263672c0 .5595703.1413574 1.0004883.4240722 1.3227539.2827149.3222656.6628418.4833984 1.1403809.4833984.4921875 0 .8671875-.1574707 1.125-.4724121s.3867187-.7668457.3867187-1.3557129c0-.5917969-.1289062-1.0458984-.3867187-1.3623047-.2578125-.3164062-.6328125-.4746093-1.125-.4746093-.4833985 0-.8649902.1655273-1.1447754.496582s-.4196777.7851562-.4196777 1.3623047zm4.3989257 2.4038086"/><path clip-path="url(#C)" d="m517.6113281 132.6757813v-.6064454h4.7900391v.6064454c-.4628906 1.0166015-1.0341797 1.8134765-1.7138672 2.390625.7470703.4921875 1.6464844.8349609 2.6982422 1.0283203-.2050781.2636718-.3837891.5009765-.5361328.711914-1.0458985-.3017578-1.9570313-.7397461-2.7333985-1.3139648-.796875.5390625-1.8046875 1.0004883-3.0234375 1.3842773-.1523437-.2167968-.3046875-.4277343-.4570312-.6328125 1.1630859-.3134765 2.1357422-.7133789 2.9179687-1.199707-.6796875-.65625-1.1733398-1.4458008-1.480957-2.3686523zm3.6914063-3.4277344h-2.1972656v.2548828c0 1.078125-.4921875 1.8808594-1.4765625 2.4082031-.1582032-.1933594-.328125-.375-.5097657-.5449219.8671875-.4453125 1.3007813-1.0605468 1.3007813-1.8457031v-.9228515h3.5683594v1.7929687c0 .2636719.1347656.3955078.4042968.3955078h.9667969c-.0292969.2402344-.0527344.4570313-.0703125.6503906h-1.1601562c-.5507813 0-.8261719-.3046875-.8261719-.9140625zm-3.6650391 4.9570312c.0117188.2753907.0322266.5361328.0615235.7822266-.8027344.5214844-1.4003907.9404297-1.7929688 1.2568359l-.421875-.5800781c.1992188-.1933594.2988281-.4570312.2988281-.7910156v-3.1289063h-1.1162109v-.6328125h1.7841797v3.9023438c.3808594-.2519531.7763672-.5214844 1.1865234-.8085938zm-1.7753906-5.765625c.4511719.4453125.8818359.8964844 1.2919922 1.3535157l-.6152344.5097656c-.4277344-.5507813-.8291016-1.0195313-1.2041016-1.40625zm2.8740234 4.2363282c.2958985.7470703.7602539 1.4047851 1.3930664 1.9731445.6210938-.4804688 1.1176758-1.1381836 1.4897461-1.9731445zm4.8691407 3.375h1.3095703v-4.069336h2.6894531v-.571289h-3.7880859v-.4921875h3.7880859v-.4658204h.6328125v.4658204h3.8847656v.4921875h-3.8847656v.571289h2.8740234v4.069336h1.2128907v.5097656h-8.71875zm.7646484-7.4794922h7.1982422v1.9599609h-.5976563v-.2021484h-5.9941406v.2021484h-.6064453zm1.1601562 7.4794922h4.9658204v-.5625h-4.9658204zm0-1.0195313h4.9658204v-.5537109h-4.9658204zm0-1.0107422h4.9658204v-.5537109h-4.9658204zm4.9658204-1.5644531h-4.9658204v.5537109h4.9658204zm.4746093-3.4101563h-1.6171875v.8085938h1.6171875zm-3.805664.8085938h1.6083984v-.8085938h-1.6083984zm-2.1884766 0h1.6083984v-.8085938h-1.6083984zm13.7241211 5.7963867h-.9711914l-.6943359-1.8632812h-2.8344727l-.6547852 1.8632812h-.9711914l2.5927735-6.8071289h.9404297zm-1.9379883-2.6323242-1.0283203-2.8300781c-.0322266-.0908203-.0673828-.2490235-.1054687-.4746094h-.0219727c-.0322266.2050781-.0688477.3632812-.1098633.4746094l-1.0195312 2.8300781zm6.5888672 2.6323242h-.8569336v-2.7641601c0-.9990235-.3647461-1.4985352-1.0942383-1.4985352-.3779297 0-.6884765.140625-.9316406.421875s-.3647461.637207-.3647461 1.0678711v2.7729492h-.8613281v-4.8603516h.8613281v.8041993h.0175781c.366211-.6123047.8979493-.9184571 1.5952149-.9184571.5332031 0 .9389648.1706543 1.2172851.5119629s.4174805.8386231.4174805 1.4919434zm6.1098633 0h-.8613281v-.8085937h-.0175782c-.3544922.6152343-.9052734.9228515-1.6523437.9228515-.6152344 0-1.1044922-.2189941-1.4677735-.6569824-.3632812-.4379883-.5449218-1.0290527-.5449218-1.7731934 0-.8027343.2050781-1.4465332.6152343-1.9313964.4101563-.4848633.9462891-.727295 1.6083985-.727295s1.1425781.2578125 1.4414062.7734375h.0175782v-2.9926757h.8613281zm-.8569336-2.8916016c0-.3896484-.1281738-.7155761-.3845215-.9777832-.2563477-.262207-.5720215-.3933105-.9470215-.3933105-.4570312 0-.8173828.1706543-1.0810547.5119629-.2636718.3413086-.3955078.8063965-.3955078 1.3952637 0 .5419921.126709.9704589.380127 1.2854003.2534179.3149415.5910644.4724122 1.0129394.4724122.4160157 0 .7558594-.1545411 1.0195313-.4636231s.3955078-.6936035.3955078-1.1535644zm5.2441406-1.1162109c-.1435547-.1025391-.3413086-.1538086-.5932617-.1538086-.3339844 0-.609375.1560059-.8261719.4680176s-.3251953.7229004-.3251953 1.232666v2.4609375h-.8613281v-4.8603516h.8613281v.9887696h.0175781c.2460938-.7148438.6708985-1.0722656 1.2744141-1.0722656.1962891 0 .347168.0219726.4526367.0659179zm.0688477 1.6303711c0-.8027344.2241211-1.4362793.6723633-1.9006348.4482421-.4643554 1.0561523-.6965332 1.8237304-.6965332.7294922 0 1.3015137.2233887 1.7160645.670166.4145508.4467774.6218261 1.064209.6218261 1.852295 0 .7675781-.2211914 1.387207-.6635742 1.8588867s-1.0356445.7075195-1.7797851.7075195c-.7265625 0-1.3066407-.2285156-1.7402344-.6855469-.4335938-.4570312-.6503906-1.059082-.6503906-1.8061523zm.8789062-.0263672c0 .5595703.1413574 1.0004883.4240723 1.3227539.2827148.3222656.6628418.4833985 1.1403808.4833985.4921875 0 .8671875-.1574707 1.125-.4724122.2578125-.3149414.3867188-.7668457.3867188-1.3557128 0-.5917969-.1289063-1.0458985-.3867188-1.3623047-.2578125-.3164063-.6328125-.4746094-1.125-.4746094-.4833984 0-.8649902.1655273-1.1447753.496582-.2797852.3310547-.4196778.7851563-.4196778 1.3623047zm5.3408203-4.1704101c0-.1523438.052002-.2805176.1560059-.3845215s.2321777-.1560059.3845215-.1560059c.1552734 0 .2863769.0512695.3933105.1538086s.1604004.2314453.1604004.3867188c0 .1523437-.0534668.2790527-.1604004.3801269s-.2380371.1516113-.3933105.1516113c-.1552735 0-.2841797-.0505371-.3867188-.1516113-.102539-.1010742-.1538086-.2277832-.1538086-.3801269zm.1010743 6.5742187v-4.8603516h.8613281v4.8603516zm6.2231445 0h-.8613281v-.8085937h-.0175782c-.3544922.6152343-.9052734.9228515-1.6523437.9228515-.6152344 0-1.1044922-.2189941-1.4677735-.6569824-.3632812-.4379883-.5449218-1.0290527-.5449218-1.7731934 0-.8027343.2050781-1.4465332.6152343-1.9313964.4101563-.4848633.9462891-.727295 1.6083985-.727295s1.1425781.2578125 1.4414062.7734375h.0175782v-2.9926757h.8613281zm-.8569336-2.8916016c0-.3896484-.1281738-.7155761-.3845215-.9777832-.2563477-.262207-.5720215-.3933105-.9470215-.3933105-.4570312 0-.8173828.1706543-1.0810547.5119629-.2636718.3413086-.3955078.8063965-.3955078 1.3952637 0 .5419921.126709.9704589.380127 1.2854003.2534179.3149415.5910644.4724122 1.0129394.4724122.4160157 0 .7558594-.1545411 1.0195313-.4636231s.3955078-.6936035.3955078-1.1535644zm4.7519531 1.5073243h2.5444336c.0380859-.2138672.0629883-.4775391.074707-.7910157h-1.3535156v.2460938h-.6328125v-3.1816406h4.7021485v3.1816406h-.6328125v-.2460938h-1.4765625c-.0175782.3222657-.0439454.5859375-.0791016.7910157h2.7597656v.5625h-2.4257812c.6357422.711914 1.4765625 1.1455078 2.5224609 1.3007812-.1640625.2167969-.3076172.4365235-.4306641.6591797-1.133789-.3310547-2.0170898-.9287109-2.6499023-1.7929687-.4189453.8408203-1.3813477 1.4560546-2.887207 1.8457031-.0996094-.2050781-.2138672-.4072266-.3427735-.6064453 1.3798828-.2900391 2.2617188-.7587891 2.6455078-1.40625h-2.3378906zm-2.7949219-.5976563c.506836-.8496094.909668-1.8339844 1.2084961-2.953125h-1.1030273v-.5800781h1.2216797v-1.9511719h.6152344v1.9511719h1.1425781v.5800781h-1.1425781v1.1601563l.3427734-.28125c.3339844.3574218.6445312.7177734.9316406 1.0810547l-.4833984.4042968c-.2695313-.3896484-.5332031-.7338867-.7910156-1.0327148v4.7592773h-.6152344v-4.7856445c-.3134766 1.0722656-.65625 1.8793945-1.0283203 2.4213867-.0820313-.2519531-.1816407-.5097656-.2988282-.7734375zm6.5390625-5.4755859h.6152344v.84375h1.5117188v.5625h-1.5117188v.711914h-.6152344v-.711914h-1.5644531v.711914h-.6152344v-.711914h-1.3886718v-.5625h1.3886718v-.8525391h.6152344v.8525391h1.5644531zm.9580079 2.8916015h-3.4365235v.6591797h3.4365235zm-3.4365235 1.8457032h3.4365235v-.6591797h-3.4365235zm4.9658203-.0791016c.3544922-.09375.75-.2080078 1.1865235-.3427734v-1.9863282h-1.0898438v-.5888671h1.0898438v-1.6962891h.6679687v1.6962891h1.0283203v.5888671h-1.0283203v1.7753907c.3339844-.1083985.6884766-.225586 1.0634766-.3515625-.0117188.2871093-.0175781.5126953-.0175781.6767578-.3457032.1113281-.694336.2270508-1.0458985.3471679v2.8168946c0 .5859375-.2548828.890625-.7646484.9140625-.28125.0117187-.5742188.0146484-.8789063.008789-.0292968-.2167968-.0673828-.4599609-.1142578-.7294921.2871094.0351562.5244141.0527343.7119141.0527343.2519531 0 .3779297-.1318359.3779297-.3955078v-2.4389648c-.3603516.1230468-.7236328.2504883-1.0898438.3823242zm6.9169922-4.5351562h.6679688c-.0117188 1.0078125-.0263672 1.8867187-.0439453 2.6367187-.038086 1.4150391-.1904297 2.4916992-.4570313 3.2299805.6357422.7177734 1.2011719 1.3901367 1.6962891 2.0170898l-.5888672.4833985c-.4511719-.6269532-.9228516-1.2465821-1.4150391-1.8588868-.4716797.796875-1.1865234 1.4809571-2.1445312 2.0522461-.1464844-.1992187-.3076172-.383789-.4833985-.5537109 1.1015625-.6210938 1.8574219-1.4003906 2.2675782-2.3378906.2753906-.6855469.4248046-1.6992188.4482421-3.0410157.0234375-.8789062.0410157-1.7548828.0527344-2.6279296zm-1.6347656 4.6933593c.0585937.2460938.1347656.4746094.2285156.6855469-.5214844.4746094-1.0605469.9785156-1.6171875 1.5117188-.1347656.1347656-.2695312.3017578-.4042969.5009765l-.4570312-.5800781c.1816406-.2109375.2724609-.4804688.2724609-.8085938v-5.4140625h.6679688v5.3525391c.328125-.2871094.7646484-.703125 1.3095703-1.2480469zm-.8789063-4.5966797.5712891-.290039c.4394531.7851562.8173828 1.5058594 1.1337891 2.1621094l-.6152344.3427734c-.3984375-.8671875-.7617188-1.6054688-1.0898438-2.2148438zm4.9042969 3.4541016h3.5507813c.0908203-.2197266.149414-.4746094.1757812-.7646484l.6328125.0878906c-.0351562.2460937-.0864258.4716797-.1538086.6767578h1.9160156c-.234375-.1699219-.4819335-.3369141-.7426757-.5009766l.3603515-.3955078c.3867188.2285157.7353516.4570313 1.0458985.6855469l-.1977539.2109375h1.6391601v.5800781h-3.3925781c.6767578.6621094 1.8779297.975586 3.6035156.9404297-.140625.2402344-.2607422.4658203-.3603515.6767578-.1552735-.0117187-.3046875-.0249023-.4482422-.0395508v2.6850586h-.6152344v-.4833984h-1.8808594v.4746094h-.6152344v-2.7158203h2.7993164c-1.6757812-.225586-2.746582-.7382813-3.2124023-1.538086h-.1582031c-.328125.6972657-1.3916016 1.209961-3.1904297 1.538086h2.8125v2.7158203h-.6152344v-.4746094h-1.8544922v.4833984h-.6152343v-2.671875c-.1552735.0292969-.3164063.0585938-.4833985.0878907-.0878906-.1757813-.2021484-.3837891-.3427734-.6240235 1.9570312-.2519531 3.1318359-.6035156 3.524414-1.0546875h-3.1816406zm4.5087891-3.1992187h3.1113281v2.5927734h-.6152344v-.3076172h-1.8808593v.2724609h-.6152344zm-4.0341797 0h3.0849609v2.5576171h-.6152343v-.2724609h-1.8544922v.3603516h-.6152344zm6.5302734.5449218h-1.8808593v1.1953125h1.8808593zm-4.0605468 0h-1.8544922v1.1953125h1.8544922zm4.0693359 5.3173828h-1.8808594v1.1513672h1.8808594zm-4.0605469 0h-1.8544922v1.1513672h1.8544922zm5.625 1.1206055"/><path clip-path="url(#D)" d="m517.5849609 150.7109375v-.6064453h4.7900391v.6064453c-.4628906 1.0166016-1.0341797 1.8134766-1.7138672 2.390625.7470703.4921875 1.6464844.8349609 2.6982422 1.0283203-.2050781.2636719-.3837891.5009766-.5361328.7119141-1.0458984-.3017578-1.9570313-.7397461-2.7333984-1.3139649-.796875.5390625-1.8046875 1.0004883-3.0234375 1.3842774-.1523438-.2167969-.3046875-.4277344-.4570313-.6328125 1.1630859-.3134766 2.1357422-.7133789 2.9179688-1.1997071-.6796875-.65625-1.1733399-1.4458007-1.4809571-2.3686523zm3.6914063-3.4277344h-2.1972656v.2548828c0 1.078125-.4921875 1.8808594-1.4765625 2.4082032-.1582032-.1933594-.328125-.375-.5097657-.5449219.8671875-.4453125 1.3007813-1.0605469 1.3007813-1.8457031v-.9228516h3.5683594v1.7929688c0 .2636718.1347656.3955078.4042968.3955078h.9667969c-.0292969.2402343-.0527344.4570312-.0703125.6503906h-1.1601562c-.5507813 0-.8261719-.3046875-.8261719-.9140625zm-3.6650391 4.9570313c.0117188.2753906.0322266.5361328.0615235.7822265-.8027344.5214844-1.4003907.9404297-1.7929688 1.256836l-.421875-.5800781c.1992188-.1933594.2988281-.4570313.2988281-.7910157v-3.1289062h-1.1162109v-.6328125h1.7841797v3.9023437c.3808594-.2519531.7763672-.5214843 1.1865234-.8085937zm-1.7753906-5.765625c.4511719.4453125.8818359.8964844 1.2919922 1.3535156l-.6152344.5097656c-.4277344-.5507812-.8291015-1.0195312-1.2041015-1.40625zm2.8740234 4.2363281c.2958985.7470703.7602539 1.4047852 1.3930664 1.9731445.6210938-.4804687 1.1176758-1.1381836 1.4897461-1.9731445zm4.8691407 3.375h1.3095703v-4.0693359h2.6894531v-.5712891h-3.7880859v-.4921875h3.7880859v-.4658203h.6328125v.4658203h3.8847656v.4921875h-3.8847656v.5712891h2.8740234v4.0693359h1.2128907v.5097656h-8.71875zm.7646484-7.4794922h7.1982422v1.959961h-.5976563v-.2021485h-5.9941406v.2021485h-.6064453zm1.1601563 7.4794922h4.9658203v-.5625h-4.9658203zm0-1.0195312h4.9658203v-.553711h-4.9658203zm0-1.0107422h4.9658203v-.553711h-4.9658203zm4.9658203-1.5644532h-4.9658203v.553711h4.9658203zm.4746093-3.4101562h-1.6171875v.8085937h1.6171875zm-3.805664.8085937h1.6083984v-.8085937h-1.6083984zm-2.1884766 0h1.6083985v-.8085937h-1.6083985zm13.7241211 5.7963868h-.9711914l-.6943359-1.8632813h-2.8344727l-.6547851 1.8632813h-.9711915l2.5927735-6.8071289h.9404297zm-1.9379883-2.6323243-1.0283203-2.8300781c-.0322265-.0908203-.0673828-.2490234-.1054687-.4746094h-.0219727c-.0322266.2050782-.0688476.3632813-.1098633.4746094l-1.0195312 2.8300781zm6.5888672 2.6323243h-.8569336v-2.7641602c0-.9990234-.3647461-1.4985352-1.0942383-1.4985352-.3779296 0-.6884765.140625-.9316406.421875-.243164.28125-.3647461.6372071-.3647461 1.0678711v2.7729493h-.8613281v-4.8603516h.8613281v.8041992h.0175781c.366211-.6123047.8979493-.918457 1.5952149-.918457.5332031 0 .9389648.1706543 1.2172851.5119629.2783204.3413086.4174805.838623.4174805 1.4919433zm6.1098633 0h-.8613281v-.8085938h-.0175782c-.3544921.6152344-.9052734.9228516-1.6523437.9228516-.6152344 0-1.1044922-.2189942-1.4677734-.6569825-.3632813-.4379882-.5449219-1.0290527-.5449219-1.7731933 0-.8027344.2050781-1.4465332.6152344-1.9313965.4101562-.4848633.946289-.7272949 1.6083984-.7272949s1.1425781.2578125 1.4414062.7734375h.0175782v-2.9926758h.8613281zm-.8569336-2.8916016c0-.3896484-.1281738-.7155762-.3845215-.9777832-.2563476-.262207-.5720215-.3933106-.9470215-.3933106-.4570312 0-.8173828.1706543-1.0810547.5119629-.2636718.3413086-.3955078.8063965-.3955078 1.3952637 0 .5419922.126709.970459.380127 1.2854004s.5910644.4724121 1.0129394.4724121c.4160157 0 .7558594-.154541 1.0195313-.463623.2636719-.3090821.3955078-.6936036.3955078-1.1535645zm5.2441406-1.1162109c-.1435547-.1025391-.3413086-.1538086-.5932617-.1538086-.3339844 0-.609375.1560058-.8261719.4680175-.2167968.3120118-.3251953.7229004-.3251953 1.2326661v2.4609375h-.8613281v-4.8603516h.8613281v.9887695h.0175781c.2460938-.7148437.6708985-1.0722656 1.2744141-1.0722656.1962891 0 .347168.0219727.4526367.065918zm.0688477 1.6303711c0-.8027344.2241211-1.4362793.6723633-1.9006348s1.0561523-.6965332 1.8237304-.6965332c.7294922 0 1.3015137.2233887 1.7160645.670166s.6218262 1.064209.6218262 1.8522949c0 .7675781-.2211914 1.3872071-.6635743 1.8588867-.4423828.4716797-1.0356445.7075196-1.7797851.7075196-.7265625 0-1.3066406-.2285157-1.7402344-.6855469-.4335937-.4570313-.6503906-1.059082-.6503906-1.8061523zm.8789062-.0263672c0 .5595703.1413575 1.0004882.4240723 1.3227539.2827148.3222656.6628418.4833984 1.1403809.4833984.4921875 0 .8671875-.1574707 1.125-.4724121s.3867187-.7668457.3867187-1.3557129c0-.5917969-.1289062-1.0458984-.3867187-1.3623047-.2578125-.3164062-.6328125-.4746094-1.125-.4746094-.4833985 0-.8649903.1655274-1.1447754.4965821-.2797852.3310547-.4196778.7851562-.4196778 1.3623047zm5.3408203-4.1704102c0-.1523437.052002-.2805176.1560059-.3845215s.2321777-.1560058.3845215-.1560058c.1552734 0 .2863769.0512695.3933105.1538086.1069336.102539.1604004.2314453.1604004.3867187 0 .1523438-.0534668.2790527-.1604004.380127-.1069336.1010742-.2380371.1516113-.3933105.1516113s-.2841797-.0505371-.3867188-.1516113c-.102539-.1010743-.1538086-.2277832-.1538086-.380127zm.1010743 6.5742188v-4.8603516h.8613281v4.8603516zm6.2231445 0h-.8613281v-.8085938h-.0175782c-.3544921.6152344-.9052734.9228516-1.6523437.9228516-.6152344 0-1.1044922-.2189942-1.4677734-.6569825-.3632813-.4379882-.5449219-1.0290527-.5449219-1.7731933 0-.8027344.2050781-1.4465332.6152344-1.9313965.4101562-.4848633.946289-.7272949 1.6083984-.7272949s1.1425781.2578125 1.4414062.7734375h.0175782v-2.9926758h.8613281zm-.8569336-2.8916016c0-.3896484-.1281738-.7155762-.3845215-.9777832-.2563476-.262207-.5720215-.3933106-.9470215-.3933106-.4570312 0-.8173828.1706543-1.0810547.5119629-.2636718.3413086-.3955078.8063965-.3955078 1.3952637 0 .5419922.126709.970459.380127 1.2854004s.5910644.4724121 1.0129394.4724121c.4160157 0 .7558594-.154541 1.0195313-.463623.2636719-.3090821.3955078-.6936036.3955078-1.1535645zm5.0068359-.0834961v-.6064453h4.7900391v.6064453c-.4628906 1.0166016-1.0341797 1.8134766-1.7138672 2.390625.7470703.4921875 1.6464844.8349609 2.6982422 1.0283203-.2050781.2636719-.3837891.5009766-.5361328.7119141-1.0458984-.3017578-1.9570313-.7397461-2.7333984-1.3139649-.796875.5390625-1.8046875 1.0004883-3.0234375 1.3842774-.1523438-.2167969-.3046875-.4277344-.4570313-.6328125 1.1630859-.3134766 2.1357422-.7133789 2.9179688-1.1997071-.6796875-.65625-1.1733399-1.4458007-1.4809571-2.3686523zm3.6914063-3.4277344h-2.1972656v.2548828c0 1.078125-.4921875 1.8808594-1.4765625 2.4082032-.1582032-.1933594-.328125-.375-.5097657-.5449219.8671875-.4453125 1.3007813-1.0605469 1.3007813-1.8457031v-.9228516h3.5683594v1.7929688c0 .2636718.1347656.3955078.4042968.3955078h.9667969c-.0292969.2402343-.0527344.4570312-.0703125.6503906h-1.1601562c-.5507813 0-.8261719-.3046875-.8261719-.9140625zm-3.6650391 4.9570313c.0117188.2753906.0322266.5361328.0615235.7822265-.8027344.5214844-1.4003907.9404297-1.7929688 1.256836l-.421875-.5800781c.1992188-.1933594.2988281-.4570313.2988281-.7910157v-3.1289062h-1.1162109v-.6328125h1.7841797v3.9023437c.3808594-.2519531.7763672-.5214843 1.1865234-.8085937zm-1.7753906-5.765625c.4511719.4453125.8818359.8964844 1.2919922 1.3535156l-.6152344.5097656c-.4277344-.5507812-.8291015-1.0195312-1.2041015-1.40625zm2.8740234 4.2363281c.2958985.7470703.7602539 1.4047852 1.3930664 1.9731445.6210938-.4804687 1.1176758-1.1381836 1.4897461-1.9731445zm6.1083985.0263672h6.2578125v4.0957031h-.6328125v-.3867187h-4.9921875v.3867187h-.6328125zm1.2568359-4.6494141.6591797.28125c-.1289062.2138672-.2680664.4248047-.4174805.6328125h4.7592774v.5888672c-.5419922.6533203-1.2714844 1.2231445-2.1884766 1.7094727.9697266.3251953 2.1269531.5229492 3.4716797.5932617-.1933594.2753906-.3574219.5214844-.4921875.7382812-1.5146484-.1816406-2.784668-.4936523-3.8100586-.9360351-1.1630859.4980469-2.5678711.8891601-4.2143555 1.1733398-.1054687-.2050781-.2285156-.4160156-.3691406-.6328125 1.453125-.2109375 2.71875-.5229492 3.796875-.9360351-.6914062-.4013672-1.2348633-.8789063-1.6303711-1.4326172-.4365234.5009765-.9301758.9829101-1.480957 1.4458008-.1582031-.1757813-.3193359-.3369141-.4833984-.4833985 1.0488281-.84375 1.8486328-1.7578125 2.399414-2.7421875zm4.0605469 1.4941407h-3.9418945c.4716796.5625 1.0913086 1.0253906 1.8588867 1.3886718.8261719-.3925781 1.5205078-.8554687 2.0830078-1.3886718zm-4.6845703 4.7636718h2.1796875v-1.0810547h-2.1796875zm4.9921875-1.0810547h-2.1796875v1.0810547h2.1796875zm-2.1796875 2.6542969h2.1796875v-1.0722656h-2.1796875zm-2.8125 0h2.1796875v-1.0722656h-2.1796875zm6.9960937-.2329101"/></svg>