<svg height="369" viewBox="0 0 529 369" width="529" xmlns="http://www.w3.org/2000/svg" xmlns:xlink="http://www.w3.org/1999/xlink"><clipPath id="a"><path d="m14 14h501v341h-501z"/></clipPath><clipPath id="b"><path d="m14 14h501v341h-501z"/></clipPath><clipPath id="c"><path d="m14 14h501v341h-501z"/></clipPath><clipPath id="d"><path d="m14 14h501v341h-501z"/></clipPath><clipPath id="e"><path d="m45 170h114v29h-114z"/></clipPath><clipPath id="f"><path d="m231 21h136v22h-136z"/></clipPath><clipPath id="g"><path d="m219 58h296v253h-296z"/></clipPath><clipPath id="h"><path d="m219 58h296v253h-296z"/></clipPath><clipPath id="i"><path d="m219 58h296v253h-296z"/></clipPath><clipPath id="j"><path d="m219 58h296v253h-296z"/></clipPath><clipPath id="k"><path d="m219 58h296v253h-296z"/></clipPath><clipPath id="l"><path d="m231 168h110v22h-110z"/></clipPath><clipPath id="m"><path d="m370 58h106v55h-106z"/></clipPath><clipPath id="n"><path d="m370 58h106v55h-106z"/></clipPath><clipPath id="o"><path d="m370 58h106v55h-106z"/></clipPath><clipPath id="p"><path d="m370 58h106v55h-106z"/></clipPath><clipPath id="q"><path d="m378 77h24v17h-24z"/></clipPath><clipPath id="r"><path d="m435 59h28v17h-28z"/></clipPath><clipPath id="s"><path d="m435 77h25v17h-25z"/></clipPath><clipPath id="t"><path d="m435 95h33v17h-33z"/></clipPath><clipPath id="u"><path d="m370 112h145v55h-145z"/></clipPath><clipPath id="v"><path d="m370 112h145v55h-145z"/></clipPath><clipPath id="w"><path d="m370 112h145v55h-145z"/></clipPath><clipPath id="x"><path d="m370 112h145v55h-145z"/></clipPath><clipPath id="y"><path d="m378 131h42v17h-42z"/></clipPath><clipPath id="z"><path d="m453 113h54v17h-54z"/></clipPath><clipPath id="A"><path d="m453 131h27v17h-27z"/></clipPath><clipPath id="B"><path d="m453 149h31v17h-31z"/></clipPath><clipPath id="C"><path d="m370 166h132v73h-132z"/></clipPath><clipPath id="D"><path d="m370 166h132v73h-132z"/></clipPath><clipPath id="E"><path d="m370 166h132v73h-132z"/></clipPath><clipPath id="F"><path d="m370 166h132v73h-132z"/></clipPath><clipPath id="G"><path d="m370 166h132v73h-132z"/></clipPath><clipPath id="H"><path d="m378 194h33v17h-33z"/></clipPath><clipPath id="I"><path d="m444 167h47v17h-47z"/></clipPath><clipPath id="J"><path d="m444 185h50v17h-50z"/></clipPath><clipPath id="K"><path d="m444 203h34v17h-34z"/></clipPath><clipPath id="L"><path d="m444 221h43v17h-43z"/></clipPath><clipPath id="M"><path d="m370 238h132v73h-132z"/></clipPath><clipPath id="N"><path d="m370 238h132v73h-132z"/></clipPath><clipPath id="O"><path d="m370 238h132v73h-132z"/></clipPath><clipPath id="P"><path d="m370 238h132v73h-132z"/></clipPath><clipPath id="Q"><path d="m370 238h132v73h-132z"/></clipPath><clipPath id="R"><path d="m378 266h42v17h-42z"/></clipPath><clipPath id="S"><path d="m453 239h41v17h-41z"/></clipPath><clipPath id="T"><path d="m453 257h24v17h-24z"/></clipPath><clipPath id="U"><path d="m453 275h38v17h-38z"/></clipPath><clipPath id="V"><path d="m453 293h22v17h-22z"/></clipPath><clipPath id="W"><path d="m231 326h84v22h-84z"/></clipPath><path d="m-485-485h1499v1339h-1499z" fill="#fff"/><path clip-path="url(#a)" d="m198 184v-144.1055298c0-4.4160004 3.5839996-8 8-8h14" fill="none" stroke="#017c98"/><path clip-path="url(#b)" d="m198 184c0-2.8543091 3.5839996-5.1708527 8-5.1708527h14" fill="none" stroke="#00b2a1"/><path clip-path="url(#c)" d="m198 184v144.7638245c0 4.4159851 3.5839996 8 8 8h14" fill="none" stroke="#fd0"/><path clip-path="url(#d)" d="m188 184h10" fill="none" stroke="#808080"/><path clip-path="url(#e)" d="m50.8652344 193.1748047h-1.3359375v-11.7070313h7.6992187v9.8261719c0 1.1484375-.5917892 1.7109375-1.7753906 1.6875-.4921913 0-1.1660118-.0117187-2.0214844-.0351562-.0703125-.4570313-.1582031-.890625-.2636718-1.3007813.7148475.0585938 1.3769493.0878906 1.9863281.0878906.4921913.0117188.7382812-.2285156.7382812-.7207031v-2.2324219h-5.0273437zm-2.4960938-14.6601563h5.6777344c-.3867226-.609375-.8789024-1.2714843-1.4765625-1.9863281l1.1074219-.7558594c.7265663.8085938 1.3124962 1.5292969 1.7578125 2.1621094l-.8701172.5800781h4.8076172l-.703125-.3867187c.6210975-.7617188 1.1601524-1.5585938 1.6171875-2.390625l1.3359375.7734375c-.5390663.7382812-1.0810509 1.40625-1.6259766 2.0039062h5.5634766v1.2304688h-17.1914063zm14.5722657 2.390625h1.3710937v9.8261719c0 1.4414063-.6796799 2.1679688-2.0390625 2.1796875-.6210976.0117188-1.3945274.0058594-2.3203125-.0175781-.0585937-.4804688-.140625-.9726563-.2460937-1.4765625.8671913.09375 1.5703086.140625 2.109375.140625.7500038 0 1.125-.3808594 1.125-1.1425781zm-3.6210938.84375h1.3359375v7.9101563h-1.3359375zm-3.4277344.9140625h-5.0273437v1.8808594h5.0273437zm-5.0273437 4.9394532h5.0273437v-1.8808594h-5.0273437zm21.4453125-5.0976563h11.3730469v1.1425781h-5.2734375l-.4833985 1.9160157h4.9306641v5.8359375c0 1.0078125-.4453125 1.5117187-1.3359375 1.5117187-.3046875 0-.7324219-.0058594-1.2832031-.0175781-.0820313-.4804688-.1992188-.9140625-.3515625-1.3007813.3984375.0351563.8027343.0527344 1.2128906.0527344.3515625 0 .5273437-.1816406.5273437-.5449219v-4.4472656h-1.8105468v5.5195313h-1.1777344v-5.5195313h-1.7402344v5.4140625h-1.1777344v-5.4140625h-1.7578125v6.4160156h-1.2304687v-7.5058593h3.9199219l.4042968-1.9160157h-4.7460937zm8.8417969-1.1425781v-.5449219h-7.9453125v-3.9550781h1.2304687v2.8652344h2.7246094v-3.9726563h1.265625v3.9726563h2.7246094v-2.8652344h1.2304687v4.5zm-9.3339844.5097656c-.2226563 1.7285309-.6386719 4.160141-1.2480469 7.2949219.6035156-.1289063 1.1601563-.2578125 1.6699219-.3867188-.0117188.4570313-.0058594.8730469.0175781 1.2480469-1.3242264.328125-3.2577972.75-5.8007812 1.265625l-.2636719-1.3183594c1.177742-.1933593 2.25-.383789 3.2167969-.571289.5742187-3.5214997.9609375-6.1083832 1.1601562-7.7607422zm-5.203125.2460938 1.1953125-.2636719c.3867187 1.6757965.7734375 3.7324066 1.1601562 6.1699219l-1.2128906.3164062c-.3164062-2.3437652-.6972656-4.4179535-1.1425781-6.2226562zm-.2285156-2.7597657h6.0292968v1.1425782h-6.0292968zm1.4414062-2.8652343 1.0722656-.6328125c.6914063.8554687 1.2832032 1.734375 1.7753907 2.6367187l-1.1601563.703125c-.421875-.8203125-.984375-1.7226562-1.6875-2.7070312zm22.1308594 5.7128906c1.3125076-1.8515778 2.3613281-3.9609223 3.1464844-6.328125l1.3535156.4394531c-.3398438.8085938-.6679688 1.5644531-.984375 2.2675781h7.5761719c-.1640625 5.9883118-.28125 9.6914063-.3515625 11.109375-.0585938 1.2304688-.3398438 2.0742188-.84375 2.53125-.4804688.4570313-1.3476487.6855469-2.6015625.6855469-.9257889 0-1.8925705-.0292969-2.9003907-.0878906-.0703125-.46875-.1699218-.984375-.2988281-1.546875 1.1601639.1289062 2.2089767.2050781 3.1464844.2285156.8086014.0117188 1.3535156-.1289062 1.6347656-.421875.2929688-.2460937.4570313-.7792969.4921875-1.5996094.0820313-1.5820465.1816406-4.7870788.2988281-9.6152343h-6.7675781c-.6210937 1.21875-1.2246094 2.2441406-1.8105469 3.0761718-.2929687-.2226562-.65625-.46875-1.0898437-.7382812zm-5.7832031 4.78125c1.2187576-1.8984528 2.0800781-3.9785004 2.5839843-6.2402344h-2.4609375v-1.1777344h2.4785157v-3.4804687h1.2128906v3.4804687h2.2851562v1.1777344h-2.2851562v2.3730469l.4921875-.5097656c.796875.7265625 1.6230469 1.5 2.4785156 2.3203125l-.9316406.9667968c-.7265625-.8320312-1.40625-1.5527343-2.0390625-2.1621093v9.421875h-1.2128906v-9.0527344c-.5742188 1.8281402-1.2539063 3.3046875-2.0390625 4.4296875-.1523438-.5039063-.3398438-1.0195313-.5625-1.546875zm10.8105468-2.5136719 1.0722657-.5625c.8554763 1.4765625 1.7402267 3.0878754 2.6542968 4.8339844l-1.2480468.6679687c-.140625-.3164062-.2871094-.6328125-.4394532-.9492187-1.5234451.09375-3.0234298.1992187-4.5.3164062-.3632812.0351563-.8789062.1230469-1.546875.2636719l-.5976562-1.265625c.375-.2578125.6914062-.5742187.9492187-.9492187.9609452-1.5117188 1.9101486-3.3691254 2.8476563-5.5722657l1.3183594.5449219c-.6914063 1.5234375-1.7460862 3.4277191-3.1640625 5.7128906 1.6875076-.046875 3.0761642-.09375 4.1660156-.140625-.46875-.9726562-.9726563-1.9394531-1.5117188-2.9003906zm12.796875 3.4980469h4.5v-1.5292969h-3.9023437v-1.0546875h3.9023437v-1.5292969h-3.65625v-1.0546875h3.65625v-1.5292968h-4.5703125v-1.0898438h4.5703125v-1.5292969h-3.65625v-1.0546875h3.65625v-1.7226562h1.3007813v1.7226562h4.078125v2.5839844h1.8457031v1.0898438h-1.8457031v3.0585937h-1.265625v-.4746094h-2.8125v1.5292969h4.4296875v1.0546875h-4.4296875v1.5292969h5.2382812v1.0546875h-5.2382812v1.8105469h-1.3007813v-1.8105469h-4.5zm-4.1484375-2.9707031c.3515625 1.4296875.84375 2.6044922 1.4765625 3.524414.6269532-1.2890625 1.0195313-2.7743988 1.1777344-4.4560547h-3.515625v-1.2832031l3.234375-3.9902344h-3.5859375v-1.1953125h5.203125v1.1953125l-3.3046875 4.078125h3.2871094v1.0371094c-.2167969 2.1738434-.7470627 4.0576019-1.5908203 5.6513672 1.2773513 1.1074219 3.2607269 1.6669922 5.9501953 1.6787109 2.2265777.046875 4.8105316.0175782 7.7519531-.0878906-.1992187.4804688-.3925781.9433594-.5800781 1.3886719-2.683609-.0117188-5.2792816-.0234375-7.7871094-.0351563-2.6132965 0-4.6171799-.609375-6.0117187-1.828125-.6621094.9609375-1.4648362 1.7988282-2.4082032 2.5136719-.1875-.3398437-.4277343-.7207031-.7207031-1.1425781.8789139-.6679688 1.6171875-1.4472656 2.2148438-2.3378906-.7851639-.9960938-1.4355469-2.4199067-1.9511719-4.2714844zm9.9492188-2.1972657h2.8125v-1.5292968h-2.8125zm2.8125-4.1484375h-2.8125v1.5292969h2.8125zm4.0605469 11.8828125h7.6992187v-11.7246093h-6.6972656v-1.40625h14.9765625v1.40625h-6.7324219v11.7246093h7.7167969v1.3710938h-16.9628906zm17.7539062-2.6015625h2.4257813v-11.3027343h12.6035156v11.3027343h2.390625v1.265625h-17.4199219zm3.7792969 0h9.8964844v-1.6523437h-9.8964844zm9.8964844-10.0371093h-9.8964844v1.6171875h9.8964844zm-9.8964844 4.4121093h9.8964844v-1.6171875h-9.8964844zm0 2.7949219h9.8964844v-1.6171875h-9.8964844zm6.4160156 5.7304688.7382813-1.1601563c2.0507965.6210938 4.1308441 1.3242188 6.2402343 2.109375l-.6855468 1.3886719c-1.59375-.703125-3.691391-1.4824219-6.2929688-2.3378906zm-3.9375-1.265625.84375 1.1601562c-2.0625153.9492188-4.1425629 1.7929688-6.2402344 2.53125-.1757812-.3867187-.3925781-.8261719-.6503906-1.3183594 1.8046875-.5390625 3.8202972-1.3300781 6.046875-2.3730468zm11.4785156 1.2392578" fill="#4c4c4c"/><path clip-path="url(#f)" d="m234.109375 29.0229492h4.7670898c.1227265-1.0367889.1840821-2.1582031.1840821-3.3642578h1.0917969c0 1.2568359-.0592499 2.3782501-.1777344 3.3642578h5.3955078c-.0507813 2.6152497-.1269531 4.7734223-.2285156 6.4746094-.0846405 1.5826874-.9225159 2.3740234-2.5136719 2.3740234-.6601563 0-1.4430237-.0211639-2.3486328-.0634765-.0338593-.3300782-.0973358-.7236328-.1904297-1.1806641.795578.1100311 1.5784454.1650391 2.3486328.1650391 1.015625 0 1.5488281-.4993439 1.5996094-1.4980469.1184845-1.6588593.1946563-3.4192658.2285156-5.28125h-4.4306641c-.6220703 3.7324371-2.3613128 6.5084534-5.2177734 8.328125-.2369843-.2962189-.4951172-.609375-.7744141-.9394531 2.6321717-1.5530701 4.2592774-4.0159302 4.8813477-7.3886719h-4.6147461zm6.0302734 3.2753906.6982422-.6220703c.8125.7532654 1.5488282 1.493805 2.2089844 2.2216797l-.7871094.7109375c-.6517029-.7701874-1.3583984-1.5403595-2.1201172-2.3105469zm-5.1289062-5.7890625.6855469-.6347656c.7024841.609375 1.3795471 1.235672 2.03125 1.8789063l-.7744141.7236328c-.6263123-.6855469-1.2737579-1.3414612-1.9423828-1.9677735zm15.4755859 3.8720704h3.8339844v-4.5449219h1.0791016v4.5449219h3.7958984v1.015625h-3.7958984v6.7285156h-1.0791016v-6.7285156h-3.8339844zm-3.9228515 1.6757812c1.2610778-1.7434997 2.251297-3.8255157 2.9707031-6.2460937l1.0791016.3046875c-.3385468.981781-.6982422 1.8979492-1.0791016 2.7485351v9.2739258h-1.0410156v-7.1982422c-.4654999.8209686-.9563752 1.5615234-1.4726563 2.2216797-.1354217-.3639374-.2877655-.7321014-.4570312-1.1044922zm22.2929687.4443359c1.1425781 1.6165467 2.2258911 3.2499848 3.25 4.9003907l-1.015625.6347656c-.2285156-.3850861-.454895-.7617188-.6791992-1.1298828-4.0202026.2327423-6.5401917.3935547-7.5600586.4824219-.6686401.0592498-1.2018433.1354217-1.5996094.2285156l-.5205078-1.1171875c.5162964-.2115936 1.015625-.5458985 1.4980469-1.0029297 2.2089844-2.2343903 4.1471252-4.7014771 5.8144531-7.4013672l1.1044922.5585938c-1.9381714 2.8945465-4.0159302 5.4462738-6.2333984 7.6552734 1.5784607-.0634766 3.8826294-.1756134 6.9125976-.3364258-.6474609-1.0452576-1.2716369-2.0164337-1.8725586-2.9135742zm-9.3310547-.1015625c2.3528748-1.8196716 4.3079224-4.0540161 5.8652344-6.703125l1.0410156.5205079c-1.7011718 2.8776245-3.7408752 5.2177581-6.1191406 7.0205078-.2116089-.2623749-.473938-.5416718-.7871094-.8378907zm14.1044922-3.9736328h3.1865235v-1.383789h-3.7958985v-.8632813h11.7304688v.8632813h-3.8085938v1.383789h3.1865235v3.7832032h-.9394532v-.4824219h-8.6201172v.4824219h-.9394531zm-1.0537109 4.5449219h3.7895508c.2581176-.4020233.5014648-.8082733.7299804-1.21875l.9775391.3935547c-.1862183.2792969-.3703003.5543671-.5522461.8251953h7.6616211v.8632813h-2.9326172c-.4866333.8590545-1.1171875 1.5826721-1.8916016 2.1708984 1.256836.3766327 2.5771485.7786407 3.9609375 1.2060547l-.5585937.9902344c-1.421875-.4951172-2.9156799-1.0050354-4.4814453-1.5297852-1.4811402.7701874-3.4192505 1.3054962-5.8144531 1.605957-.1523438-.3131561-.3173829-.6389923-.4951172-.977539 2.0608825-.186203 3.7281799-.5416565 5.0019531-1.0664063-1.0283203-.3427734-2.0862427-.6940155-3.1738281-1.0537109.3512573-.444336.6813354-.8928986.9902343-1.3457031h-3.211914zm3.6689453 1.8027344c.9267578.2750702 1.8937073.5628204 2.9008789.8632812.8251953-.4993438 1.4620972-1.1002502 1.9106445-1.8027343h-4.1386718c-.2243042.3216095-.4485474.6347656-.6728516.9394531zm1.5107422-3.859375h2.2470703v-1.6757813h-2.2470703zm5.4335937-1.6757813h-2.2470703v1.6757813h2.2470703zm-8.6201172 1.6757813h2.2470704v-1.6757813h-2.2470704zm3.1865235-2.4882813h2.2470703v-1.383789h-2.2470703zm12.2382812 5.5478516.850586-.4697266c.3850708.6517029.8738403 1.2166291 1.4663086 1.6948243.3046875-.4401093.5141601-1.1446839.6284179-2.1137696h-3.3134765v-3.4912109h3.4277343v-1.256836h-4.0625v-.8632812h4.0625v-1.7138672h.9775391v1.7138672h4.1005859v.8632812h-4.1005859v1.256836h3.4150391v4.0371094h-.9648438v-.5458985h-2.5581055c-.1311645 1.1806641-.387207 2.069336-.7680664 2.6660156-.0042114.0084687-.0084838.0148163-.0126953.019043 1.3118592.7659607 3.0087891 1.2124024 5.0908203 1.3393555-.2539062.3639374-.4866333.7151642-.6982421 1.0537109-2.0439454-.2496795-3.7324219-.7998047-5.0654297-1.6503906-.7405701.6559296-1.828125 1.2398987-3.2626953 1.7519531-.1946412-.2708282-.4147339-.554367-.6601563-.8505859 1.3753357-.4316406 2.4078674-.9309845 3.0976563-1.4980469-.6601563-.5543671-1.2102662-1.2018127-1.6503907-1.9423828zm-4.4179687-2.1074219c1.1341247-1.7181091 2.0143127-3.7704925 2.640625-6.1572265l.9394531.2792968c-.3469849 1.1383515-.7278442 2.1941681-1.1425781 3.1674805v9.0708008h-.9013672v-7.1982422c-.3639526.6686249-.7490234 1.2864532-1.1552734 1.8535156-.1269532-.3554687-.2539063-.6940155-.3808594-1.015625zm8.4169922.3681641h2.4882812v-1.7900391h-2.4501953c0 .3300781-.0126953.9267578-.0380859 1.7900391zm-.9775391 0c.0253906-.4020233.0380859-.9986878.0380859-1.7900391h-2.4628906v1.7900391zm11.6416016 5.7636719v-4.0371094h-3.694336c-.1438598 1.7604217-.6559143 3.2203674-1.5361328 4.3798828-.2200317-.2792969-.4697265-.5712891-.7490234-.8759766.5501404-.778656.9225464-1.641922 1.1171875-2.5898437.1862182-.9140625.2792969-2.2089691.2792969-3.8847656v-4.5322266h10.3466796v10.0927734c0 1.0071717-.4781799 1.5107422-1.4345703 1.5107422-.5839843 0-1.2398987-.0126953-1.9677734-.0380859-.0422974-.2792969-.1057739-.630539-.1904297-1.053711.7363281.0507813 1.3330078.0761719 1.7900391.0761719.5247497 0 .7871093-.2496795.7871093-.7490234v-2.3359375h-3.7324218v4.0371094zm1.015625-4.9511719h3.7324218v-2.3740235h-3.7324218zm3.7324218-5.6494141h-3.7324218v2.3613281h3.7324218zm-8.3725586 5.6494141h3.6245118v-2.3740235h-3.5673828c.0253906.8209687.0063476 1.6123047-.057129 2.3740235zm.057129-5.6494141v2.3613281h3.5673828v-2.3613281zm14.6376953 2.8945313c.947937-1.3372498 1.7053833-2.860672 2.2724609-4.5703125l.9775391.3173828c-.2454224.5839844-.4824219 1.1298828-.7109375 1.6376953h5.4716797c-.1184693 4.3248901-.203125 6.9993439-.2539063 8.0234375-.0422974.8886719-.2454224 1.4980469-.609375 1.828125-.3469849.3300781-.9732971.4951172-1.8789062.4951172-.6686402 0-1.3668519-.021164-2.0947266-.0634766-.0507813-.3385467-.1227417-.7109375-.2158203-1.1171875.8378906.0930939 1.5953674.1481171 2.2724609.1650391.5839844.0084686.9775391-.0930939 1.1806641-.3046875.2116089-.1777344.3300781-.5628205.3554687-1.1552735.0592652-1.1425781.1311646-3.4573364.2158203-6.9443359h-4.8876953c-.4485473.8802185-.8844604 1.6207581-1.3076172 2.2216797-.2116088-.1608124-.473938-.3385468-.7871093-.5332031zm-4.1767578 3.453125c.8802185-1.3710938 1.5022583-2.8733673 1.8662109-4.506836h-1.7773438v-.8505859h1.7900391v-2.5136719h.8759766v2.5136719h1.6503906v.8505859h-1.6503906v1.7138672l.3554687-.368164c.575531.5247497 1.1721802 1.0833282 1.7900391 1.6757812l-.6728516.6982422c-.5247497-.6009216-1.015625-1.1214142-1.4726562-1.5615234v6.8046875h-.8759766v-6.538086c-.4147339 1.3203125-.9055786 2.3867188-1.4726562 3.1992188-.1100464-.3639374-.2454224-.7363282-.40625-1.1171875zm7.8076171-1.8154297.7744141-.40625c.6178589 1.0664062 1.2568359 2.230133 1.9169922 3.4912109l-.9013672.4824219c-.1015625-.2285156-.2073364-.4570313-.3173828-.6855469-1.1002808.0677033-2.1835938.1438751-3.25.2285156-.2623901.0253907-.6347656.0888672-1.1171875.1904297l-.4316406-.9140625c.270813-.186203.4993286-.4147186.6855468-.6855468.6940308-1.0917969 1.3795472-2.4332581 2.0566407-4.0244141l.9521484.3935547c-.4993286 1.1002655-1.2610474 2.4755707-2.2851562 4.1259765 1.21875-.0338592 2.2216796-.0677032 3.008789-.1015625-.338562-.7024841-.7024536-1.400711-1.0917969-2.0947265zm9.2421875 2.5263672h3.25v-1.1044922h-2.8183593v-.7617188h2.8183593v-1.1044922h-2.640625v-.7617187h2.640625v-1.1044922h-3.3007812v-.7871094h3.3007812v-1.1044922h-2.640625v-.7617187h2.640625v-1.2441406h.9394532v1.2441406h2.9453125v1.8662109h1.3330078v.7871094h-1.3330078v2.2089844h-.9140625v-.3427735h-2.03125v1.1044922h3.1992187v.7617188h-3.1992187v1.1044922h3.7832031v.7617187h-3.7832031v1.3076172h-.9394532v-1.3076172h-3.25zm-2.9960937-2.1455078c.2539062 1.0325622.609375 1.8810119 1.0664062 2.5454101.4528199-.9309997.7363282-2.0037384.850586-3.2182617h-2.5390625v-.9267578l2.3359375-2.881836h-2.5898438v-.8632812h3.7578125v.8632812l-2.3867187 2.9453125h2.3740234v.7490235c-.1565552 1.569992-.5395508 2.9304962-1.1489258 4.081543.9225464.7998046 2.3549805 1.2039337 4.2973633 1.2124023 1.6080933.0338592 3.4742737.0126953 5.5986328-.0634766-.1438598.3470002-.2835083.6813202-.4189453 1.0029297-1.9381714-.0084686-3.8128052-.016922-5.6240234-.0253906-1.8873902 0-3.3346253-.440094-4.3417969-1.3203125-.4782104.6940155-1.0579224 1.2991486-1.7392578 1.8154297-.135437-.2454376-.3088989-.5205078-.5205078-.8251953.6347656-.4824219 1.1679687-1.0452423 1.5996094-1.6884766-.5670777-.7194061-1.0368042-1.7477112-1.4091797-3.0849609zm7.1855469-1.5869141h2.03125v-1.1044922h-2.03125zm2.03125-2.9960938h-2.03125v1.1044922h2.03125zm2.9326172 8.5820313h5.5605468v-8.4677734h-4.836914v-1.015625h10.8164062v1.015625h-4.8623047v8.4677734h5.5732422v.9902344h-12.2509765zm12.8222656-1.8789063h1.7519531v-8.1630859h9.1025391v8.1630859h1.7265625v.9140625h-12.5810547zm2.7294922 0h7.1474609v-1.1933593h-7.1474609zm7.1474609-7.2490234h-7.1474609v1.1679688h7.1474609zm-7.1474609 3.1865234h7.1474609v-1.1679687h-7.1474609zm0 2.0185547h7.1474609v-1.1679687h-7.1474609zm4.633789 4.1386719.5332032-.8378906c1.4811401.4485626 2.9833984.9563751 4.5068359 1.5234375l-.4951172 1.0029297c-1.151062-.5078125-2.6660156-1.070633-4.5449219-1.6884766zm-2.84375-.9140625.609375.8378906c-1.4895935.6855469-2.9918518 1.2949219-4.5068359 1.828125-.1269531-.2792968-.2835083-.5966797-.4697266-.9521484 1.3034058-.389328 2.7590943-.9606018 4.3671875-1.7138672zm8.2900391.8950195" fill="#303030"/><g fill="none" stroke="#00b2a1"><path clip-path="url(#g)" d="m363.9998474 178.8905487v-93.8905487h7.0001526"/><path clip-path="url(#h)" d="m363.9998474 178.8905487v-39.8905487h7.0001526"/><path clip-path="url(#i)" d="m363.9998474 178.8905487v23.1094513h7.0001526"/><path clip-path="url(#j)" d="m363.9998474 178.8905487v95.1094513h7.0001526"/><path clip-path="url(#k)" d="m351 178.8258667 12.9998474.064682"/></g><path clip-path="url(#l)" d="m237.8544922 177.3305664c.9479217-1.3372497 1.7053985-2.860672 2.2724609-4.5703125l.9775391.3173828c-.2454376.5839844-.4824219 1.1298828-.7109375 1.6376953h5.4716797c-.1184845 4.3248902-.203125 6.9993439-.2539063 8.0234375-.0423126.8886719-.2454376 1.4980469-.609375 1.828125-.3470001.3300782-.9732971.4951172-1.8789062.4951172-.6686249 0-1.3668518-.0211639-2.0947266-.0634765-.0507812-.3385468-.1227264-.7109375-.2158203-1.1171875.8378906.0930938 1.5953674.148117 2.2724609.165039.5839844.0084686.9775391-.0930939 1.1806641-.3046875.2115936-.1777344.3300781-.5628204.3554688-1.1552734.0592498-1.1425781.1311798-3.4573364.2158203-6.944336h-4.8876953c-.4485627.8802185-.8844452 1.6207581-1.3076172 2.2216797-.2115937-.1608123-.4739533-.3385467-.7871094-.5332031zm-4.1767578 3.453125c.8802185-1.3710937 1.5022735-2.8733673 1.8662109-4.5068359h-1.7773437v-.850586h1.790039v-2.5136718h.8759766v2.5136718h1.6503906v.850586h-1.6503906v1.7138672l.3554687-.3681641c.575531.5247497 1.1721955 1.0833282 1.7900391 1.6757812l-.6728516.6982422c-.5247497-.6009216-1.015625-1.1214142-1.4726562-1.5615234v6.8046875h-.8759766v-6.5380859c-.4147186 1.3203125-.9055938 2.3867187-1.4726562 3.1992187-.1100312-.3639374-.2454376-.7363281-.40625-1.1171875zm7.8076172-1.8154297.774414-.40625c.6178437 1.0664063 1.256836 2.2301331 1.9169922 3.491211l-.9013672.4824218c-.1015625-.2285156-.2073517-.4570312-.3173828-.6855468-1.1002655.0677032-2.1835937.1438751-3.25.2285156-.2623749.0253906-.6347656.0888672-1.1171875.1904297l-.4316406-.9140625c.2708282-.186203.4993439-.4147187.6855469-.6855469.6940155-1.0917969 1.3795471-2.4332581 2.0566406-4.0244141l.9521484.3935547c-.4993438 1.1002655-1.2610626 2.4755707-2.2851562 4.1259766 1.21875-.0338593 2.2216797-.0677033 3.008789-.1015625-.3385467-.7024841-.7024688-1.4007111-1.0917968-2.0947266zm9.2421875 2.5263672h3.25v-1.1044922h-2.8183594v-.7617187h2.8183594v-1.1044922h-2.640625v-.7617188h2.640625v-1.1044922h-3.3007813v-.7871093h3.3007813v-1.1044922h-2.640625v-.7617188h2.640625v-1.2441406h.9394531v1.2441406h2.9453125v1.866211h1.3330078v.7871093h-1.3330078v2.2089844h-.9140625v-.3427734h-2.03125v1.1044922h3.1992187v.7617187h-3.1992187v1.1044922h3.7832031v.7617188h-3.7832031v1.3076171h-.9394531v-1.3076171h-3.25zm-2.9960938-2.1455078c.2539063 1.0325622.609375 1.881012 1.0664063 2.5454102.4528045-.9309998.7363281-2.0037385.8505859-3.2182618h-2.5390625v-.9267578l2.3359375-2.8818359h-2.5898437v-.8632813h3.7578125v.8632813l-2.3867188 2.9453125h2.3740234v.7490234c-.1565704 1.5699921-.5395507 2.9304962-1.1489257 4.081543.9225311.7998047 2.3549652 1.2039337 4.2973632 1.2124023 1.608078.0338593 3.4742737.0126953 5.5986329-.0634765-.1438599.3470001-.2835084.6813202-.4189454 1.0029297-1.9381713-.0084687-3.8128204-.016922-5.6240234-.0253907-1.8873749 0-3.3346252-.440094-4.3417969-1.3203125-.4781952.6940155-1.0579376 1.2991486-1.7392578 1.8154297-.1354217-.2454376-.3089142-.5205078-.5205078-.8251953.6347656-.4824219 1.1679688-1.0452423 1.5996094-1.6884766-.5670624-.7194061-1.036789-1.7477111-1.4091797-3.0849609zm7.1855469-1.5869141h2.03125v-1.1044922h-2.03125zm2.03125-2.9960937h-2.03125v1.1044922h2.03125zm2.9326172 8.5820312h5.5605469v-8.4677734h-4.8369141v-1.015625h10.8164062v1.015625h-4.8623046v8.4677734h5.5732421v.9902344h-12.2509765zm12.8222656-1.8789062h1.7519531v-8.163086h9.1025391v8.163086h1.7265625v.9140625h-12.5810547zm2.7294922 0h7.1474609v-1.1933594h-7.1474609zm7.1474609-7.2490235h-7.1474609v1.1679688h7.1474609zm-7.1474609 3.1865235h7.1474609v-1.1679688h-7.1474609zm0 2.0185547h7.1474609v-1.1679688h-7.1474609zm4.6337891 4.1386718.5332031-.8378906c1.4811401.4485626 2.9833984.9563751 4.5068359 1.5234375l-.4951172 1.0029297c-1.151062-.5078125-2.6660156-1.0706329-4.5449218-1.6884766zm-2.84375-.9140625.609375.8378907c-1.4895936.6855468-2.9918519 1.2949218-4.506836 1.828125-.1269531-.2792969-.2835083-.5966797-.4697265-.9521485 1.3034057-.389328 2.7590942-.9606018 4.3671875-1.7138672zm9.6992187-6.6015625c.7321167 1.0579529 1.440918 2.0904847 2.1264648 3.0976563.5036011-1.2399139.8230591-2.5813751.9584961-4.0244141h-3.9863281v-.9648437h5.0273438v.9267578c-.2327271 1.8365936-.6834107 3.506012-1.3520508 5.0083008.6897888 1.0113983 1.3562622 1.9952698 1.9995117 2.9516601l-.9140625.609375c-.5289917-.8336639-1.06427-1.6694336-1.605957-2.5073242-.7532654 1.3795624-1.711731 2.6004181-2.8754883 3.6625977-.1692505-.2623749-.376648-.5712891-.6220703-.9267578 1.2102966-1.0875702 2.1708984-2.3147736 2.8818359-3.6816407-.7871094-1.2060547-1.586914-2.416336-2.399414-3.6308593zm4.6337891-.5078125h4.227539v-2.7167968h1.0283203v2.7167968h1.5488282v.9648438h-1.5488282v6.6523437c0 1.2272187-.605133 1.8408204-1.8154296 1.8408204-.3808594 0-1.0071412-.0042267-1.8789063-.0126954-.0422974-.3131561-.1100464-.6940155-.203125-1.1425781.8378906.0677033 1.4768677.1015625 1.9169922.1015625.6347656 0 .9521484-.3216095.9521484-.9648437v-6.4746094h-4.227539zm.2285156 2.5517579.8251953-.4951172c.6855469 1.0071716 1.2906799 1.9846954 1.8154297 2.9326172l-.9521484.5458984c-.4993287-.9563904-1.0621644-1.9508362-1.6884766-2.9833984zm13.2792969-5.3447266h1.0537109v5.3701172c1.6461792-1.1891327 3.0003052-2.4332581 4.0625-3.7324219l.9013672.6728516c-1.3710938 1.5107422-3.0256958 2.9474182-4.9638672 4.3100586v3.6752929c0 .5585938.2454224.8378907.7363281.8378907h2.1708985c.5585937 0 .880188-.2496796.9648437-.7490235.1015625-.6432342.1777344-1.3499298.2285156-2.1201172.3554688.1354218.7194214.258133 1.0917969.3681641-.0761719.7871094-.1777344 1.4938049-.3046875 2.1201172-.1777344.8717499-.7405395 1.3076172-1.6884765 1.3076172h-2.7929688c-.9733276 0-1.4599609-.5289612-1.4599609-1.5869141zm-4.3925782.3300781v3.8085938h3.5800782v.9521484h-3.5800782v5.3955078c.8802185-.3723907 2.03125-.8971252 3.453125-1.5742187 0 .3977813.0169068.7786407.0507813 1.1425781-1.2441406.4993439-2.2978516.9690704-3.1611328 1.4091797-.3723755.1946564-.715149.4274139-1.0283203.6982422l-.7744141-.9902344c.270813-.203125.40625-.5120392.40625-.9267578v-9.9150391zm12.6699219 5.2685547h8.4423828c-.0422973 1.4388123-.1057739 2.84375-.1904297 4.2148438-.1015625 1.5826873-.8505859 2.3697967-2.2470703 2.3613281-.6855468.0084686-1.4091797-.0126953-2.1708984-.0634766-.0507813-.3554687-.1100464-.7151642-.1777344-1.0791015.6517029.0930938 1.3795471.1438751 2.1835938.1523437.8463745.016922 1.3118286-.4781799 1.3964843-1.4853516.067688-.9140625.1184693-1.9677734.1523438-3.1611328h-3.9038086c-.1015625 1.4134217-.3956909 2.5517578-.8823242 3.4150391-.6432495 1.1341247-1.7223206 2.0100861-3.2373047 2.6279297-.2200318-.2877655-.4612427-.5712891-.7236328-.850586 1.4049682-.5247497 2.4163208-1.2864532 3.0341797-2.2851562.4443359-.7574921.7003784-1.7265625.7680664-2.9072266h-2.4438477zm5.2558594-5.28125.9140625-.3935547c.9309997 2.2682343 2.5644531 3.9651642 4.9003906 5.0908203-.3808594.3977814-.6559448.7194062-.8251953.9648438-2.3274841-1.3457031-3.9905396-3.2330628-4.9892578-5.6621094zm-6.9824219 4.8623047c1.7434998-1.2356873 3.2330628-2.9199066 4.46875-5.0527344l.9013672.4951172c-1.2864685 2.2513123-2.8310547 4.0582581-4.6337891 5.4208984-.1777343-.2623748-.4231567-.5501251-.7363281-.8632812zm18.5351563-4.1259766c2.0905151-.0338592 4.1809692-.2158203 6.2714843-.5458984l.3427735.9140625c-1.7858277.2623749-3.6647034.4358673-5.6367188.5205078v2.8310547h6.1953125v.9267578h-2.3867187v6.7539063h-.9775391v-6.7539063h-2.8310547v.4824219c0 2.7506714-.6982422 4.8665314-2.0947265 6.3476562-.2116089-.3046875-.4316407-.5839843-.6601563-.8378906 1.184906-1.2695312 1.7773438-3.1103363 1.7773438-5.5224609zm-5.4589844 6.9189453c.8802185-1.2864685 1.5446167-2.7718048 1.9931641-4.4560546h-1.8154297v-.8759766h1.8408203v-2.5263672h.9267578v2.5263672h1.7519531v.8759766h-1.7519531v1.4472656l.4697266-.3681641c.7702026.9056091 1.3287963 1.6292267 1.6757812 2.1708985l-.7871094.5839843c-.3977661-.6263122-.8505859-1.2779846-1.3583984-1.9550781v7.0585938h-.9267578v-6.5253907c-.4316406 1.2695313-.9563599 2.3274689-1.5742188 3.1738282-.1015625-.2962189-.2496948-.6728516-.4443359-1.1298829zm12.8222656 2.8247071" fill="#303030"/><path clip-path="url(#m)" d="m421 85v-14c0-2.2080002 1.7919922-4 4-4h3" fill="none" stroke="#00b2a1"/><path clip-path="url(#n)" d="m421 85h4 3" fill="none" stroke="#00b2a1"/><path clip-path="url(#o)" d="m421 85v14c0 2.2080002 1.7919922 4 4 4h3" fill="none" stroke="#00b2a1"/><path clip-path="url(#p)" d="m408 85h13" fill="none" stroke="#00b2a1"/><path clip-path="url(#q)" d="m380.9482422 89.1254883c1.4707031-.225586 2.671875-.600586 3.6035156-1.125-.7646484-.3574219-1.5732422-.7265625-2.4257812-1.1074219.2783203-.4160156.5522461-.8496094.8217773-1.3007812h-2.3071289v-.6503907h2.6894531c.2958985-.5185547.5888672-1.0576172.8789063-1.6171875l.6943359.2900391c-.2578125.4541016-.5112305.8964844-.7602539 1.3271484h5.2163086v.6503907h-1.8852539c-.2929688.8877029-.7983398 1.6464843-1.5161133 2.2763671.9228516.4160157 1.8427735.8378907 2.7597656 1.265625l-.430664.703125c-.8935547-.46875-1.8823242-.9594726-2.9663086-1.4721679-1.0195313.6855469-2.3540039 1.1791992-4.003418 1.480957-.1054687-.2226562-.2285156-.4628906-.3691406-.7207031zm.1230469-6.6357422h3.9594726c-.2226562-.3222656-.4790039-.6533203-.7690429-.9931641l.5888671-.3955078c.3574219.3867188.6591797.7587891.9052735 1.116211l-.4042969.2724609h3.5947266v1.6699219h-.7119141v-1.0195313h-6.4599609v1.0195313h-.703125zm2.0654297 4.1396484c.703125.3017578 1.4033203.6079102 2.1005859.9184571.7001953-.5332032 1.190918-1.185051 1.472168-1.9555664h-2.9487305c-.2109375.3544921-.4189453.7001953-.6240234 1.0371093zm11.5576171 1.7050782c-.0058593.2578125-.0058593.4892578 0 .6943359-.7792968.2226562-1.4003906.4160156-1.8632812.5800781-.1757813.0644531-.3867188.1611328-.6328125.2900391l-.3867188-.5361328c.140625-.1171875.2109375-.319336.2109375-.6064453v-.6811524c-.5976562.3486328-1.2714843.6635742-2.0214843.9448242-.1113282-.2109375-.2431641-.4189453-.3955078-.6240234 1.5644531-.5039063 2.7993164-1.1777268 3.7045898-2.0214844h-3.590332v-.6152344h4.1176757c-.140625-.2255859-.2797851-.4365234-.4174804-.6328125l.5625-.3427734c.1992187.2929688.383789.5625.5537109.8085938l-.28125.1669921h4.0605469v.6152344h-4.003418c.2431641.4775391.5639649.8891602.9624024 1.2348633.6533203-.3134766 1.2978515-.6459961 1.9335937-.9975586l.3691406.6416016c-.5830078.2314453-1.1762695.4790039-1.7797851.7426758.6826172.4335937 1.5366211.7250976 2.5620117.8745117-.1757812.234375-.3369141.4541015-.4833984.6591797-1.8984375-.3720704-3.2548828-1.3051682-4.069336-2.7993164-.3339843.3310546-.711914.6430664-1.133789.9360351v1.2832031c.6972656-.1933593 1.3710937-.3984375 2.0214843-.6152343zm-1.2304687-4.2011719h1.9072266v-1.1689453h-2.2148438v-.6064453h2.2148438v-1.1865235h.6591796v1.1865235h2.2675782v.6064453h-2.2675782v1.1689453h1.96875v.6064453h-4.5351562zm-1.3535156-2.9794922h.6503906v4.0517578h-.6503906v-1.3491211c-.6328125.3632813-1.2949219.7485352-1.9863282 1.1557617-.0644531-.1347656-.1845703-.3515625-.3603515-.6503906.8349609-.4248047 1.6171875-.8452148 2.3466797-1.2612305zm-2.109375.8701172.4658203-.4570313c.5332031.4394532.9345703.7939453 1.2041015 1.0634766l-.5273437.5097656c-.421875-.4511719-.8027344-.8232422-1.1425781-1.1162109zm8.4902343 6.6489258"/><path clip-path="url(#r)" d="m444.043457 70.9035645h-1.0415039l-3.4233398-5.2954102c-.0966797-.1494141-.1743164-.2973633-.2329102-.4438477h-.0263672c.0234375.1523438.0351563.4702149.0351563.9536133v4.7856446h-.8701172v-6.807129h1.1030273l3.3310547 5.203125c.1582032.2460938.2519532.4028321.28125.4702149h.0175782c-.0292969-.1933594-.0439454-.5244141-.0439454-.9931641v-4.6801758h.8701172zm2.3198243-2.5444336v2.5444336h-.8789063v-6.807129h1.9335938c.7353515 0 1.3059082.1772461 1.7116699.5317383s.6086426.8613282.6086426 1.5205078c0 .6679688-.2373047 1.2092286-.7119141 1.6237793-.4746094.4145508-1.0678711.6101075-1.7797852.58667zm0-3.4892579v2.7158204h.8129882c.5361328 0 .9433594-.1208496 1.2216797-.3625489.2783203-.2416992.4174805-.5881347.4174805-1.0393066 0-.8759842-.5185547-1.3139649-1.5556641-1.3139649zm11.277832 6.0336915v-4.5087891c0-.3720703.0219726-.8188477.065918-1.340332h-.0219727c-.0761719.328125-.1435547.5566406-.2021484.6855468l-2.2456055 5.1635743h-.487793l-2.2412109-5.1240235c-.0527344-.1171875-.1201172-.3588867-.2021485-.7250976h-.0263671c.0292968.3164062.0439453.7763671.0439453 1.3798828v4.4692383h-.8393555v-6.807129h1.190918l2.0083008 4.6669922c.1523437.3574219.2534179.6357422.3032226.834961h.0307617c.1523438-.4189453.2592774-.703125.3208008-.8525391l2.043457-4.6494141h1.1337891v6.807129zm1.7578125 0"/><path clip-path="url(#s)" d="m443.4069824 82.0393066-2.2412109 4.3022461v2.5048828h-.8833008v-2.4829101l-2.184082-4.3242188h1.0063476l1.472168 3.0146485c.0029297.0029297.0571289.1479492.1625977.4350586h.0131835c.0351563-.1230469.0952149-.2666016.1801758-.4306641l1.538086-3.019043zm.5 2.2851563c.4833985-.3017578 1.0415039-.4526367 1.6743164-.4526367 1.171875 0 1.7578125.6152267 1.7578125 1.8457031v3.1289062h-.852539v-.7514648h-.0219727c-.3369141.5771484-.8334961.8657227-1.4897461.8657227-.4716797 0-.8466797-.1274414-1.125-.3823243-.2783203-.2548828-.4174805-.5991211-.4174805-1.0327148 0-.9082108.5375977-1.4370117 1.612793-1.5864258l1.4414063-.2021484c0-.793953-.328125-1.190918-.984375-1.190918-.5830078 0-1.1147461.1962891-1.5952149.5888672zm1.4414063 2.2368164c-.3984375.0527344-.6730957.1523437-.8239746.2988281s-.2263184.3515625-.2263184.6152344c0 .2314453.0820313.4204102.2460938.5668945.1640625.1464844.3808593.2197266.6503906.2197266.375 0 .684082-.1318359.9272461-.3955078.243164-.2636719.3647461-.5947266.3647461-.9931641v-.4658203zm6.0502929-1.7226563c-.1435546-.102539-.3413086-.1538085-.5932617-.1538085-.3339844 0-.609375.1560058-.8261719.4680175-.2167968.3120118-.3251953.7229004-.3251953 1.232666v2.4609375h-.8613281v-4.8603515h.8613281v.9887695h.0175782c.2460937-.7148437.6708984-1.0722656 1.274414-1.0722656.1962891 0 .347168.0219726.4526367.065918zm4.5029297 4.0078125h-.8569336v-2.7641601c0-.9990311-.3647461-1.4985352-1.0942382-1.4985352-.3779297 0-.6884766.140625-.9316407.421875-.243164.28125-.3647461.6372071-.3647461 1.0678711v2.7729492h-.8613281v-4.8603515h.8613281v.8041992h.0175782c.3662109-.6123047.8979492-.918457 1.5952148-.918457.5332031 0 .9389648.1706543 1.2172852.5119629.2783203.3413086.4174804.838623.4174804 1.4919433zm.6679688 0"/><path clip-path="url(#t)" d="m437.7519531 106.8464355v-6.8071289h1.9995117c.5976563 0 1.0751954.1428223 1.4326172.4284668.3574219.2856446.5361328.6643067.5361328 1.1359864 0 .375-.1062011.7060547-.3186035.993164-.2124023.2871094-.5046386.4907227-.876709.6108399v.0175781c.4628907.0527344.8327637.2277832 1.1096192.5251465s.4152832.6745605.4152832 1.1315918c0 .5859375-.2102051 1.0598144-.6306152 1.4216308-.4204102.3618164-.9587403.5427246-1.6149903.5427246zm.8789063-6.0380859v2.1313477h.7998047c.4248047 0 .7580566-.1032715.9997558-.3098145s.3625489-.4929199.3625489-.8591308c0-.6416016-.4277344-.9624024-1.2832032-.9624024zm0 2.8959961v2.3730469h1.0546875c.4599609 0 .8151855-.1062012 1.0656738-.3186035.2504883-.2124024.3757324-.5075684.3757324-.8854981 0-.7793045-.5288086-1.1689453-1.5864258-1.1689453zm4.6860351.7646484c0-.802742.2241211-1.4362793.6723633-1.9006347.4482422-.4643555 1.0561524-.6965332 1.8237305-.6965332.7294922 0 1.3015137.2233886 1.7160644.670166.4145508.4467773.6218262 1.0642013.6218262 1.8522949 0 .7675858-.2211914 1.387207-.6635742 1.8588867s-1.0356445.7075196-1.7797852.7075196c-.7265625 0-1.3066406-.2285157-1.7402343-.6855469-.4335938-.4570313-.6503907-1.059082-.6503907-1.8061524zm.8789063-.0263671c0 .5595703.1413574 1.0004882.4240722 1.3227539.2827149.3222656.6628418.4833984 1.1403809.4833984.4921875 0 .8671875-.1574707 1.125-.4724121s.3867188-.7668457.3867188-1.3557129c0-.5917969-.1289063-1.0458984-.3867188-1.3623047-.2578125-.3164062-.6328125-.4746094-1.125-.4746094-.4833984 0-.8649902.1655274-1.1447754.4965821-.2797851.3310547-.4196777.7851562-.4196777 1.3623047zm11.6733398-2.456543-1.4501953 4.8603515h-.8964844l-.9667968-3.4101562c-.0410157-.1464844-.0673828-.3017578-.0791016-.4658203h-.0175781c-.0087891.1230469-.0424805.2753906-.1010742.4570312l-1.0458985 3.4189453h-.8701172l-1.4589843-4.8603515h.8964843l.9711914 3.6035156c.0292969.1083984.0512696.2563477.065918.4438477h.0351563c.0117187-.1611328.0395507-.3134766.0834961-.4570313l1.0458984-3.590332h.7954101l1.0195313 3.6079101c.0292969.1054688.0527344.2548829.0703125.4482422h.0395508c.0058594-.1289062.0322265-.2783203.0791015-.4482422l.9492188-3.6079101zm4.7324219 2.6499023h-3.4013672c.0146485.5185547.1567383.9191895.4262695 1.2019043.2695313.2827149.6459961.4240723 1.1293946.4240723.5449219 0 1.0444336-.1743164 1.4985351-.5229492v.7690429c-.4277343.3017579-.9946289.4526368-1.7006836.4526368-.703125 0-1.2517089-.2226563-1.6457519-.6679688s-.5910645-1.0634689-.5910645-1.8544922c0-.7441406.2160645-1.3579101.6481934-1.8413086.4321289-.4833984.9689941-.7250976 1.6105957-.7250976.6357422 0 1.1323242.2043457 1.4897461.6130371s.5361328.9807129.5361328 1.7160644zm-.8613281-.6899414c-.0029297-.4394531-.1069336-.7792969-.3120117-1.0195312-.2050782-.2402344-.4936524-.3603516-.8657227-.3603516-.3427734 0-.6394043.1274414-.8898926.3823242s-.407959.5874024-.4724121.9975586zm4.5078125-1.1074219c-.1435547-.102539-.3413086-.1538085-.5932617-.1538085-.3339844 0-.609375.1560058-.8261719.4680175-.2167969.3120118-.3251953.7229004-.3251953 1.232666v2.4609375h-.8613282v-4.8603515h.8613282v.9887695h.0175781c.2460937-.7148437.6708984-1.0722656 1.2744141-1.0722656.196289 0 .3471679.0219726.4526367.065918zm.0615234 4.0078125"/><path clip-path="url(#u)" d="m439 139v-14c0-2.2080002 1.7919922-4 4-4h3" fill="none" stroke="#00b2a1"/><path clip-path="url(#v)" d="m439 139h4 3" fill="none" stroke="#00b2a1"/><path clip-path="url(#w)" d="m439 139v14c0 2.2080078 1.7919922 4 4 4h3" fill="none" stroke="#00b2a1"/><path clip-path="url(#x)" d="m426 139h13" fill="none" stroke="#00b2a1"/><path clip-path="url(#y)" d="m383.5102539 142.6640625h2.5664063v-2.7773437h-2.7246094v-.6679688h2.7246094v-2.6147461c-.7265625.0498047-1.4882813.0952149-2.2851563.1362305-.0292969-.2050781-.0703125-.4306641-.1230469-.6767578 1.9746094-.1054688 3.7177735-.2402344 5.2294922-.4042969l.131836.6943359c-.6914063.0703125-1.4296875.1347657-2.2148438.1933594v2.671875h2.5751953v.6679688h-2.5751953v2.7773437h2.4433594v.6503906h-5.7480469zm-2.9003906-3.2519531c.9082031-1.2246094 1.6259765-2.6220703 2.1533203-4.1923828l.6943359.2548828c-.2636718.6884765-.5390625 1.3300781-.8261718 1.9248047v6.4423828h-.694336v-5.1503906c-.3310547.5595703-.6767578 1.0605468-1.0371094 1.5029296-.0820312-.234375-.1787109-.4951171-.290039-.7822265zm11.5664062-4.3330078.6591797.28125c-.1318359.2167968-.2695312.4277343-.4130859.6328125h4.7548828v.5888672c-.5449219.6621093-1.2905273 1.2407226-2.2368164 1.7358398.984375.3574219 2.1577148.5786133 3.5200195.6635742-.1875.2636719-.3515625.5097656-.4921875.7382813-1.5263672-.2021485-2.8066406-.5434571-3.8408203-1.0239258-1.1630859.4951172-2.5693359.8862305-4.21875 1.1733398-.0996094-.1816406-.2197266-.3867187-.3603516-.6152343 1.4677735-.225586 2.7421875-.5449219 3.8232422-.9580079-.6679687-.4072265-1.2026367-.8891601-1.6040039-1.4458007-.4541015.5390625-.9565429 1.0385742-1.5073242 1.4985351-.1757812-.1875-.3369141-.3457031-.4833984-.4746094 1.078125-.8554687 1.8779297-1.7871093 2.399414-2.7949218zm-1.8457031 5.1503906h2.5576172c.0410156-.2841797.0761719-.6005859.1054687-.9492188h.7119141c-.0380859.3486329-.0776367.6650391-.1186523.9492188h3.5463867c-.0585938 1.0488281-.1142578 1.7841797-.1669922 2.2060547-.09375.8261719-.5859375 1.2421875-1.4765625 1.2480469-.3457031.0058593-.8642578-.0058594-1.5556641-.0351563-.0351562-.2167969-.0791015-.4599609-.1318359-.7294922.6738281.0585938 1.2304687.0908203 1.6699219.0966797.4980468-.0117187.7734375-.2636719.8261718-.7558594.0527344-.4394531.0908204-.9082031.1142579-1.40625h-2.9311524c-.3105469 1.4091797-1.4018555 2.4316407-3.2739258 3.0673828-.1347656-.1933593-.2783203-.3896484-.430664-.5888671 1.6816406-.5449219 2.6777343-1.3710938 2.9882812-2.4785157h-2.4345703zm5.90625-3.65625h-3.9243164c.4716797.5654297 1.078125 1.03125 1.8193359 1.3974609.8466797-.3955078 1.5483399-.8613281 2.1049805-1.3974609zm8.3408203 2.9970703.553711-.3515625c.6621093.8671875 1.2480468 1.7021484 1.7578125 2.5048828l-.6328125.4306641c-.131836-.2226563-.2666016-.4453125-.4042969-.6679688-1.6640625.1054688-2.8564453.2050782-3.5771485.2988282-.1992187.0292968-.4072265.0791015-.6240234.149414l-.3251953-.6328125c.2285156-.1582031.4189453-.3457031.5712891-.5625.3984375-.6035156.7910156-1.3037109 1.1777343-2.1005859h-1.8720703v-.6679688h6.0205078v.6679688h-3.3134765c-.506836.9316406-.9960938 1.7490234-1.4677735 2.4521484.890625-.0527344 1.9028321-.1171875 3.0366211-.1933594-.290039-.4482421-.590332-.890625-.9008789-1.3271484zm-2.1972656 3.2871094 2.5751953.0527344 2.4257813-.0966797c-.0996094.2402343-.1933594.4746093-.28125.703125l-2.6191407.0175781-2.25-.0263672c-.9316406-.0234375-1.6318359-.3632812-2.1005859-1.0195312-.3632813.3105468-.7324219.6943359-1.1074219 1.1513671l-.3779297-.7470703c.0146485-.0175781.4042969-.3515625 1.1689453-1.0019531v-2.9970703h-1.125v-.6503906h1.828125v3.7705078c.4423829.5478515 1.0634766.8291015 1.8632813.84375zm-.5888672-7.1542969h4.921875v.6679688h-4.921875zm-2.1708984-.4658203c.4511718.5449219.8964843 1.1074219 1.3359375 1.6875l-.6240235.421875c-.3925781-.5859375-.8085937-1.1601563-1.2480468-1.7226563zm11.2060547 3.234375h5.5634765v.6591797h-1.7050781v3.4365234c0 .7265625-.3662109 1.0898438-1.0986328 1.0898438-.4921875 0-.9931641-.0029297-1.5029297-.0087891-.0351563-.234375-.0791016-.4980469-.1318359-.7910156.4570312.046875.9169921.0703125 1.3798828.0703125.4042968 0 .6064453-.1992188.6064453-.5976563v-3.1992187h-3.1113281zm-3.1816407 1.96875c.9082032-.7441406 1.734375-1.7900391 2.4785157-3.1376953l.6152343.3779297c-.3017578.5214843-.6210937 1.0092773-.9580078 1.4633789v4.6538086h-.7294922v-3.7485352c-.3515625.3984375-.7177734.7661133-1.0986328 1.1030274-.09375-.2460938-.196289-.4833985-.3076172-.7119141zm3.6914063-4.6230469h4.5615234v.6591797h-4.5615234zm-3.647461 1.8369141c.9316407-.7207031 1.6816407-1.5585938 2.25-2.5136719l.6328125.3867188c-.6796875 1.0429687-1.5234375 1.977539-2.53125 2.8037109-.1054687-.2226563-.2226562-.4482422-.3515625-.6767578zm8.8154297 5.0053711"/><path clip-path="url(#z)" d="m461.4472656 123.9389648h-1.0415039l-3.4233398-5.2954101c-.0966797-.1494141-.1743164-.2973633-.2329102-.4438477h-.0263672c.0234375.1523438.0351563.4702149.0351563.9536133v4.7856445h-.8701172v-6.8071289h1.1030273l3.3310547 5.203125c.1582032.2460938.2519532.4028321.28125.4702149h.0175782c-.0292969-.1933594-.0439454-.5244141-.0439454-.9931641v-4.6801758h.8701172zm2.1923828-.6855468v2.9223633h-.8613281v-7.097168h.8613281v.8393555h.0175782c.3808593-.6357422.9375-.9536133 1.6699218-.9536133.6210938 0 1.1081543.2175293 1.4611817.6525879.3530273.4350586.529541 1.0187988.529541 1.7512207 0 .8085937-.1999512 1.4582519-.5998535 1.9489746-.3999024.4907226-.9382324.736084-1.6149903.736084-.6240234 0-1.105957-.2666016-1.4458007-.7998047zm-.0043945-1.3183594c0 .3955078.1274414.7287598.3823242.9997559.2548828.270996.5742188.4064941.9580078.4064941.4570313 0 .8144532-.1757813 1.0722657-.5273438s.3867187-.8378906.3867187-1.4589843c0-.5244141-.1201172-.9353028-.3603515-1.232666-.2402344-.2973633-.5683594-.446045-.984375-.446045-.4248047 0-.7734375.1508789-1.0458985.4526368-.2724609.3017578-.4086914.6884765-.4086914 1.1601562zm12.1391602 2.0039062h-.8613282v-2.7905273c0-.5273437-.0820312-.904541-.2460937-1.1315918s-.4335938-.3405762-.8085938-.3405762c-.3164062 0-.5874023.1479493-.8129882.4438477-.225586.2958984-.3383789.6459961-.3383789 1.050293v2.7685546h-.8613282v-2.8784179c0-.9228516-.355957-1.3842774-1.0678711-1.3842774-.328125 0-.5998535.140625-.8151855.421875s-.3229981.6401368-.3229981 1.0766602v2.7641601h-.8613281v-4.8603515h.8613281v.769043h.0175782c.3457031-.5888672.8510742-.8833008 1.5161132-.8833008.3251954 0 .6123047.0893554.8613282.2680664.2490234.1787109.421875.4204101.5185547.7250976.3603515-.6621093.899414-.993164 1.6171875-.993164 1.0693359 0 1.6040039.659172 1.6040039 1.977539zm3.7973632-1.2788085c.2080079.1816406.4863282.3310546.834961.4482421s.6796875.1757813.993164.1757813c.9550782 0 1.4326172-.3398438 1.4326172-1.0195313 0-.1904296-.0512695-.3618164-.1538086-.5141601-.102539-.1523438-.243164-.2871094-.421875-.4042969-.1787109-.1171875-.5141601-.2973633-1.0063476-.5405273-.6826172-.3398438-1.1323242-.6555176-1.3491211-.9470215s-.3251953-.6247559-.3251953-.9997559c0-.5654297.2270508-1.0136719.6811523-1.3447265.4541016-.3310547 1.0268555-.4965821 1.7182617-.4965821.6767579 0 1.1733399.0820313 1.4897461.2460938v.9580078c-.4101562-.2841797-.9287109-.4262695-1.555664-.4262695-.4160157 0-.755127.0871582-1.017334.2614746s-.3933106.416748-.3933106.7272949c0 .2753906.0908204.4995117.272461.6723633.1816406.1728515.5756836.4086914 1.1821289.7075195.6679687.3193359 1.1352539.6386719 1.4018555.9580078.2666015.319336.3999023.6782227.3999023 1.0766602 0 .5976562-.2167969 1.0561523-.6503906 1.3754883-.4335938.3193359-1.0356446.4790039-1.8061524.4790039-.2695312 0-.5837402-.0373536-.9426269-.1120606s-.6203614-.1677246-.7844239-.2790527zm8.5639649 1.059082c-.3720703.2226562-.8203125.3339844-1.3447266.3339844-.703125 0-1.2685547-.225586-1.696289-.6767579-.4277344-.4511718-.6416016-1.0356445-.6416016-1.7534179 0-.796875.2307129-1.439209.6921387-1.927002.4614258-.4877929 1.0788574-.7316894 1.8522949-.7316894.4453125 0 .8261719.0791015 1.1425781.2373047v.852539c-.3427734-.2519531-.7236328-.3779297-1.1425781-.3779297-.4921875 0-.8928223.1706543-1.2019043.5119629s-.463623.7961426-.463623 1.364502c0 .5595703.1457519.9975586.4372558 1.3139648.2915039.3164063.6848145.4746094 1.1799317.4746094.4189453 0 .8144531-.1376953 1.1865234-.4130859zm4.2485351-3.788086c-.1435546-.102539-.3413085-.1538085-.5932617-.1538085-.3339843 0-.609375.1560058-.8261718.4680175-.2167969.3120117-.3251954.7229004-.3251954 1.232666v2.4609375h-.8613281v-4.8603515h.8613281v.9887695h.0175782c.2460937-.7148437.6708984-1.0722656 1.274414-1.0722656.1962891 0 .347168.0219726.4526367.065918zm.2885743-2.5664062c0-.1523438.0520019-.2805176.1560058-.3845215s.2321778-.1560058.3845215-.1560058c.1552734 0 .286377.0512695.3933106.1538085.1069335.1025391.1604003.2314454.1604003.3867188 0 .1523437-.0534668.2790527-.1604003.3801269-.1069336.1010743-.2380372.1516114-.3933106.1516114s-.2841797-.0505371-.3867187-.1516114c-.1025391-.1010742-.1538086-.2277832-.1538086-.3801269zm.1010742 6.5742187v-4.8603515h.8613281v4.8603515zm2.8657226-.6855468v2.9223633h-.8613281v-7.097168h.8613281v.8393555h.0175782c.3808593-.6357422.9375-.9536133 1.6699218-.9536133.6210938 0 1.1081543.2175293 1.4611817.6525879.3530273.4350586.529541 1.0187988.529541 1.7512207 0 .8085937-.1999512 1.4582519-.5998535 1.9489746-.3999024.4907226-.9382324.736084-1.6149903.736084-.6240234 0-1.105957-.2666016-1.4458007-.7998047zm-.0043945-1.3183594c0 .3955078.1274414.7287598.3823242.9997559.2548828.270996.5742188.4064941.9580078.4064941.4570313 0 .8144532-.1757813 1.0722657-.5273438s.3867187-.8378906.3867187-1.4589843c0-.5244141-.1201172-.9353028-.3603515-1.232666-.2402344-.2973633-.5683594-.446045-.984375-.446045-.4248047 0-.7734375.1508789-1.0458985.4526368-.2724609.3017578-.4086914.6884765-.4086914 1.1601562zm7.4765625 1.9555664c-.1875.1025391-.440918.1538086-.7602539.1538086-.8701172 0-1.3051758-.4819336-1.3051758-1.4458008v-2.8081055h-.8349609v-.711914h.8349609v-1.1689453l.8569336-.272461v1.4414063h1.2084961v.711914h-1.2084961v2.6542969c0 .319336.0541992.5478516.1625977.6855469.1083984.1376953.2885742.206543.5405273.206543.1933594 0 .3618164-.0541993.5053711-.1625977zm.2504883.0483398"/><path clip-path="url(#A)" d="m461.6508789 141.5126953c-.6796875.3867188-1.4472656.5800781-2.3027344.5800781-.984375 0-1.7775879-.3112793-2.3796386-.9338379-.6020508-.6225585-.9030762-1.4538574-.9030762-2.4938964 0-1.0517578.3325195-1.9160157.9975586-2.5927735.665039-.6767578 1.5175781-1.0151367 2.5576172-1.0151367.7353515 0 1.3579101.1171875 1.8676758.3515625v.9492188c-.5449219-.3427735-1.1938477-.5141602-1.9467774-.5141602-.7412109 0-1.3520508.253418-1.8325195.7602539-.4804688.5068359-.7207031 1.1748047-.7207031 2.0039063 0 .852539.2211914 1.5161132.6635742 1.9907226s1.040039.7119141 1.7929687.7119141c.5185547 0 .9594727-.0996094 1.3227539-.2988281v-1.8413086h-1.4765625v-.7778321h2.3598633zm5.7563477.4658203h-.8657227v-.7646484h-.0175781c-.3251953.5859375-.824707.8789062-1.4985352.8789062-1.1513672 0-1.7270508-.6884765-1.7270508-2.0654296v-2.9091797h.8525391v2.7817382c0 .9873047.3779297 1.4809571 1.1337891 1.4809571.375 0 .6782226-.1384278.9096679-.4152832.2314454-.2768555.347168-.6262207.347168-1.0480957v-2.7993164h.8657227zm1.9833984 0v-7.1938476h.8613281v7.1938476zm2.8657227-.6855468v2.9223632h-.8613282v-7.0971679h.8613282v.8393554h.0175781c.3808594-.6357422.9375-.9536132 1.6699219-.9536132.6210937 0 1.1081543.2175292 1.4611816.6525878s.529541 1.0187989.529541 1.7512207c0 .8085938-.1999512 1.458252-.5998535 1.9489747-.3999023.4907226-.9382324.7360839-1.6149902.7360839-.6240235 0-1.1059571-.2666015-1.4458008-.7998046zm-.0043946-1.3183594c0 .3955078.1274414.7287597.3823242.9997558.2548829.2709961.5742188.4064942.9580079.4064942.4570312 0 .8144531-.1757813 1.0722656-.5273438s.3867187-.8378906.3867187-1.4589843c0-.5244141-.1201172-.9353028-.3603515-1.2326661-.2402344-.2973632-.5683594-.4460449-.984375-.4460449-.4248047 0-.7734375.1508789-1.0458985.4526367-.2724609.3017578-.4086914.6884766-.4086914 1.1601563zm4.1220703 2.0039062"/><path clip-path="url(#B)" d="m461.2539063 160.4377441c-.6796875.3867188-1.4472657.5800782-2.3027344.5800782-.984375 0-1.7775879-.3112793-2.3796387-.9338379s-.9030762-1.4538574-.9030762-2.4938965c0-1.0517578.3325196-1.9160156.9975586-2.5927734.6650391-.6767579 1.5175782-1.0151368 2.5576172-1.0151368.7353516 0 1.3579102.1171875 1.8676758.3515625v.9492188c-.5449219-.3427735-1.1938477-.5141602-1.9467773-.5141602-.741211 0-1.3520508.253418-1.8325196.7602539-.4804687.506836-.7207031 1.1748047-.7207031 2.0039063 0 .852539.2211914 1.5161133.6635742 1.9907226.4423828.4746094 1.0400391.7119141 1.7929688.7119141.5185547 0 .9594726-.0996094 1.3227539-.2988281v-1.8413086h-1.4765625v-.777832h2.3598633zm4.3500976-3.5419921c-.1435547-.1025391-.3413086-.1538086-.5932617-.1538086-.3339844 0-.609375.1560058-.8261719.4680175-.2167969.3120118-.3251953.7229004-.3251953 1.2326661v2.4609375h-.8613281v-4.8603516h.8613281v.9887695h.0175781c.2460938-.7148437.6708985-1.0722656 1.2744141-1.0722656.1962891 0 .347168.0219727.4526367.065918zm4.40625 4.0078125h-.8657226v-.7646485h-.0175782c-.3251953.5859375-.824707.8789063-1.4985351.8789063-1.1513672 0-1.7270508-.6884766-1.7270508-2.0654297v-2.9091797h.8525391v2.7817383c0 .9873047.3779296 1.480957 1.133789 1.480957.375 0 .6782227-.1384277.909668-.4152832s.347168-.6262207.347168-1.0480957v-2.7993164h.8657226zm6.0966797 0h-.8569336v-2.7641602c0-.9990234-.3647461-1.4985352-1.0942383-1.4985352-.3779297 0-.6884765.140625-.9316406.421875s-.3647461.6372071-.3647461 1.0678711v2.7729493h-.8613281v-4.8603516h.8613281v.8041992h.0175781c.366211-.6123047.8979492-.918457 1.5952149-.918457.5332031 0 .9389648.1706543 1.2172851.5119629s.4174805.838623.4174805 1.4919433zm4.2246094-.0483399c-.1875.1025391-.440918.1538086-.7602539.1538086-.8701172 0-1.3051758-.4819336-1.3051758-1.4458008v-2.8081054h-.834961v-.7119141h.834961v-1.1689453l.8569336-.272461v1.4414063h1.2084961v.7119141h-1.2084961v2.6542968c0 .319336.0541992.5478516.1625976.6855469.1083985.1376953.2885743.206543.5405274.206543.1933594 0 .3618164-.0541992.5053711-.1625977zm.2504883.0483399"/><g fill="none"><path clip-path="url(#C)" d="m430 202v-23c0-2.2080078 1.7919922-4 4-4h3" stroke="#00b2a1"/><path clip-path="url(#D)" d="m430 202v-5c0-2.2080078 1.7919922-4 4-4h3" stroke="#00b2a1"/><path clip-path="url(#E)" d="m430 202v5c0 2.2080078 1.7919922 4 4 4h3" stroke="#00b2a1"/><path clip-path="url(#F)" d="m430 202v23c0 2.2080078 1.7919922 4 4 4h3" stroke="#00b2a1"/><path clip-path="url(#G)" d="m417 202h13" stroke="#00b2a1"/></g><path clip-path="url(#H)" d="m383.4003906 204.2490234h2.5444336c.038086-.2138671.0629883-.477539.0747071-.7910156h-1.3535157v.2460938h-.6328125v-3.1816407h4.7021485v3.1816407h-.6328125v-.2460938h-1.4765625c-.0175782.3222656-.0439453.5859375-.0791016.7910156h2.7597656v.5625h-2.4257812c.6357422.7119141 1.4765625 1.1455079 2.5224609 1.3007813-.1640625.2167969-.3076172.4365234-.430664.6591797-1.1337891-.3310547-2.0170899-.928711-2.6499024-1.7929688-.4189453.8408203-1.3813476 1.4560547-2.887207 1.8457032-.0996094-.2050782-.2138672-.4072266-.3427735-.6064454 1.3798829-.290039 2.2617188-.758789 2.6455079-1.40625h-2.3378907zm-2.7949218-.5976562c.5068359-.8496094.9096679-1.8339844 1.208496-2.953125h-1.1030273v-.5800781h1.2216797v-1.9511719h.6152344v1.9511719h1.1425781v.5800781h-1.1425781v1.1601562l.3427734-.28125c.3339844.3574219.6445313.7177735.9316406 1.0810547l-.4833984.4042969c-.2695313-.3896484-.5332031-.7338867-.7910156-1.0327148v4.7592773h-.6152344v-4.7856445c-.3134766 1.0722656-.65625 1.8793945-1.0283203 2.4213867-.0820313-.2519531-.1816406-.5097656-.2988281-.7734375zm6.5390625-5.4755859h.6152343v.84375h1.5117188v.5625h-1.5117188v.711914h-.6152343v-.711914h-1.5644532v.711914h-.6152343v-.711914h-1.3886719v-.5625h1.3886719v-.8525391h.6152343v.8525391h1.5644532zm.9580078 2.8916015h-3.4365235v.6591797h3.4365235zm-3.4365235 1.8457031h3.4365235v-.6591796h-3.4365235zm7.7695313-.2988281h1.9907226c.0703125-.5478515.1069336-1.2949219.1098633-2.2412109h-1.5820312v-.6152344h1.5864257c.0087891-.5947266.0131836-1.1132812.0131836-1.5556641h.6855469c0 .5244141-.0014648 1.0429688-.0043945 1.5556641h2.1665039v2.8564453h.8876953v.6152344h-2.9619141c.4921875 1.3125 1.444336 2.2470703 2.8564454 2.8037109-.2050782.2050782-.4101563.4335938-.6152344.6855469-1.3447266-.7382812-2.2485352-1.7446289-2.7114258-3.019043-.3955078 1.1923828-1.284668 2.2368164-2.6674805 3.1333008-.1757812-.2226562-.3486328-.4277344-.5185547-.6152344 1.4121094-.8408203 2.288086-1.836914 2.6279297-2.9882812h-1.8632812zm-2.7949219 2.0654297c.4160156-.1054687.8408203-.215332 1.2744141-.3295898v-3.3442383h-1.1601563v-.6240235h1.1601563v-2.1708984h.6591797v2.1708984h1.1689453v.6240235h-1.1689453v3.168457c.4042968-.1083984.8144531-.2211914 1.2304687-.3383789.0117188.2519531.0263672.4804688.0439453.6855469-.9609375.2578125-1.9628906.5449219-3.0058594.8613281zm5.4799805-2.0654297h1.6040039v-2.2412109h-1.4941406c-.0146485.9375-.0512696 1.6845703-.1098633 2.2412109zm5.9897461.975586c.7675781-.3574219 1.4853515-.769043 2.1533203-1.2348633v-4.0297852h.7558594v3.4628906c.8964843-.7236328 1.6933593-1.5585937 2.390625-2.5048828l.6416015.4658203c-.852539 1.1337891-1.8632812 2.1254883-3.0322265 2.9750977v2.4829102c0 .3984375.2109375.5976562.6328125.5976562h1.1162109c.3984375 0 .6298828-.1904297.6943359-.5712891.0820313-.3984375.1347657-.8583984.1582032-1.3798828.2460937.09375.5039062.178711.7734375.2548828-.046875.4921875-.1083985.9433594-.1845704 1.3535157-.1113281.6738281-.5332031 1.0107422-1.265625 1.0107422h-1.4853515c-.796875 0-1.1953125-.3925782-1.1953125-1.1777344v-2.0566406c-.5478516.3515625-1.125.6738281-1.7314453.9667968-.1230469-.1933593-.2636719-.3984375-.421875-.6152343zm-2.4697266-1.0810547c1.0195313-1.3535157 1.7695313-2.7919922 2.25-4.3154297l.7646484.2197265c-.2783203.7265625-.5800781 1.4106446-.9052734 2.0522461v6.2885743h-.7382812v-4.9658204c-.3251954.5273438-.6708985 1.022461-1.0371094 1.4853516-.0996094-.2519531-.2109375-.5068359-.3339844-.7646484zm8.8769531 3.1245117"/><path clip-path="url(#I)" d="m455.534668 171.1713867-1.9072266 6.8071289h-1.0239258l-1.3710937-4.9042968c-.0615235-.2226563-.0981446-.4570313-.1098633-.703125h-.0175781c-.0175782.243164-.0585938.4746093-.1230469.6943359l-1.3842773 4.9130859h-1.0151368l-1.9731445-6.8071289h.9711914l1.3886719 5.1416016c.0615234.2314453.0981445.4643555.1098633.6987305h.0263672c.0146484-.1757813.0629882-.4086915.1450195-.6987305l1.472168-5.1416016h.8657226l1.40625 5.1811524c.046875.1699218.0849609.3867187.1142578.6503906h.0175781c.0146485-.1904297.057129-.4130859.1274415-.6679688l1.3359375-5.1635742zm4.6845703 4.5966797h-3.4013672c.0146484.5185547.1567383.9191895.4262695 1.2019043.2695313.2827148.6459961.4240723 1.1293946.4240723.5449218 0 1.0444336-.1743164 1.4985351-.5229492v.7690429c-.4277344.3017578-.9946289.4526367-1.7006836.4526367-.703125 0-1.251709-.2226562-1.6457519-.6679687-.394043-.4453125-.5910645-1.0634766-.5910645-1.8544922 0-.7441406.2160645-1.3579102.6481934-1.8413086s.9689941-.7250976 1.6105957-.7250976c.6357422 0 1.1323242.2043457 1.4897461.6130371.3574218.4086914.5361328.9807129.5361328 1.7160644zm-.8613281-.6899414c-.0029297-.4394531-.1069336-.7792969-.3120118-1.0195312-.2050781-.2402344-.4936523-.3603516-.8657226-.3603516-.3427735 0-.6394043.1274414-.8898926.3823242s-.407959.5874024-.4724121.9975586zm2.7631836 2.2148438v.6855468h-.8613282v-7.1938476h.8613282v3.1728515h.0175781c.3808594-.6357422.9375-.9536132 1.6699219-.9536132.609375 0 1.0935058.2145996 1.4523925.6437988s.5383301 1.0158691.5383301 1.7600097c0 .8203125-.201416 1.4729004-.604248 1.9577637-.4028321.4848633-.9396973.7272949-1.6105957.7272949-.6328125 0-1.1147461-.2666015-1.4458008-.7998046zm-.0043946-1.3139649c0 .3925781.1274414.7243652.3823242.9953613.2548829.2709961.5742188.4064942.9580079.4064942.4570312 0 .8144531-.1757813 1.0722656-.5273438s.3867187-.8378906.3867187-1.4589843c0-.5126954-.1201172-.9206543-.3603515-1.223877-.2402344-.3032227-.5683594-.454834-.984375-.454834-.421875 0-.7697754.1508789-1.0437012.4526367s-.4108887.6855469-.4108887 1.1513672zm6.0043946 1.3139649v2.9223632h-.8613282v-7.0971679h.8613282v.8393554h.0175781c.3808594-.6357422.9375-.9536132 1.6699219-.9536132.6210937 0 1.1081542.2175292 1.4611816.6525878.3530273.4350586.529541 1.0187989.529541 1.7512207 0 .8085938-.1999512 1.458252-.5998535 1.9489747-.3999024.4907226-.9382324.7360839-1.6149902.7360839-.6240235 0-1.1059571-.2666015-1.4458008-.7998046zm-.0043946-1.3183594c0 .3955078.1274414.7287597.3823242.9997558.2548829.2709961.5742188.4064942.9580079.4064942.4570312 0 .8144531-.1757813 1.0722656-.5273438s.3867187-.8378906.3867187-1.4589843c0-.5244141-.1201172-.9353028-.3603515-1.2326661-.2402344-.2973632-.5683594-.4460449-.984375-.4460449-.4248047 0-.7734375.1508789-1.0458985.4526367-.2724609.3017578-.4086914.6884766-.4086914 1.1601563zm5.2573242-2.5180664c.4833985-.3017578 1.0415039-.4526367 1.6743164-.4526367 1.171875 0 1.7578125.6152343 1.7578125 1.8457031v3.1289062h-.852539v-.7514648h-.0219727c-.336914.5771484-.8334961.8657226-1.4897461.8657226-.4716797 0-.8466797-.1274414-1.125-.3823242s-.4174804-.5991211-.4174804-1.0327148c0-.9082031.5375976-1.4370117 1.6127929-1.5864258l1.4414063-.2021484c0-.7939454-.328125-1.190918-.984375-1.190918-.5830078 0-1.1147461.1962891-1.5952149.5888672zm1.4414063 2.2368164c-.3984375.0527344-.6730957.1523437-.8239746.2988281s-.2263184.3515625-.2263184.6152344c0 .2314453.0820313.4204101.2460938.5668945s.3808593.2197266.6503906.2197266c.375 0 .684082-.131836.9272461-.3955078.2431641-.2636719.3647461-.5947266.3647461-.9931641v-.4658203zm6.8017578 2.0654297c-.3720703.2226562-.8203125.3339843-1.3447266.3339843-.703125 0-1.2685546-.2255859-1.696289-.6767578-.4277344-.4511718-.6416016-1.0356445-.6416016-1.7534179 0-.796875.2307129-1.439209.6921387-1.927002s1.0788574-.7316894 1.8522949-.7316894c.4453125 0 .8261719.0791015 1.1425781.2373046v.8525391c-.3427734-.2519531-.7236328-.3779297-1.1425781-.3779297-.4921875 0-.8928223.1706543-1.2019043.5119629s-.463623.7961426-.463623 1.364502c0 .5595703.1457519.9975586.4372558 1.3139648.2915039.3164063.6848145.4746094 1.1799317.4746094.4189453 0 .8144531-.1376953 1.1865234-.413086zm5.7734375.2197265h-1.1733398l-2.0786133-2.3422851h-.0175781v2.3422851h-.8613282v-7.1938476h.8613282v4.5615234h.0175781l1.9731445-2.2280273h1.1074219l-2.1972656 2.3378906zm0 0"/><path clip-path="url(#J)" d="m447.0773926 196.0048828v-6.8071289h1.9995117c.5976562 0 1.0751953.1428223 1.4326172.4284668s.5361328.6643066.5361328 1.1359863c0 .375-.1062012.7060547-.3186035.9931641-.2124024.2871094-.5046387.4907227-.876709.6108398v.0175782c.4628906.0527343.8327637.2277832 1.1096191.5251464.2768555.2973633.4152832.6745606.4152832 1.1315918 0 .5859375-.210205 1.0598145-.6306152 1.4216309-.4204101.3618164-.9587402.5427246-1.6149902.5427246zm.8789062-6.0380859v2.1313476h.7998047c.4248047 0 .7580567-.1032715.9997559-.3098144.2416992-.206543.3625488-.4929199.3625488-.8591309 0-.6416015-.4277344-.9624023-1.2832031-.9624023zm0 2.8959961v2.3730468h1.0546875c.459961 0 .8151856-.1062011 1.0656739-.3186035.2504882-.2124023.3757324-.5075683.3757324-.885498 0-.7792969-.5288086-1.1689453-1.5864258-1.1689453zm7.6171875-.8657227c-.1435547-.102539-.3413086-.1538086-.5932617-.1538086-.3339844 0-.609375.1560059-.8261719.4680176-.2167968.3120117-.3251953.7229004-.3251953 1.232666v2.4609375h-.8613281v-4.8603515h.8613281v.9887695h.0175781c.2460938-.7148438.6708985-1.0722656 1.2744141-1.0722656.1962891 0 .347168.0219726.4526367.0659179zm.0688477 1.6303711c0-.8027344.2241211-1.4362793.6723633-1.9006348.4482422-.4643554 1.0561523-.6965332 1.8237304-.6965332.7294922 0 1.3015137.2233887 1.7160645.6701661.4145508.4467773.6218262 1.0642089.6218262 1.8522949 0 .7675781-.2211914 1.387207-.6635743 1.8588867-.4423828.4716797-1.0356445.7075195-1.7797851.7075195-.7265625 0-1.3066406-.2285156-1.7402344-.6855468-.4335937-.4570313-.6503906-1.0590821-.6503906-1.8061524zm.8789062-.0263672c0 .5595703.1413575 1.0004883.4240723 1.3227539.2827148.3222657.6628418.4833985 1.1403809.4833985.4921875 0 .8671875-.1574707 1.125-.4724121.2578125-.3149415.3867187-.7668457.3867187-1.3557129 0-.5917969-.1289062-1.0458985-.3867187-1.3623047-.2578125-.3164063-.6328125-.4746094-1.125-.4746094-.4833985 0-.8649903.1655273-1.1447754.496582-.2797852.3310547-.4196778.7851563-.4196778 1.3623047zm11.6733399-2.4565429-1.4501953 4.8603515h-.8964844l-.9667969-3.4101562c-.0410156-.1464844-.0673828-.3017578-.0791015-.4658203h-.0175782c-.008789.1230468-.0424804.2753906-.1010742.4570312l-1.0458984 3.4189453h-.8701172l-1.4589844-4.8603515h.8964844l.9711914 3.6035156c.0292969.1083984.0512695.2563476.065918.4438476h.0351562c.0117188-.1611328.0395508-.3134765.0834961-.4570312l1.0458984-3.590332h.7954102l1.0195312 3.6079101c.0292969.1054688.0527344.2548828.0703125.4482422h.0395508c.0058594-.1289063.0322266-.2783203.0791016-.4482422l.9492187-3.6079101zm.5004883 3.8100585c.4335937.3134766.9008789.4702149 1.4018554.4702149.6708985 0 1.0063477-.2197266 1.0063477-.6591797 0-.1875-.0732422-.342041-.2197266-.463623-.1464844-.1215821-.4438476-.2658692-.8920898-.4328614-.5390625-.2167968-.8891602-.4313965-1.050293-.6437988s-.2416992-.4694824-.2416992-.7712402c0-.4306641.182373-.7756348.5471191-1.0349121.3647461-.2592774.8137207-.3889161 1.3469239-.3889161.4130859 0 .796875.0717774 1.1513671.2153321v.8305664c-.3632812-.234375-.7749023-.3515625-1.2348632-.3515625-.2753907 0-.4995118.0600586-.6723633.1801758-.1728516.1201171-.2592774.2783203-.2592774.4746093 0 .1933594.0622559.3442383.1867676.4526368.1245117.1083984.4006348.2475585.8283692.4174804.5419921.2021485.9082031.4116211 1.0986328.628418s.2856445.4848633.2856445.8041992c0 .4453125-.182373.7961426-.5471191 1.0524902-.3647461.2563477-.8371582.3845215-1.4172364.3845215-.5039062 0-.9433593-.0952148-1.3183593-.2856445zm8.2319336-1.1601562h-3.4013672c.0146484.5185547.1567382.9191894.4262695 1.2019043.2695312.2827148.6459961.4240723 1.1293945.4240723.5449219 0 1.0444336-.1743164 1.4985352-.5229493v.769043c-.4277344.3017578-.9946289.4526367-1.7006836.4526367-.703125 0-1.251709-.2226562-1.645752-.6679687-.3940429-.4453125-.5910644-1.0634766-.5910644-1.8544922 0-.7441406.2160644-1.3579102.6481933-1.8413086.432129-.4833984.9689942-.7250977 1.6105957-.7250977.6357422 0 1.1323243.2043457 1.4897461.6130371.3574219.4086915.5361329.9807129.5361329 1.7160645zm-.8613282-.6899414c-.0029297-.4394531-.1069336-.7792969-.3120117-1.0195313-.2050781-.2402343-.4936523-.3603515-.8657226-.3603515-.3427735 0-.6394043.1274414-.8898926.3823242s-.407959.5874023-.4724121.9975586zm4.5078125-1.1074219c-.1435547-.102539-.3413086-.1538086-.5932617-.1538086-.3339844 0-.609375.1560059-.8261719.4680176-.2167968.3120117-.3251953.7229004-.3251953 1.232666v2.4609375h-.8613281v-4.8603515h.8613281v.9887695h.0175781c.2460938-.7148438.6708985-1.0722656 1.2744141-1.0722656.1962891 0 .347168.0219726.4526367.0659179zm.2885742-2.5664062c0-.1523438.052002-.2805176.1560059-.3845215s.2321777-.1560059.3845215-.1560059c.1552734 0 .2863769.0512696.3933105.1538086.1069336.1025391.1604004.2314453.1604004.3867188 0 .1523437-.0534668.2790527-.1604004.3801269s-.2380371.1516113-.3933105.1516113-.2841797-.0505371-.3867188-.1516113c-.102539-.1010742-.1538086-.2277832-.1538086-.3801269zm.1010743 6.5742187v-4.8603515h.8613281v4.8603515zm4.4960937-6.4599609c-.1611328-.084961-.3354492-.1274414-.5229492-.1274414-.5390625 0-.8085938.3339843-.8085938 1.0019531v.7250977h1.1381836v.711914h-1.1381836v4.1484375h-.852539v-4.1484375h-.8305664v-.711914h.8305664v-.7646485c0-.5214844.1501465-.9309082.4504394-1.2282715.300293-.2973633.6818848-.4460449 1.1447754-.4460449.2460938 0 .4423828.027832.5888672.0834961zm4.4633789 1.5996094-2.2060547 5.5942382c-.4101562 1.0371094-.9887695 1.5556641-1.7358398 1.5556641-.2138672 0-.3969727-.0234375-.5493164-.0703125v-.7558594c.1669922.0644531.328125.0966797.4833984.0966797.3896485 0 .6811524-.2285156.8745117-.6855469l.3735352-.8833007-1.9072266-4.8515625h.9536133l1.2700195 3.6518554.1054688.3999024h.0219727c.0175781-.0908203.0527343-.2211914.1054687-.3911133l1.3271484-3.6606445zm.0395508 4.8603515"/><path clip-path="url(#K)" d="m452.2553711 213.9785156h-1.0371094l-1.1293945-1.8896484c-.2255859-.3779297-.4321289-.6350098-.6196289-.7712402-.1875-.1362305-.4116211-.2043457-.6723633-.2043457h-.6328125v2.8652343h-.8789062v-6.8071289h2.0742187c.6621094 0 1.1806641.159668 1.5556641.4790039.375.319336.5625.7661133.5625 1.3403321 0 .9433593-.5039063 1.555664-1.5117188 1.836914v.0219727c.1875.0791015.3493652.1918945.4855957.3383789s.3127442.3969726.529541.7514648zm-4.0913086-6.0380859v2.4038086h1.0371094c.4013672 0 .7272949-.1171875.9777832-.3515625s.3757324-.5419922.3757324-.9228516c0-.3544922-.1142578-.6313476-.3427734-.8305664-.2285157-.1992187-.5610352-.2988281-.9975586-.2988281zm4.6860352 3.6606445c0-.8027344.2241211-1.4362793.6723632-1.9006347.4482422-.4643555 1.0561524-.6965332 1.8237305-.6965332.7294922 0 1.3015137.2233886 1.7160645.670166.4145507.4467773.6218261 1.064209.6218261 1.8522949 0 .7675781-.2211914 1.387207-.6635742 1.8588867s-1.0356445.7075195-1.7797851.7075195c-.7265625 0-1.3066407-.2285156-1.7402344-.6855468-.4335938-.4570313-.6503906-1.0590821-.6503906-1.8061524zm.8789062-.0263672c0 .5595703.1413574 1.0004883.4240723 1.3227539.2827148.3222657.6628418.4833985 1.1403808.4833985.4921875 0 .8671875-.1574707 1.125-.4724121s.3867188-.7668457.3867188-1.3557129c0-.5917969-.1289063-1.0458985-.3867188-1.3623047-.2578125-.3164063-.6328125-.4746094-1.125-.4746094-.4833984 0-.8649902.1655274-1.1447754.496582-.2797851.3310547-.4196777.7851563-.4196777 1.3623047zm5.4418945 2.4038086v-7.1938476h.8613282v7.1938476zm2 0v-7.1938476h.8613282v7.1938476zm6.0166016 0h-.8657227v-.7646484h-.0175781c-.3251953.5859375-.824707.8789062-1.4985351.8789062-1.1513672 0-1.7270508-.6884765-1.7270508-2.0654296v-2.9091797h.852539v2.7817382c0 .9873047.3779297 1.4809571 1.1337891 1.4809571.375 0 .6782227-.1384278.909668-.4152832.2314453-.2768555.3471679-.6262207.3471679-1.0480957v-2.7993164h.8657227zm2.8491211-.6855468v2.9223632h-.8613281v-7.0971679h.8613281v.8393554h.0175781c.3808594-.6357422.9375-.9536132 1.6699219-.9536132.6210937 0 1.1081543.2175292 1.4611816.6525878.3530274.4350586.5295411 1.0187989.5295411 1.7512207 0 .8085938-.1999512 1.458252-.5998536 1.9489747-.3999023.4907226-.9382324.7360839-1.6149902.7360839-.6240234 0-1.105957-.2666015-1.4458008-.7998046zm-.0043945-1.3183594c0 .3955078.1274414.7287597.3823242.9997558s.5742187.4064942.9580078.4064942c.4570312 0 .8144531-.1757813 1.0722656-.5273438s.3867188-.8378906.3867188-1.4589843c0-.5244141-.1201172-.9353028-.3603516-1.2326661-.2402344-.2973632-.5683594-.4460449-.984375-.4460449-.4248047 0-.7734375.1508789-1.0458984.4526367-.272461.3017578-.4086914.6884766-.4086914 1.1601563zm4.1220703 2.0039062"/><path clip-path="url(#L)" d="m452.3234863 231.6708984c-.5009765.2636719-1.1293945.3955079-1.8852539.3955079-.9755859 0-1.7548828-.3098145-2.3378906-.9294434s-.8745117-1.439209-.8745117-2.4587402c0-1.0957032.328125-1.9775391.984375-2.6455079.65625-.6679687 1.4897461-1.0019531 2.5004883-1.0019531.6503906 0 1.1879882.0922852 1.6127929.2768555v.918457c-.4863281-.2695312-1.0209961-.4042969-1.6040039-.4042969-.758789 0-1.3769531.2526856-1.8544922.7580567-.477539.5053711-.7163086 1.1872558-.7163086 2.0456543 0 .8144531.2226563 1.4611816.6679688 1.9401855s1.0283203.7185059 1.7490234.7185059c.6738282 0 1.2597657-.1523438 1.7578125-.4570313zm.9067383-2.0961914c0-.8027343.2241211-1.4362793.6723633-1.9006347.4482422-.4643555 1.0561523-.6965332 1.8237305-.6965332.7294921 0 1.3015136.2233886 1.7160644.670166.4145508.4467773.6218262 1.064209.6218262 1.8522949 0 .7675781-.2211914 1.387207-.6635742 1.8588867s-1.0356446.7075196-1.7797852.7075196c-.7265625 0-1.3066406-.2285157-1.7402344-.6855469-.4335937-.4570313-.6503906-1.0590821-.6503906-1.8061524zm.8789063-.0263672c0 .5595704.1413574 1.0004883.4240722 1.322754.2827149.3222656.6628418.4833984 1.1403809.4833984.4921875 0 .8671875-.1574707 1.125-.4724121s.3867187-.7668457.3867187-1.3557129c0-.5917969-.1289062-1.0458984-.3867187-1.3623047-.2578125-.3164062-.6328125-.4746094-1.125-.4746094-.4833985 0-.8649902.1655274-1.1447754.4965821-.2797852.3310546-.4196777.7851562-.4196777 1.3623046zm5.1210937.0263672c0-.8027343.2241211-1.4362793.6723633-1.9006347.4482422-.4643555 1.0561523-.6965332 1.8237305-.6965332.7294921 0 1.3015136.2233886 1.7160644.670166.4145508.4467773.6218262 1.064209.6218262 1.8522949 0 .7675781-.2211914 1.387207-.6635742 1.8588867s-1.0356446.7075196-1.7797852.7075196c-.7265625 0-1.3066406-.2285157-1.7402344-.6855469-.4335937-.4570313-.6503906-1.0590821-.6503906-1.8061524zm.8789063-.0263672c0 .5595704.1413574 1.0004883.4240722 1.322754.2827149.3222656.6628418.4833984 1.1403809.4833984.4921875 0 .8671875-.1574707 1.125-.4724121s.3867187-.7668457.3867187-1.3557129c0-.5917969-.1289062-1.0458984-.3867187-1.3623047-.2578125-.3164062-.6328125-.4746094-1.125-.4746094-.4833985 0-.8649902.1655274-1.1447754.4965821-.2797852.3310546-.4196777.7851562-.4196777 1.3623046zm9.5771484 2.4038086h-1.1733398l-2.0786133-2.3422851h-.0175782v2.3422851h-.8613281v-7.1938476h.8613281v4.5615234h.0175782l1.9731445-2.2280273h1.1074219l-2.1972656 2.3378906zm.7636719-6.5742187c0-.1523438.0520019-.2805176.1560058-.3845215s.2321778-.1560059.3845215-.1560059c.1552735 0 .286377.0512696.3933106.1538086.1069336.1025391.1604004.2314454.1604004.3867188 0 .1523437-.0534668.2790527-.1604004.3801269-.1069336.1010743-.2380371.1516114-.3933106.1516114-.1552734 0-.2841797-.0505371-.3867187-.1516114-.1025391-.1010742-.1538086-.2277832-.1538086-.3801269zm.1010742 6.5742187v-4.8603515h.8613281v4.8603515zm6.1132812 0h-.8569336v-2.7641601c0-.9990235-.364746-1.4985352-1.0942382-1.4985352-.3779297 0-.6884766.140625-.9316407.421875-.243164.28125-.3647461.6372071-.3647461 1.0678711v2.7729492h-.8613281v-4.8603515h.8613281v.8041992h.0175782c.3662109-.6123047.8979492-.918457 1.5952148-.918457.5332031 0 .9389649.1706543 1.2172852.5119629.2783203.3413085.4174804.838623.4174804 1.4919433zm6.1098633-.4086914c0 1.7988282-.8730469 2.6982422-2.6191406 2.6982422-.6035156 0-1.1279297-.1127929-1.5732422-.3383789v-.8305664c.5419922.3017578 1.0620117.4526367 1.5600586.4526367 1.1806641 0 1.7709961-.6210937 1.7709961-1.8632812v-.5141602h-.0175781c-.3691407.6123047-.9199219.9184571-1.6523438.9184571-.609375 0-1.0971679-.2182618-1.4633789-.6547852-.3662109-.4365234-.5493164-1.0151367-.5493164-1.7358398 0-.8291016.2021484-1.486084.6064453-1.9709473s.9433594-.7272949 1.6171875-.7272949c.647461 0 1.1279297.2578125 1.4414063.7734375h.0175781v-.6591797h.8613281zm-.8613281-2.4829101c.0029297-.375-.1230469-.6972656-.3779297-.9667969-.2548828-.2695312-.5683594-.4042969-.9404297-.4042969-.46875 0-.8334961.1721192-1.0942383.5163574-.2607421.3442383-.3911132.8166504-.3911132 1.4172364 0 .515625.1259765.9331054.3779296 1.2524414.2519532.3193359.5859375.4790039 1.0019532.4790039.4189453 0 .7617187-.1523438 1.0283203-.4570313.2666015-.3046875.3984375-.6914062.3955078-1.1601562zm1.6303711 2.8916015"/><path clip-path="url(#M)" d="m439 274v-23c0-2.2080078 1.7919922-4 4-4h3" fill="none" stroke="#00b2a1"/><path clip-path="url(#N)" d="m439 274v-5c0-2.2080078 1.7919922-4 4-4h3" fill="none" stroke="#00b2a1"/><path clip-path="url(#O)" d="m439 274v5c0 2.2080078 1.7919922 4 4 4h3" fill="none" stroke="#00b2a1"/><path clip-path="url(#P)" d="m439 274v23c0 2.2080078 1.7919922 4 4 4h3" fill="none" stroke="#00b2a1"/><path clip-path="url(#Q)" d="m426 274h13" fill="none" stroke="#00b2a1"/><path clip-path="url(#R)" d="m380.6098633 272.6630859c.6386719-.7089843 1.1601562-1.5351562 1.5644531-2.4785156l.6152344.1669922c-.1201172.2460938-.2416992.4833984-.3647461.7119141h1.6567383v.5449218l-.6459961.9404297h1.1206054v5.2998047c0 .5859375-.290039.881836-.8701171.8876953-.2519532.0058594-.5126954 0-.7822266-.0175781-.0175781-.1464844-.0498047-.3427734-.0966797-.5888672.28125.0292969.5332031.0439453.7558594.0439453.28125 0 .421875-.1376953.421875-.4130859v-1.4326172h-.7910156v1.6259766h-.5712891v-1.6259766h-.7822266c-.0498047 1.1044922-.290039 1.9482422-.7207031 2.53125-.1347656-.1523437-.2988281-.3017578-.4921875-.4482422.4335938-.6386719.6503906-1.4970703.6503906-2.5751953v-2.9882812c-.0820312.102539-.1640625.2021484-.2460937.2988281-.0996094-.1347656-.2402344-.2958985-.421875-.4833985zm4.21875 3.7441407h2.0742187v-1.265625h-1.0634765c-.1259766.336914-.2578125.6533203-.3955078.9492187-.1699219-.0996094-.3603516-.1875-.5712891-.2636719.328125-.703125.5888672-1.415039.7822266-2.1357421l.6064453.1669921c-.0703125.2373047-.1420899.4658204-.2153321.6855469h.8569336v-.9492187h.6503907v.9492187h1.5732421v.5976563h-1.5732421v1.265625h1.7841796v.5976562h-1.7841796v1.8457031h-.6503907v-1.8457031h-2.0742187zm.0878906-5.765625h3.9550781c-.0175781.5742187-.046875 1.1132812-.0878906 1.6171875-.0410156.7148437-.4189453 1.0722656-1.1337891 1.0722656-.2460937 0-.5478515-.0087891-.9052734-.0263672-.0351562-.2460937-.0761719-.4804687-.1230469-.703125.421875.0527344.7529297.0791016.9931641.0791016.3164062 0 .4892578-.1699219.5185547-.5097657.0292969-.2636718.0498047-.5742187.0615234-.9316406h-1.6655273c-.0205078.5830078-.1245117 1.0458985-.3120117 1.3886719-.2050782.3984375-.600586.7851562-1.1865235 1.1601562-.09375-.1464843-.234375-.3339843-.421875-.5625.4863281-.2636718.8232422-.5537109 1.0107422-.8701171.1582031-.2548829.2475586-.6269532.2680664-1.116211h-.9711914zm-3.4145508 1.9072265h1.2260742l.6416016-.9492187h-1.2480469c-.2021484.3427734-.4086914.6591797-.6196289.9492187zm1.6918946 3.2607422h.7910156v-1.1162109h-.7910156zm.7910156-2.7421875h-.7910156v1.1074219h.7910156zm-2.1357422 2.7421875h.7734375v-1.1162109h-.7734375zm0-1.6347656h.7734375v-1.1074219h-.7734375zm10.0283203.3251953h2.3994141c.0527343-.515625.0820312-1.2011719.0878906-2.0566406h-1.9775391v-.6328125h1.9819336c.0087891-.5214844.0131836-1.0458985.0131836-1.5732422h.694336c0 .5214844-.0043946 1.0458984-.0131836 1.5732422h2.2543945v2.6894531h1.0458984v.6328125h-3.2387695c.5302734 1.3388672 1.5629883 2.296875 3.0981445 2.8740234-.234375.2578125-.4365234.4921875-.6064453.703125-1.4033203-.7148437-2.3730469-1.7138671-2.9091797-2.9970703-.3603515 1.2978516-1.321289 2.3496094-2.8828125 3.1552735-.1171875-.1757813-.2841797-.3984375-.5009765-.6679688 1.6523437-.7851562 2.605957-1.8076172 2.8608398-3.0673828h-2.3071289zm4.7636719-2.0566406h-1.5864258c-.0087891.8173828-.0351562 1.5029297-.0791016 2.0566406h1.6655274zm-5.7128906 1.5996094c.2167968.1523437.4482421.2871093.6943359.4042968-.4863281 1.359375-.9052734 2.5898438-1.2568359 3.6914063l-.7119141-.3867188c.4628906-1.0605468.8876953-2.296875 1.2744141-3.7089843zm-.6064454-3.3134766c.5800782.5800781 1.0927735 1.1191406 1.538086 1.6171875l-.5976563.5449219c-.4746093-.609375-.9609375-1.1748047-1.4589843-1.6962891zm8.4550782.9755859h4.21875c-.2958985-.5625-.5273438-.9726562-.694336-1.2304687l.6855469-.3251953c.1640625.2519531.4101563.6621093.7382813 1.2304687l-.6416016.3251953h4.1660156v.6679688h-5.3305664c-.0205078.5332031-.0424805.9873047-.065918 1.3623047h4.2451172c-.0703125 1.2714843-.1464843 2.3759765-.2285156 3.3134765-.0644531 1.0605469-.5800781 1.5908203-1.546875 1.5908203-.4453125 0-1.0400391-.0234375-1.7841797-.0703125-.0292969-.2226562-.0732422-.4921875-.1318359-.8085937.7441406.0996094 1.3476562.1494141 1.8105469.1494141.5390625 0 .8408203-.319336.9052734-.9580079.0703125-.6972656.1318359-1.5498046.1845703-2.5576171h-3.5024414c-.1640625 1.9335937-1.059082 3.4335937-2.6850586 4.5-.1582031-.1875-.3369141-.3867188-.5361328-.5976563 1.546875-1.0195312 2.3759766-2.3847656 2.4873047-4.0957031.0410156-.4628906.074707-1.0722656.1010742-1.828125h-2.3950195zm9.3164062 3.4013672c1.4121094-.1611328 2.5122071-.347168 3.300293-.5581055-.703125-.1875-1.4135742-.3706054-2.1313477-.5493164.2402344-.2578125.46875-.5126953.6855469-.7646484h-2.0917969v-.5800781h2.5664063c.2226562-.28125.4277344-.5595703.6152344-.834961l.711914.2021485c-.1582031.2109375-.3266601.421875-.5053711.6328125h4.9086914v.5800781h-1.8896484c-.2783203.4951172-.6547852.8964844-1.1293945 1.2041016.8378906.2197265 1.6245117.430664 2.3598632.6328125l-.28125.5888672c-.9287109-.2929688-1.8735351-.572754-2.8344726-.8393555-.890625.3515625-2.2338867.6401367-4.0297852.8657226-.0703125-.1875-.1552734-.3808593-.2548828-.5800781zm8.296875 2.8388672c-.1992187.234375-.3691406.4541016-.5097656.6591797-1.546875-.4628906-2.7333984-1.0297852-3.5595703-1.7006836v1.9819336h-.6328125v-1.96875c-.8876953.6269531-2.0683594 1.1923828-3.5419922 1.6962891-.1347656-.1699219-.3046875-.3691407-.5097656-.5976563 1.5117187-.3779297 2.7084961-.84375 3.590332-1.3974609h-3.3881836v-.5888672h3.8496094v-.7207031h.6328125v.7207031h3.9023437v.5888672h-3.4233398c.9257812.6240234 2.1225586 1.0664062 3.590332 1.3271484zm-8.296875-6.9345703h3.6826172c-.1113281-.2021484-.2402344-.4101563-.3867187-.6240234l.6240234-.28125c.1904297.2988281.3706055.6005859.5405273.9052734h3.3530274v1.3271484h-.6679688v-.7470703h-6.477539v.7470703h-.6679688zm2.1708985 2.7070312c.7148437.1757813 1.4003906.347168 2.0566406.5141602.515625-.2285156.918457-.5610352 1.2084961-.9975586h-2.7993164c-.1494141.1611328-.3046875.3222656-.4658203.4833984zm6.2402343 3.9506836"/><path clip-path="url(#S)" d="m461.4069824 244.0393066-2.2412109 4.3022461v2.5048828h-.8833008v-2.4829101l-2.184082-4.3242188h1.0063476l1.472168 3.0146485c.0029297.0029297.0571289.1479492.1625977.4350586h.0131835c.0351563-.1230469.0952149-.2666016.1801758-.4306641l1.538086-3.019043zm4.3452149 4.5966797h-3.4013672c.0146484.5185547.1567383.9191895.4262695 1.2019043.2695313.2827149.6459961.4240723 1.1293945.4240723.5449219 0 1.0444336-.1743164 1.4985352-.5229492v.7690429c-.4277344.3017579-.9946289.4526368-1.7006836.4526368-.703125 0-1.251709-.2226563-1.6457519-.6679688-.394043-.4453125-.5910645-1.0634766-.5910645-1.8544922 0-.7441406.2160645-1.3579101.6481934-1.8413086.4321289-.4833984.9689941-.7250976 1.6105957-.7250976.6357421 0 1.1323242.2043457 1.4897461.6130371.3574218.4086914.5361328.9807129.5361328 1.7160644zm-.8613282-.6899414c-.0029296-.4394531-.1069336-.7792969-.3120117-1.0195312-.2050781-.2402344-.4936523-.3603516-.8657226-.3603516-.3427735 0-.6394043.1274414-.8898926.3823242s-.407959.5874024-.4724121.9975586zm1.5766602.5229492c0-.8027343.2241211-1.4362793.6723633-1.9006347.4482422-.4643555 1.0561523-.6965332 1.8237304-.6965332.7294922 0 1.3015137.2233886 1.7160645.670166.4145508.4467773.6218262 1.064209.6218262 1.8522949 0 .7675781-.2211914 1.387207-.6635742 1.8588867-.4423829.4716797-1.0356446.7075196-1.7797852.7075196-.7265625 0-1.3066406-.2285157-1.7402344-.6855469-.4335937-.4570313-.6503906-1.059082-.6503906-1.8061524zm.8789062-.0263671c0 .5595703.1413575 1.0004882.4240723 1.3227539.2827149.3222656.6628418.4833984 1.1403809.4833984.4921875 0 .8671875-.1574707 1.125-.4724121s.3867187-.7668457.3867187-1.3557129c0-.5917969-.1289062-1.0458984-.3867187-1.3623047-.2578125-.3164062-.6328125-.4746094-1.125-.4746094-.4833985 0-.8649903.1655274-1.1447754.4965821-.2797852.3310547-.4196778.7851562-.4196778 1.3623047zm12.4423829 2.4038085h-.8613282v-2.7905273c0-.5273437-.0820312-.904541-.2460937-1.1315918s-.4335938-.3405762-.8085938-.3405762c-.3164062 0-.5874023.1479493-.8129882.4438477-.225586.2958984-.338379.6459961-.338379 1.050293v2.7685546h-.8613281v-2.8784179c0-.9228516-.355957-1.3842774-1.0678711-1.3842774-.328125 0-.5998535.140625-.8151855.421875s-.3229981.6401368-.3229981 1.0766602v2.7641601h-.8613281v-4.8603515h.8613281v.769043h.0175782c.3457031-.5888672.8510742-.8833008 1.5161132-.8833008.3251954 0 .6123047.0893554.8613282.2680664.2490234.1787109.421875.4204101.5185547.7250976.3603515-.6621093.899414-.993164 1.6171875-.993164 1.0693359 0 1.6040039.6591797 1.6040039 1.977539zm1.118164-4.5219726c.4833985-.3017578 1.0415039-.4526367 1.6743164-.4526367 1.171875 0 1.7578125.6152343 1.7578125 1.8457031v3.1289062h-.852539v-.7514648h-.0219727c-.3369141.5771484-.8334961.8657227-1.4897461.8657227-.4716797 0-.8466797-.1274414-1.125-.3823243-.2783203-.2548828-.4174805-.5991211-.4174805-1.0327148 0-.9082031.5375977-1.4370117 1.612793-1.5864258l1.4414063-.2021484c0-.7939453-.328125-1.190918-.984375-1.190918-.5830078 0-1.1147461.1962891-1.5952149.5888672zm1.4414063 2.2368164c-.3984375.0527344-.6730957.1523437-.8239746.2988281s-.2263184.3515625-.2263184.6152344c0 .2314453.0820313.4204102.2460938.5668945.1640625.1464844.3808593.2197266.6503906.2197266.375 0 .684082-.1318359.9272461-.3955078.243164-.2636719.3647461-.5947266.3647461-.9931641v-.4658203zm7.5532226 2.2851562h-.8569336v-2.7641601c0-.9990234-.3647461-1.4985352-1.0942382-1.4985352-.3779297 0-.6884766.140625-.9316407.421875-.243164.28125-.3647461.6372071-.3647461 1.0678711v2.7729492h-.8613281v-4.8603515h.8613281v.8041992h.0175782c.3662109-.6123047.8979492-.918457 1.5952148-.918457.5332031 0 .9389648.1706543 1.2172852.5119629.2783203.3413086.4174804.838623.4174804 1.4919433zm.6679688 0"/><path clip-path="url(#T)" d="m459.6413574 262.8786621h-2.6279297v2.2763672h2.4345703v.7734375h-2.4345703v2.9750977h-.8789062v-6.807129h3.5068359zm3.0268555-.0395508h-.6547852v5.3217774h.6547852v.7426758h-2.1884766v-.7426758h.6547852v-5.3217774h-.6547852v-.7426758h2.1884766zm1.1499023 4.7856446c.2080078.1816406.4863282.3310546.834961.4482421s.6796875.1757813.993164.1757813c.9550782 0 1.4326172-.3398438 1.4326172-1.0195313 0-.1904296-.0512695-.3618164-.1538086-.5141601-.102539-.1523438-.243164-.2871094-.421875-.4042969-.1787109-.1171875-.5141601-.2973633-1.0063476-.5405273-.6826172-.3398438-1.1323242-.6555176-1.3491211-.9470215s-.3251953-.6247559-.3251953-.9997559c0-.5654297.2270507-1.0136718.6811523-1.3447265s1.0268555-.4965821 1.7182617-.4965821c.6767578 0 1.1733399.0820313 1.4897461.2460938v.9580078c-.4101562-.2841797-.9287109-.4262695-1.555664-.4262695-.4160157 0-.755127.0871582-1.017334.2614746-.2622071.1743164-.3933106.416748-.3933106.7272949 0 .2753906.0908203.4995117.272461.6723633.1816406.1728515.5756836.4086914 1.1821289.7075195.6679687.3193359 1.1352539.6386719 1.4018554.9580078.2666016.319336.3999024.6782227.3999024 1.0766602 0 .5976562-.2167969 1.0561523-.6503906 1.3754883-.4335938.3193359-1.0356446.4790039-1.8061524.4790039-.2695312 0-.5837402-.0373535-.9426269-.1120606-.3588868-.074707-.6203614-.1677246-.7844239-.2790527zm5.065918.140625c.4658203.3603515.9916992.5405273 1.5776367.5405273.46875 0 .8400879-.1149902 1.1140137-.3449707s.4108887-.5383301.4108887-.9250488c0-.8613282-.6166993-1.2919922-1.8500977-1.2919922h-.5668945v-.7119141h.5405273c1.0927735 0 1.6391602-.4042969 1.6391602-1.2128906 0-.7470703-.4174805-1.1206055-1.2524414-1.1206055-.4775391 0-.9272461.1611328-1.3491211.4833985v-.8129883c.4453125-.2578125.965332-.3867188 1.5600586-.3867188.5800781 0 1.0458984.1516114 1.3974609.454834.3515625.3032227.5273438.6965332.5273438 1.1799317 0 .890625-.4541016 1.4633789-1.3623047 1.7182617v.0175781c.4921875.0527344.8811035.2263184 1.166748.520752.2856446.2944336.4284668.6613769.4284668 1.10083 0 .6123047-.220459 1.1059571-.6613769 1.4809571-.440918.375-1.0275879.5625-1.7600098.5625-.6445313 0-1.1645508-.1201172-1.5600586-.3603516zm4.6494141 1.1381836"/><path clip-path="url(#U)" d="m464.4865723 280.2854004-1.9072266 6.8071289h-1.0239258l-1.3710937-4.9042969c-.0615235-.2226562-.0981446-.4570312-.1098633-.703125h-.0175781c-.0175782.2431641-.0585938.4746094-.1230469.694336l-1.3842774 4.9130859h-1.0151367l-1.9731445-6.8071289h.9711914l1.3886719 5.1416016c.0615234.2314453.0981445.4643554.1098633.6987304h.0263671c.0146485-.1757812.0629883-.4086914.1450196-.6987304l1.4721679-5.1416016h.8657227l1.40625 5.1811523c.046875.1699219.0849609.3867188.1142578.6503907h.0175781c.0146485-.1904297.0571289-.413086.1274414-.6679688l1.3359375-5.1635742zm4.6845703 4.5966797h-3.4013672c.0146484.5185547.1567383.9191894.4262695 1.2019043.2695313.2827148.6459961.4240722 1.1293946.4240722.5449218 0 1.0444335-.1743164 1.4985351-.5229492v.769043c-.4277344.3017578-.9946289.4526367-1.7006836.4526367-.703125 0-1.251709-.2226562-1.6457519-.6679687-.394043-.4453125-.5910645-1.0634766-.5910645-1.8544922 0-.7441407.2160645-1.3579102.6481934-1.8413086.4321289-.4833985.9689941-.7250977 1.6105957-.7250977.6357422 0 1.1323242.2043457 1.4897461.6130371.3574218.4086914.5361328.9807129.5361328 1.7160645zm-.8613281-.6899414c-.0029297-.4394532-.1069336-.7792969-.3120118-1.0195313-.2050781-.2402344-.4936523-.3603515-.8657226-.3603515-.3427735 0-.6394043.1274414-.8898926.3823242s-.407959.5874023-.4724121.9975586zm4.3935546-3.5595703c-.1611328-.084961-.3354492-.1274414-.5229492-.1274414-.5390625 0-.8085937.3339843-.8085937 1.0019531v.7250976h1.1381836v.7119141h-1.1381836v4.1484375h-.8525391v-4.1484375h-.8305664v-.7119141h.8305664v-.7646484c0-.5214844.1501465-.9309082.4504395-1.2282715.3002929-.2973633.6818847-.4460449 1.1447754-.4460449.2460937 0 .4423828.027832.5888671.0834961zm.5039063 6.4599609v-7.1938477h.8613281v7.1938477zm1.6791992-2.3774414c0-.8027344.2241211-1.4362793.6723633-1.9006348.4482422-.4643554 1.0561523-.6965332 1.8237305-.6965332.7294921 0 1.3015136.2233887 1.7160644.670166.4145508.4467774.6218262 1.064209.6218262 1.852295 0 .7675781-.2211914 1.387207-.6635742 1.8588867s-1.0356446.7075195-1.7797852.7075195c-.7265625 0-1.3066406-.2285156-1.7402344-.6855469-.4335937-.4570312-.6503906-1.059082-.6503906-1.8061523zm.8789063-.0263672c0 .5595703.1413574 1.0004883.4240722 1.3227539.2827149.3222656.6628418.4833984 1.1403809.4833984.4921875 0 .8671875-.1574707 1.125-.4724121s.3867187-.7668457.3867187-1.3557129c0-.5917968-.1289062-1.0458984-.3867187-1.3623046-.2578125-.3164063-.6328125-.4746094-1.125-.4746094-.4833985 0-.8649902.1655273-1.1447754.496582s-.4196777.7851563-.4196777 1.3623047zm11.6733398-2.456543-1.4501953 4.8603516h-.8964844l-.9667969-3.4101563c-.0410156-.1464843-.0673828-.3017578-.0791015-.4658203h-.0175781c-.0087891.1230469-.0424805.2753907-.1010743.4570313l-1.0458984 3.4189453h-.8701172l-1.4589844-4.8603516h.8964844l.9711914 3.6035157c.0292969.1083984.0512695.2563476.065918.4438476h.0351562c.0117188-.1611328.0395508-.3134765.0834961-.4570312l1.0458985-3.5903321h.7954101l1.0195313 3.6079102c.0292968.1054687.0527343.2548828.0703125.4482422h.0395508c.0058593-.1289063.0322265-.2783203.0791015-.4482422l.9492188-3.6079102zm.1098633 4.8603516"/><path clip-path="url(#V)" d="m458.496582 302.376709c0 .8232422-.1743164 1.4597168-.5229492 1.9094238s-.8232422.6745606-1.4238281.6745606c-.2783203 0-.5083008-.0410157-.6899414-.1230469v-.8569336c.1816406.1318359.4101562.1977539.6855469.1977539.7148437 0 1.0722656-.6005859 1.0722656-1.8017578v-4.3374024h.8789062zm2.1367188 2.4697265v-6.8071289h1.9423828c1.03125 0 1.888916.300293 2.572998.9008789.6840821.600586 1.0261231 1.40625 1.0261231 2.4169922 0 1.0546875-.342041 1.8999024-1.0261231 2.5356446-.684082.6357422-1.5651855.9536132-2.6433105.9536132zm.8789062-6.0249023v5.2470703h.9887696c.8642578 0 1.5388183-.2358398 2.0236816-.7075195s.7272949-1.1323242.7272949-1.9819336-.2490234-1.4882813-.7470703-1.9160156c-.4980469-.4277344-1.152832-.6416016-1.9643555-.6416016zm9.6279297 0h-2.6279297v2.2763672h2.4345703v.7734375h-2.4345703v2.9750976h-.8789062v-6.8071289h3.5068359zm.3955078 6.0249023"/><path clip-path="url(#W)" d="m238.4003906 338.7709961h6.5634766v4.4941406h-.9775391v-.6855469h-4.6083984v.6855469h-.9775391zm4.0878907-4.9511719-.1777344.2285156c.9140625 1.3457032 2.2428283 2.3994141 3.9863281 3.1611329-.2708282.3469848-.4908905.6559448-.6601562.9267578-.6432343-.3554688-1.21875-.7278443-1.7265625-1.1171875v.6728515h-4.5957032v-.571289c-.5078125.40625-1.049469.7998047-1.625 1.180664-.1438751-.1946411-.3639374-.4570312-.6601562-.7871093 1.8365936-1.1087342 3.2542267-2.340149 4.2529297-3.694336zm-8.8105469 3.4658203c.5247497-.2200317 1.0410156-.4485473 1.5488281-.6855468v-2.5136719h-1.5234375v-.8886719h1.5234375v-2.4628906h.9267578v2.4628906h1.4472656v.8886719h-1.4472656v2.0693359c.4739533-.2369995.9394531-.4824219 1.3964844-.7363281.0253906.4231567.0592499.7617187.1015625 1.015625-.2877655.1438599-.7871094.3977661-1.4980469.7617187v4.5195313c0 .8802185-.3596954 1.3372192-1.0791015 1.3710937-.3470002.0253907-.7321015.0338746-1.1552735.0253907-.0338592-.338562-.0846405-.6897583-.1523437-1.053711.4147186.0338745.7405548.0507813.977539.0507813.3216095.0084839.4824219-.173523.4824219-.5458985v-3.8974609c-.423172.2200317-.8971252.4655151-1.421875.7363281zm4.0625-5.1162109h1.7138672v-1.3710938h.9394531v1.3710938h2.640625v-1.3710938h.9394531v1.3710938h2.0185547v.8886719h-2.0185547v1.2695312h-.9394531v-1.2695312h-2.640625v1.2695312h-.9394531v-1.2695312h-1.7138672zm6.2460937 7.4648437h-4.6083984v2.0820313h4.6083984zm-2.2470703-4.875c-.5839844.7109375-1.2779846 1.4049378-2.0820312 2.0820313h4.024414c-.8209686-.6517029-1.4684295-1.3457031-1.9423828-2.0820313zm8.9248047 4.671875h3.25v-1.1044921h-2.8183594v-.7617188h2.8183594v-1.1044922h-2.640625v-.7617187h2.640625v-1.1044922h-3.3007812v-.7871094h3.3007812v-1.1044922h-2.640625v-.7617187h2.640625v-1.2441407h.9394531v1.2441407h2.9453125v1.8662109h1.3330078v.7871094h-1.3330078v2.2089844h-.9140625v-.3427735h-2.03125v1.1044922h3.1992188v.7617188h-3.1992188v1.1044921h3.7832032v.7617188h-3.7832032v1.3076172h-.9394531v-1.3076172h-3.25zm-2.9960937-2.1455078c.2539062 1.0325623.609375 1.881012 1.0664062 2.5454102.4528046-.9309998.7363281-2.0037232.8505859-3.2182617h-2.5390625v-.9267578l2.3359375-2.881836h-2.5898437v-.8632812h3.7578125v.8632812l-2.3867188 2.9453125h2.3740235v.7490235c-.1565705 1.5700073-.5395508 2.9304809-1.1489258 4.0815429.9225311.7998047 2.3549652 1.2039185 4.2973633 1.2124024 1.608078.0338745 3.4742737.0126953 5.5986328-.0634766-.1438599.3469849-.2835083.6813355-.4189453 1.0029297-1.9381714-.0084839-3.8128205-.0169067-5.6240235-.0253906-1.8873748 0-3.3346252-.440094-4.3417968-1.3203125-.4781952.6940307-1.0579377 1.2991333-1.7392578 1.8154297-.1354218-.2454224-.3089142-.5205079-.5205079-.8251954.6347657-.4824218 1.1679688-1.045227 1.5996094-1.6884765-.5670624-.7194214-1.0367889-1.7477112-1.4091797-3.084961zm7.1855468-1.586914h2.03125v-1.1044922h-2.03125zm2.03125-2.9960938h-2.03125v1.1044922h2.03125zm7.8330078 1.2060547h2.3486329l.3554687-1.5869141h-2.9960937v-.8886718h7.6552734v.8886718h-3.5546875l-.4189453 1.5869141h3.3388672v6.6269531h-.9902344v-5.7382812h-4.7480469v5.7382812h-.9902344zm-5.1796875 6.2207031c.6940308-.1523437 1.3330079-.300476 1.9169922-.4443359v-6.7412109h-1.7392578v-.9140625h4.3544922v.9140625h-1.625v6.5c.7024841-.1692505 1.3034058-.3215943 1.8027344-.4570313.0169067.4401245.0465698.7744141.0888672 1.0029297-2.03125.5078125-3.5377503.8971558-4.5195313 1.1679687zm8.0488282-4.5068359h.9902343v1.9677734c0 .8802185-.1184692 1.6546021-.3554687 2.3232422 1.4811401.7955933 2.8056641 1.5869141 3.9736328 2.3740235l-.6601562.9013671c-1.1679688-.8717651-2.4036255-1.6842346-3.7070313-2.4375-.0592651.0930787-.1184692.1819458-.1777344.2666016-.6855468.9394531-1.8916015 1.7180786-3.618164 2.3359375-.1692505-.2623901-.3808594-.5501099-.6347657-.8632812 1.6588745-.5585938 2.8056641-1.256836 3.4404297-2.0947266.4993286-.6432495.7490235-1.5911255.7490235-2.84375zm6.7792968-4.3291016h9.1914063v11.7558594h-1.0791016v-.9521484h-7.0332031v.9521484h-1.0791016zm1.0791016 7.4648438v2.399414h7.0332031v-2.399414zm0-3.2626953v2.3740234h7.0332031v-2.3740234zm0-3.2626953v2.3740234h7.0332031v-2.3740234zm10.2324219 10.0546875c3.1230469-.5839844 5.1331177-1.5107422 6.0302734-2.7802735h-5.8271484v-.9394531h6.296875c.2877807-.8802185.4189453-2.4163208.3935547-4.6083984h1.0664062c0 2.1751403-.1184692 3.7112426-.3554687 4.6083984h4.8115234v.9394531h-5.1669922c-.067688.135437-.1481323.2792969-.2412109.4316406 1.8112182.7617188 3.5842895 1.5488282 5.3193359 2.3613282l-.5585937.9648437c-1.8112183-.9225464-3.6012268-1.7815552-5.3701172-2.5771484-1.151062 1.1256714-3.080719 1.993164-5.7890625 2.602539-.1946411-.3723754-.3977661-.706726-.609375-1.0029296zm.4443359-9.788086h5.8144531c-.2116088-.3808594-.4951171-.8251953-.8505859-1.3330078l.9267578-.5205078c.2792969.3723755.6178589.8632812 1.015625 1.4726562l-.6982422.3808594h5.4335938v2.272461h-1.015625v-1.3330079h-9.6103516v1.3330079h-1.015625zm1.5615235 3.4277344c.9733276.4401245 1.8873596.9013672 2.7421875 1.3837891l-.5458985.8759765c-.8463745-.5162964-1.7392578-.9987182-2.6787109-1.4472656zm1.1425781-1.9423828c.981781.473938 1.8746643.9521484 2.6787109 1.4345703l-.571289.8632812c-.7871094-.5078125-1.6546021-1.0240783-2.6025391-1.5488281zm14.383789 7.8710937c1.3372498-.4274292 2.5305787-.9648437 3.5800782-1.6123047-.270813-.7532653-.4824219-1.654602-.6347657-2.7041015l-2.0185546.3300781-.1523438-.9140625 2.0629883-.3300781c-.067688-.613617-.1163941-1.271637-.1459961-1.9741211l-1.9169922.2348633-.1523437-.9013672 2.0185546-.241211c-.0507812-1.0114135-.0888671-2.0227661-.1142578-3.0341796h1.0029297c.0042114.9606323.0275269 1.9338989.0698242 2.9199218l3.9672852-.4824218.1142578.8886718-4.0307617.4951172c.029602.6982422.0761719 1.3457031.1396484 1.9423828l4.0942383-.6601562.1142578.9013672-4.1005859.6728515c.1311645.8971558.300476 1.6651917.5078125 2.3041993.8759765-.6390076 1.6334533-1.3689576 2.2724609-2.1899415l.7871094.6601563c-.7955933.9140625-1.6948242 1.7244263-2.6977539 2.4311523.3004761.6009217.65802 1.0177613 1.0727539 1.2504883.541687.3131714.8886719.1438904 1.0410156-.5078125.1100464-.541687.1989136-1.1425781.2666016-1.8027344.3808594.1692505.7024536.2919922.9648437.3681641-.1438598.9056091-.2919922 1.6123047-.4443359 2.1201172-.2285156.6855469-.6559143 1.0283203-1.2822266 1.0283203-.4316406 0-.8759765-.1692505-1.3330078-.5078125-.4231567-.3300781-.7892456-.7998047-1.0981445-1.4091797-1.0241089.6305542-2.1433716 1.1679688-3.3579102 1.6123047-.1692505-.270813-.368164-.5670776-.5966797-.8886719zm-4.5957031-.4316406c.2285156-.029602.4612427-.0613403.6982422-.0952148v-4.8813477h.8251953v4.7543945c.3723755-.0592651.7575073-.1227417 1.1552735-.1904296v-5.7573243h-.9394532v.3808594h-.8378906v-4.2783203h3.8847656v3.8974609h-1.2568359v2.0820313h1.5107422v.8125h-1.5107422v2.7167969c.4570312-.0803833.9309692-.1650391 1.421875-.2539063 0 .338562.0084839.6389771.0253906.9013672-1.6673279.2962036-3.2415161.5924683-4.7226562.8886719zm3.9482422-6.90625v-2.4248047h-2.2089844v2.4248047zm4.9511719-3.1230469.5458984-.6347656c.6517029.4231567 1.2949219.8759766 1.9296875 1.3583984l-.609375.7363282c-.5585937-.473938-1.180664-.9606324-1.8662109-1.459961zm3.9355469 10.0864258" fill="#303030"/></svg>