<svg height="315" viewBox="0 0 621 315" width="621" xmlns="http://www.w3.org/2000/svg" xmlns:xlink="http://www.w3.org/1999/xlink"><clipPath id="a"><path d="m14 14h593v287h-593z"/></clipPath><clipPath id="b"><path d="m14 14h593v287h-593z"/></clipPath><clipPath id="c"><path d="m14 14h593v287h-593z"/></clipPath><clipPath id="d"><path d="m14 14h593v287h-593z"/></clipPath><clipPath id="e"><path d="m45 143h149v29h-149z"/></clipPath><clipPath id="f"><path d="m266 21h148v22h-148z"/></clipPath><clipPath id="g"><path d="m254 58h353v199h-353z"/></clipPath><clipPath id="h"><path d="m254 58h353v199h-353z"/></clipPath><clipPath id="i"><path d="m254 58h353v199h-353z"/></clipPath><clipPath id="j"><path d="m266 132h122v22h-122z"/></clipPath><clipPath id="k"><path d="m417 58h158v73h-158z"/></clipPath><clipPath id="l"><path d="m417 58h158v73h-158z"/></clipPath><clipPath id="m"><path d="m417 58h158v73h-158z"/></clipPath><clipPath id="n"><path d="m417 58h158v73h-158z"/></clipPath><clipPath id="o"><path d="m417 58h158v73h-158z"/></clipPath><clipPath id="p"><path d="m425 86h42v17h-42z"/></clipPath><clipPath id="q"><path d="m500 59h54v17h-54z"/></clipPath><clipPath id="r"><path d="m500 77h56v17h-56z"/></clipPath><clipPath id="s"><path d="m500 95h47v17h-47z"/></clipPath><clipPath id="t"><path d="m500 113h27v17h-27z"/></clipPath><clipPath id="u"><path d="m417 130h190v127h-190z"/></clipPath><clipPath id="v"><path d="m417 130h190v127h-190z"/></clipPath><clipPath id="w"><path d="m417 130h190v127h-190z"/></clipPath><clipPath id="x"><path d="m417 130h190v127h-190z"/></clipPath><clipPath id="y"><path d="m417 130h190v127h-190z"/></clipPath><clipPath id="z"><path d="m417 130h190v127h-190z"/></clipPath><clipPath id="A"><path d="m417 130h190v127h-190z"/></clipPath><clipPath id="B"><path d="m417 130h190v127h-190z"/></clipPath><clipPath id="C"><path d="m425 185h42v17h-42z"/></clipPath><clipPath id="D"><path d="m500 131h60v17h-60z"/></clipPath><clipPath id="E"><path d="m500 149h33v17h-33z"/></clipPath><clipPath id="F"><path d="m500 167h28v17h-28z"/></clipPath><clipPath id="G"><path d="m500 185h30v17h-30z"/></clipPath><clipPath id="H"><path d="m500 203h57v17h-57z"/></clipPath><clipPath id="I"><path d="m500 221h99v17h-99z"/></clipPath><clipPath id="J"><path d="m500 239h41v17h-41z"/></clipPath><clipPath id="K"><path d="m266 272h148v22h-148z"/></clipPath><path d="m-485-485h1591v1285h-1591z" fill="#fff"/><path clip-path="url(#a)" d="m233 157v-117.0753784c0-4.4160004 3.5839996-8 8-8h14" fill="none" stroke="#017c98"/><path clip-path="url(#b)" d="m233 157v-6.1407013c0-4.4160004 3.5839996-8 8-8h14" fill="none" stroke="#00b2a1"/><path clip-path="url(#c)" d="m233 157v117.9246216c0 4.4160156 3.5839996 8 8 8h14" fill="none" stroke="#fd0"/><path clip-path="url(#d)" d="m223 157h10" fill="none" stroke="#808080"/><path clip-path="url(#e)" d="m54.7685547 161.8066406c1.8750076-1.3710937 3.4042892-2.9999847 4.5878906-4.8867187-1.0781288.5273437-2.2792892 1.0078125-3.6035156 1.4414062-.1875-.3632812-.4042969-.7558593-.6503906-1.1777343 1.7343826-.5039063 3.2812423-1.1367188 4.640625-1.8984375-.5039101-.4921875-1.1660118-1.0722657-1.9863282-1.7402344l.8085938-.8789063c.8554726.6679688 1.6113243 1.2949219 2.2675781 1.8808594 1.0898476-.6914062 2.1093712-1.6816406 3.0585938-2.9707031h-5.2558594c-.6796913.9492187-1.5996018 1.921875-2.7597656 2.9179687-.2460938-.3164062-.5332032-.6445312-.8613282-.984375 1.6875077-1.3710937 2.9824181-2.9648285 3.8847657-4.78125l1.2480468.4746094c-.1992187.3867188-.4160156.7617188-.6503906 1.125h5.8710938v1.265625c-1.0078125 1.9570465-2.7890511 3.6210938-5.34375 4.9921875l.9316406.3164063c-.1875.3046875-.3808594.6035156-.5800781.8964843h5.5722656v1.2832032c-1.5586014 3.574234-5.1093483 6.0058593-10.6523438 7.2949218-.2109375-.4453125-.421875-.8320312-.6328125-1.1601562 1.8632889-.3984375 3.6328049-1.0195313 5.3085938-1.8632813-.5039101-.5507812-1.1074181-1.1542968-1.8105469-1.8105468l.84375-.84375c.7617226.6796875 1.4589806 1.3359375 2.0917969 1.96875 1.4882889-1.0546875 2.6249962-2.2617188 3.4101562-3.6210938h-5.0449218c-1.0781289 1.3945313-2.3730393 2.6835938-3.8847657 3.8671875-.2226562-.328125-.4921875-.6972656-.8085937-1.1074219zm-6.1699219-.4394531c1.1836014-1.6875153 2.1269531-3.644516 2.8300781-5.8710937h-2.6015625v-1.2480469h2.7773438v-2.7597656c-.75.0585937-1.5527268.1171875-2.4082031.1757812-.0585938-.3984375-.1464844-.8261719-.2636719-1.2832031 2.3906402-.1289063 4.4765549-.3222656 6.2578125-.5800781l.3164062 1.3359375c-.7265625.0820312-1.5937423.1640625-2.6015625.2460937v2.8652344h2.4433594v1.2480469h-2.4433594v2.25l.5800782-.6503907c.7734451.609375 1.5410118 1.2480469 2.3027343 1.9160157l-.9316406 1.0371093c-.5976562-.5625-1.2480469-1.1660156-1.9511719-1.8105468v7.9628906h-1.3007812v-7.7519531c-.6328125 1.6640777-1.4296799 3.140625-2.390625 4.4296875-.1875-.5039063-.3925781-1.0078125-.6152344-1.5117188zm26.2265625-8.8945312h2.6191406c.0175782-1.1777344.0234375-2.3847657.0175782-3.6210938h1.4414062c-.0058594 1.2246094-.0205078 2.4316406-.0439453 3.6210938h4.7373047c-.0820313 4.4297027-.1992188 7.9980316-.3515625 10.7050781-.1289063 1.652359-.8964768 2.4902344-2.3027344 2.5136719-.7265625 0-1.5175781-.0175782-2.3730469-.0527344-.0820312-.4921875-.1757812-1.0078125-.28125-1.546875.8085938.1054687 1.546875.1640625 2.2148438.1757812.8671875 0 1.3183594-.4863281 1.3535156-1.4589843.1757813-2.9062653.28125-5.9062348.3164063-9h-3.3398438c-.0117187.5039062-.0234375 1.0019531-.0351562 1.4941406-.0585938 4.617218-1.4531098 8.2617035-4.1835938 10.9335937-.328125-.3984375-.6796875-.796875-1.0546875-1.1953125 2.449234-2.1797027 3.7265625-5.4374847 3.8320313-9.7734375.0117187-.4804687.0234375-.9667968.0351562-1.4589843h-2.6015625zm-1.7929687 6.0644531c.7382812 1.5937652 1.4179687 3.1757812 2.0390625 4.7460937-.515625.2226563-.9550782.4160157-1.3183594.5800782-.0820313-.2226563-.1640625-.4453125-.2460938-.6679688-2.2324371.2109375-4.2656173.421875-6.0996093.6328125l-.6152344-1.4238281c.515625-.2929688.9316406-.7675781 1.2480469-1.4238281.5742187-1.1542969 1.171875-2.6191254 1.7929687-4.3945313h-2.9707031v-1.3007812h8.4902344v1.3007812h-4.0429688c-1.0019531 2.496109-1.8691406 4.4355469-2.6015625 5.8183594 1.3476639-.0996094 2.7978439-.2314453 4.350586-.3955078-.3925782-.9960938-.8056641-1.9716797-1.2392579-2.9267578zm-5.4316407-8.1914063h7.0488282v1.3007813h-7.0488282zm23.2207032 5.1328125h11.3730468v1.1425782h-5.2734375l-.4833984 1.9160156h4.9306641v5.8359375c0 1.0078125-.4453125 1.5117187-1.3359375 1.5117187-.3046875 0-.7324219-.0058593-1.2832032-.0175781-.0820312-.4804687-.1992187-.9140625-.3515625-1.3007812.3984375.0351562.8027344.0527343 1.2128907.0527343.3515625 0 .5273437-.1816406.5273437-.5449218v-4.4472657h-1.8105469v5.5195313h-1.1777343v-5.5195313h-1.7402344v5.4140625h-1.1777344v-5.4140625h-1.7578125v6.4160157h-1.2304687v-7.5058594h3.9199218l.4042969-1.9160156h-4.7460937zm8.8417968-1.1425781v-.5449219h-7.9453125v-3.9550781h1.2304688v2.8652344h2.7246094v-3.9726563h1.265625v3.9726563h2.7246093v-2.8652344h1.2304688v4.5zm-9.3339843.5097656c-.2226563 1.7285309-.6386719 4.160141-1.2480469 7.2949219.6035156-.1289062 1.1601562-.2578125 1.6699219-.3867187-.0117188.4570312-.0058594.8730468.0175781 1.2480468-1.3242264.328125-3.2577973.75-5.8007813 1.265625l-.2636718-1.3183593c1.177742-.1933594 2.25-.3837891 3.2167968-.5712891.5742188-3.5214996.9609375-6.1083832 1.1601563-7.7607422zm-5.203125.2460938 1.1953125-.2636719c.3867187 1.6757965.7734375 3.7324066 1.1601562 6.1699219l-1.2128906.3164062c-.3164063-2.3437652-.6972656-4.4179535-1.1425781-6.2226562zm-.2285157-2.7597656h6.0292969v1.1425781h-6.0292969zm1.4414063-2.8652344 1.0722656-.6328125c.6914063.8554687 1.2832031 1.734375 1.7753906 2.6367187l-1.1601562.703125c-.421875-.8203125-.984375-1.7226562-1.6875-2.7070312zm16.2597656 14.4492187c.2929688-.0585937.5917969-.1142578.8964844-.1669922v-6.7939453h1.125v6.5742188c.4921875-.1054688.9960937-.2138672 1.5117187-.3251953v-8.006836h-1.3007812v.6152344h-1.125v-5.9941406h5.1152344v5.3789062h-1.5644532v3.1289063h1.7578125v1.0546875h-1.7578125v3.5683594c.6738282-.1523438 1.359375-.3164063 2.0566407-.4921875.0234375.46875.0585937.8964843.1054687 1.2832031-1.6171951.3398437-3.7499847.8730469-6.3984375 1.5996094zm5.8710938-8.1035156c1.5293045-1.0019531 2.7568283-2.2382812 3.6826172-3.7089844h-2.6806641v-1.1601562h3.3222656c.3398438-.6972656.6210938-1.4414063.84375-2.2324219l1.3183594.3164063c-.2050781.6679687-.4453125 1.3066406-.7207031 1.9160156h5.5898437v1.1601562h-3.2871094c1.0312577 1.6464997 2.3085862 2.71875 3.8320313 3.2167969-.3164063.4453125-.5976563.8613281-.84375 1.2480469-.7851639-.4160156-1.4941406-.9257813-2.1269531-1.5292969v1.0371094h-6.1875v-.834961c-.5742188.5566407-1.2011719 1.069336-1.8808594 1.538086-.234375-.3046875-.5214844-.6269531-.8613281-.9667969zm1.0019531 1.7929688h10.125v1.1601562h-6.9697266l-.6240234 1.5644531h6.2929687c-.0703125 1.125-.1523437 2.1621094-.2460937 3.1113282-.1523438 1.546875-1.0019455 2.3203125-2.5488281 2.3203125-.9609452 0-2.0507737-.0117188-3.2695313-.0351563-.0585937-.4335937-.140625-.9023437-.2460937-1.40625 1.2304763.09375 2.3085861.140625 3.234375.140625.9140701 0 1.4179687-.3984375 1.5117187-1.1953125.0703125-.5859375.1230469-1.1894531.1582031-1.8105469h-6.2050781v-1.1425781l.6064453-1.546875h-1.8193359zm2.0302734-2.6542969h5.8095703c-.8086013-.7910156-1.4912109-1.7402344-2.0478515-2.8476563h-1.6259766c-.5859375 1.0429688-1.2978439 1.9921875-2.1357422 2.8476563zm-3.805664-.7734375v-3.3398438h-2.8652344v3.3398438zm13.2363281 4.1660156h7.7871094v-7.3476562h-6.9960938v-1.3535157h15.5390625v1.3535157h-7.0664062v7.3476562h7.8398437v1.3535156h-7.8398437v6.46875h-1.4765625v-6.46875h-7.7871094zm10.6347656-1.7578125c1.2890625-1.359375 2.4492188-2.8593597 3.4804688-4.5l1.3183593.84375c-1.3242187 1.8164215-2.5605468 3.3398438-3.7089843 4.5703125zm-8.9472656-3.65625 1.1074219-.7734375c1.3125076 1.5351563 2.4433517 3.0175781 3.3925781 4.4472656l-1.2480469.9316407c-.9023514-1.4648438-1.9863205-2.9999848-3.2519531-4.6054688zm31.1132812 5.1679688v7.9804687h-1.4414062v-1.1601562h-9.6679688v1.1601562h-1.4414062v-7.9804687zm-2.5839843-6.9785157c1.8398437 1.7109528 3.5800781 3.4628754 5.2207031 5.2558594l-1.2480469 1.0371094c-.46875-.5507813-.9433594-1.0927735-1.4238281-1.6259766-5.2617493.2226563-9.2812348.413086-12.0585938.5712891-.6445312.046875-1.265625.140625-1.8632812.28125l-.5800781-1.5117188c.5390625-.1992187 1.0253906-.4746093 1.4589843-.8261718 2.0039215-1.6406403 3.8378907-3.5331879 5.5019532-5.6777344l1.3183593.8085937c-1.7578277 2.0625153-3.5917816 3.8964691-5.5019531 5.5019532 3.5918121-.1113282 7.1249848-.2402344 10.5996094-.3867188-.8027344-.8730469-1.6171875-1.7226562-2.4433594-2.5488281zm1.1425781 8.2792969h-9.6679688v4.2539063h9.6679688zm16.6201172 4.3857422h-1.9423828l-1.3886719-3.7265625h-5.6689453l-1.3095703 3.7265625h-1.9423828l5.1855468-13.6142578h1.8808594zm-3.8759766-5.2646484-2.0566406-5.6601563c-.0644531-.1816406-.1347656-.4980469-.2109375-.9492187h-.0439453c-.0644531.4101562-.1376953.7265625-.2197266.9492187l-2.0390625 5.6601563zm7.6025391.1757812v5.0888672h-1.7578125v-13.6142578h3.8671875c1.4707031 0 2.6118164.3544922 3.4233398 1.0634765.8115235.7089844 1.2172852 1.7226563 1.2172852 3.0410157 0 1.3359375-.4746094 2.418457-1.4238281 3.2475586-.9492188.8291015-2.1357422 1.2202148-3.5595704 1.1733398zm0-6.9785156v5.4316406h1.6259765c1.0722657 0 1.8867188-.2416992 2.4433594-.7250977.5566406-.4833984.834961-1.1762695.834961-2.0786132 0-1.7519684-1.0370942-2.6279297-3.1113282-2.6279297zm11.0126953 6.9785156v5.0888672h-1.7578125v-13.6142578h3.8671875c1.4707031 0 2.6118164.3544922 3.4233398 1.0634765.8115235.7089844 1.2172852 1.7226563 1.2172852 3.0410157 0 1.3359375-.4746094 2.418457-1.4238281 3.2475586-.9492188.8291015-2.1357422 1.2202148-3.5595703 1.1733398zm0-6.9785156v5.4316406h1.6259766c1.0722656 0 1.8867187-.2416992 2.4433593-.7250977.5566407-.4833984.834961-1.1762695.834961-2.0786132 0-1.7519684-1.0371094-2.6279297-3.1113282-2.6279297zm7.4970703 12.0673828" fill="#4c4c4c"/><path clip-path="url(#f)" d="m269.2880859 29.0737305h4.7670899c.1227417-1.036789.184082-2.1582032.184082-3.3642578h1.0917969c0 1.2568359-.0592651 2.3782501-.1777344 3.3642578h5.3955078c-.0507812 2.6152496-.1269531 4.7734298-.2285156 6.4746093-.0846558 1.5826874-.9225159 2.3740235-2.5136719 2.3740235-.6601562 0-1.4430237-.0211563-2.3486328-.0634766-.0338745-.3300781-.0973511-.7236328-.1904297-1.180664.7955933.1100235 1.5784302.165039 2.3486328.165039 1.015625 0 1.5488282-.4993439 1.5996094-1.4980469.1184693-1.6588592.1946411-3.4192581.2285156-5.28125h-4.430664c-.6220703 3.7324372-2.3613281 6.5084534-5.2177735 8.328125-.2369995-.2962265-.4951171-.609375-.774414-.9394531 2.6321716-1.55307 4.2592773-4.0159302 4.8813476-7.3886719h-4.6147461zm6.0302735 3.2753906.6982422-.6220703c.8125.7532577 1.5488281 1.4938125 2.2089843 2.2216797l-.7871093.7109375c-.6517029-.7701874-1.3583985-1.5403595-2.1201172-2.3105469zm-5.1289063-5.7890625.6855469-.6347656c.7024841.609375 1.3795471 1.235672 2.03125 1.8789062l-.7744141.7236328c-.6263122-.6855468-1.2737426-1.3414612-1.9423828-1.9677734zm15.475586 3.8720703h3.8339843v-4.5449219h1.0791016v4.5449219h3.7958984v1.015625h-3.7958984v6.7285156h-1.0791016v-6.7285156h-3.8339843zm-3.9228516 1.6757813c1.2610779-1.7434998 2.2512817-3.8255158 2.9707031-6.2460938l1.0791016.3046875c-.338562.981781-.6982422 1.8979492-1.0791016 2.7485352v9.2739257h-1.0410156v-7.1982421c-.4655151.8209686-.9563599 1.5615234-1.4726562 2.2216796-.1354371-.3639373-.2877808-.7320938-.4570313-1.1044921zm22.2929688.4443359c1.1425781 1.6165466 2.2258911 3.2499924 3.25 4.9003906l-1.015625.6347656c-.2285157-.3850936-.4548951-.7617187-.6791993-1.1298828-4.0202026.23275-6.5401916.3935547-7.5600586.4824219-.6686401.0592423-1.2018432.1354141-1.5996093.2285156l-.5205078-1.1171875c.5162963-.211586 1.015625-.5458984 1.4980468-1.0029297 2.2089844-2.2343826 4.1471253-4.7014846 5.8144532-7.4013671l1.1044921.5585937c-1.9381713 2.8945465-4.0159301 5.4462814-6.2333984 7.6552734 1.5784607-.0634765 3.8826294-.175621 6.9125977-.3364257-.647461-1.04525-1.271637-2.0164338-1.8725586-2.9135743zm-9.3310547-.1015625c2.3528747-1.8196716 4.3079223-4.0540161 5.8652343-6.703125l1.0410157.5205078c-1.7011719 2.8776169-3.7408753 5.2177658-6.1191407 7.0205078-.2116088-.2623749-.473938-.5416641-.7871093-.8378906zm14.1044922-3.9736328h3.1865234v-1.3837891h-3.7958984v-.8632812h11.7304687v.8632812h-3.8085937v1.3837891h3.1865234v3.7832031h-.9394531v-.4824219h-8.6201172v.4824219h-.9394531zm-1.053711 4.5449219h3.7895508c.2581177-.4020234.5014648-.8082657.7299805-1.21875l.977539.3935546c-.1862182.2792969-.3703003.5543595-.5522461.8251954h7.6616211v.8632812h-2.9326172c-.4866333.8590546-1.1171875 1.5826798-1.8916015 2.1708984 1.2568359.3766327 2.5771484.7786408 3.9609375 1.2060547l-.5585938.9902344c-1.421875-.4951172-2.9156799-1.005043-4.4814453-1.5297851-1.4811401.7701873-3.4192505 1.3054962-5.8144531 1.605957-.1523438-.3131561-.3173828-.6389923-.4951172-.9775391 2.0608826-.1861954 3.7281799-.5416641 5.0019531-1.0664062-1.0283203-.3427735-2.0862427-.6940079-3.1738281-1.053711.3512573-.4443359.6813354-.8928985.9902344-1.3457031h-3.2119141zm3.6689453 1.8027343c.9267578.2750702 1.8937073.5628205 2.9008789.8632813.8251953-.4993515 1.4620972-1.1002579 1.9106446-1.8027344h-4.1386719c-.2243042.3216171-.4485474.6347656-.6728516.9394531zm1.5107422-3.859375h2.2470703v-1.6757812h-2.2470703zm5.4335938-1.6757812h-2.2470703v1.6757812h2.2470703zm-8.6201172 1.6757812h2.2470703v-1.6757812h-2.2470703zm3.1865234-2.4882812h2.2470703v-1.3837891h-2.2470703zm7.8837891 2.8945312h3.3134765v-3.6943359h-2.7548828v-1.0029297h11.3876953v1.0029297h-2.5898437v3.6943359h3.1357422v1.0029297h-3.1357422v5.7890625h-1.0410156v-5.7890625h-3.9672852c-.029602 1.5488358-.25177 2.6998673-.6665039 3.453125-.4147339.8294296-1.3668518 1.6630783-2.8564453 2.5009766-.2200318-.3046875-.4612427-.6009064-.7236328-.8886719 1.2949219-.6601562 2.1582031-1.3499298 2.5898437-2.0693359.3850708-.5797577.5903321-1.5784455.6157227-2.9960938h-3.3071289zm4.3544922 0h3.9609375v-3.6943359h-3.9609375zm10.3085937-2.7548828h2.6850586c.2073364-.8844452.3829956-1.8492737.5268555-2.8945312l1.0791015.1396484c-.1438598.9606171-.319519 1.8789063-.5268554 2.7548828h7.0141601v.9394531h-7.2553711c-.1523437.5585938-.319519 1.0960236-.5014648 1.6123047h6.296875v.8759766c-.5585938 1.3837967-1.4282227 2.5792618-2.6088867 3.5864258 1.1891479.7194061 2.5750122 1.2250976 4.1577148 1.5170898-.3808594.4231796-.677063.7786408-.8886719 1.0664063-1.354187-.4485703-2.7167968-1.1044846-4.0878906-1.9677735-1.1002807.7236328-2.674469 1.4091797-4.7226562 2.0566407-.2369995-.3385468-.4909058-.6516877-.7617188-.9394532 2.0820313-.5416717 3.637207-1.1150665 4.6655274-1.7202148-1.1129761-.9521561-1.9064331-2.1518479-2.3803711-3.5991211-.9267578 2.3190231-2.1878052 4.2232971-3.7832032 5.7128906-.2285156-.3216171-.4528198-.609375-.6728515-.8632812 1.9085388-1.7223358 3.3113403-4.1682816 4.2084961-7.3378907h-3.5229492v-.9521484c.3469848-.8040466.6643676-1.6123047.9521484-2.4248047l1.0283203.2792969c-.2962036.7447967-.5966797 1.4641876-.9013672 2.1582031zm8.2011719 3.4277344h-4.5893555c.3808594 1.1722031 1.1362305 2.1814728 2.2661133 3.027832 1.0960388-.9056015 1.8704224-1.9148712 2.3232422-3.027832zm-1.9550781-5.4462891.5585937-.7109375c.8294373.5247498 1.625 1.070633 2.3867188 1.6376953l-.6855469.8251954c-.7363281-.6263123-1.489563-1.2102814-2.2597656-1.7519532zm4.9384765 10.0546875c.2116089-.0423202.4274292-.0825195.647461-.1206054v-4.9067383h.8125v4.7480469c.3554687-.0761719.7194213-.1544571 1.0917968-.2348633v-5.7827149h-.9394531v.444336h-.8125v-4.3291016h3.694336v3.8847656h-1.1298829v2.2597657h1.2695313v.7617187h-1.2695313v2.5771484c.4866333-.1100235.9817505-.2285156 1.4853516-.3554687.0169067.3385467.0422974.6474609.0761719.9267578-1.1679688.2454453-2.708313.6305313-4.6210938 1.1552734zm4.2402344-5.852539c1.1044922-.7236328 1.9910278-1.6165314 2.659668-2.678711h-1.9360352v-.8378906h2.3994141c.2454223-.5035858.4485473-1.0410156.609375-1.6123047l.9521484.2285156c-.1481323.4824219-.3215942.9436799-.5205078 1.3837891h4.0371094v.8378906h-2.3740235c.744812 1.1891327 1.6672974 1.9635392 2.7675782 2.3232422-.2285157.3216171-.4316407.6220703-.609375.9013672-.5670777-.3004608-1.0791016-.6686172-1.5361328-1.1044922v.7490235h-4.46875v-.6030274c-.4147339.4020233-.8674927.7722931-1.3583985 1.1108399-.1692505-.2200547-.3766479-.452797-.6220703-.6982422zm.7236328 1.2949218h7.3125v.8378907h-5.0336914l-.4506836 1.1298828h4.5449219c-.0507813.8125076-.1100464 1.5615234-.1777344 2.2470703-.1100464 1.1171951-.7236328 1.6757812-1.8408203 1.6757812-.6940308 0-1.4811096-.008461-2.3613281-.0253906-.0422974-.3131561-.1015625-.6516876-.1777344-1.015625.8886719.0677109 1.6672974.1015625 2.3359375.1015625.6601563 0 1.0241089-.2877579 1.0917969-.8632812.0507812-.4231797.0888672-.859047.1142578-1.3076172h-4.4814453v-.8251953l.4379883-1.1171875h-1.3139649zm1.4663086-1.9169921h4.1958008c-.5839844-.5712891-1.0769653-1.256836-1.4790039-2.0566407h-1.1743164c-.4231568.7532654-.9373169 1.438797-1.5424805 2.0566407zm-2.7485351-.5585938v-2.4121094h-2.069336v2.4121094zm9.5595703 3.0087891h5.6240234v-5.3066407h-5.0527344v-.977539h11.2226563v.977539h-5.1035156v5.3066407h5.6621093v.977539h-5.6621093v4.671875h-1.0664063v-4.671875h-5.6240234zm7.680664-1.2695313c.9309998-.9817734 1.7688599-2.0651016 2.5136719-3.25l.9521484.609375c-.9563903 1.3118591-1.8492736 2.4121018-2.6787109 3.3007813zm-6.461914-2.640625.7998047-.5585937c.947937 1.1087265 1.7646484 2.1793594 2.4501953 3.211914l-.9013672.6728516c-.6517029-1.0579453-1.4345703-2.1666641-2.3486328-3.3261719zm22.4707031 3.7324219v5.7636719h-1.0410156v-.8378907h-6.9824219v.8378907h-1.0410156v-5.7636719zm-1.8662109-5.0400391c1.3287963 1.2356873 2.5856018 2.500969 3.7705078 3.7958985l-.9013672.7490234c-.3385315-.397789-.681305-.7892227-1.0283203-1.1743164-3.8001404.1608047-6.703125.2983398-8.7089844.4125977-.4655151.0338516-.9140625.1015625-1.3457031.203125l-.4189453-1.0917969c.3893432-.1438828.7405395-.3427735 1.0537109-.5966797 1.4472656-1.184906 2.7717895-2.5517426 3.9736328-4.1005859l.9521484.5839843c-1.2695312 1.4895935-2.5940551 2.8141251-3.9736328 3.9736328 2.5940857-.0804061 5.145813-.1735 7.6552735-.2792968-.5797425-.630539-1.1679688-1.2441407-1.7646485-1.8408203zm.8251953 5.9794922h-6.9824219v3.0722656h6.9824219zm12.0034179 3.1674805h-1.402832l-1.0029297-2.6914063h-4.0942383l-.9458007 2.6914063h-1.4028321l3.7451172-9.8325195h1.3583984zm-2.7993164-3.8022461-1.4853515-4.0878906c-.0465393-.1311798-.0973206-.3596955-.1523438-.6855469h-.0317383c-.0465393.2962189-.0994568.5247345-.1586914.6855469l-1.4726562 4.0878906zm5.34375.1269531v3.675293h-1.2695312v-9.8325195h2.7929687c1.0621948 0 1.886322.2560119 2.4724121.7680664.5860901.5120544.8791504 1.2441406.8791504 2.196289 0 .9648514-.3427734 1.7466584-1.0283203 2.345459-.6855469.5988007-1.5424805.8812637-2.5708008.8474121zm0-5.040039v3.9228515h1.1743164c.7744141 0 1.3626404-.1745605 1.7646485-.5236816.402008-.3491211.6030273-.8495255.6030273-1.5012207 0-1.2653046-.7490234-1.8979492-2.2470703-1.8979492zm8 5.040039v3.675293h-1.2695312v-9.8325195h2.7929687c1.0621948 0 1.886322.2560119 2.4724121.7680664.5860901.5120544.8791504 1.2441406.8791504 2.196289 0 .9648514-.3427734 1.7466584-1.0283203 2.345459-.6855469.5988007-1.5424805.8812637-2.5708008.8474121zm0-5.040039v3.9228515h1.1743164c.7744141 0 1.3626404-.1745605 1.7646485-.5236816.402008-.3491211.6030273-.8495255.6030273-1.5012207 0-1.2653046-.7490234-1.8979492-2.2470703-1.8979492zm5.4145508 8.715332" fill="#303030"/><path clip-path="url(#g)" d="m410.9998474 142.9203949v-48.9203949h7.0001526" fill="none" stroke="#00b2a1"/><path clip-path="url(#h)" d="m410.9998474 142.9203949v50.0796051h7.0001526" fill="none" stroke="#00b2a1"/><path clip-path="url(#i)" d="m398 142.8557281 12.9998474.0646668" fill="none" stroke="#00b2a1"/><path clip-path="url(#j)" d="m275.7182617 138.3027344h5.0019531v10.4101562h-.9902343v-.9902343h-3.0214844v1.0917968h-.9902344zm-.5458984 9.1152344-.7871094.8378906c-.6474609-.6009217-1.2800903-1.1743164-1.8979492-1.7202149-.8209839 1.0748749-1.8217774 1.9868164-3.0024414 2.7358399-.1692505-.2708283-.3723755-.5712891-.609375-.9013672 1.151062-.6940155 2.1010742-1.5276642 2.8500976-2.5009766-.7532653-.6474609-1.4790039-1.2483673-2.1772461-1.8027343.3554688-1.1722107.6686402-2.3951722.9394532-3.6689454h-1.5615235v-.9648437h1.7583008c.1692505-.8548279.3195191-1.7307892.4506836-2.6279297l1.0664063.1523438c-.1438599.8632812-.2962037 1.6884765-.4570313 2.4755859h2.8056641v.9394531c-.2496949 2.3063202-.7426758 4.079422-1.4790039 5.319336.6643982.537445 1.3647461 1.1129455 2.1010742 1.7265625zm4.5576172-8.1757813h-3.0214844v7.5664063h3.0214844zm-6.1826172 1.1552734h-2.012207c-.270813 1.2102967-.5649415 2.3274689-.8823243 3.3515625.5120545.40625 1.053711.8399964 1.625 1.3012696.6686402-1.1637421 1.0917969-2.7146759 1.2695313-4.6528321zm12.8095703.0634766h4.3037109v5.0527344h-3.3896484v.6474609h-.9140625zm-.3554688-2.7167969h8.5185547v.9394532h-1.1171875v8.5947265c0 1.2526093-.5755005 1.8831329-1.7265625 1.8916016-.3977661.0084686-1.0706176.0042267-2.0185547-.0126953-.0507812-.3131562-.1184692-.6770783-.203125-1.0917969.7194214.0677032 1.3837891.1015625 1.9931641.1015625.6432495.016922.9648438-.3343048.9648438-1.0537109v-8.4296875h-6.4111329zm-4.1767578 5.2558594c1.2356873-1.8535309 2.1624146-3.9143829 2.7802735-6.1826172l1.015625.3046875c-.3215943.981781-.6601563 1.9000549-1.015625 2.7548828v9.4199219h-.9775391v-7.3632812c-.4231567.7871093-.8717651 1.5065002-1.3457031 2.1582031-.1269531-.3639374-.2792969-.7278595-.4570313-1.0917969zm7.921875-1.6376953h-2.4755859v3.25h2.4755859zm5.2177735 1.0410156h3.3134765v-3.6943359h-2.7548828v-1.0029297h11.3876953v1.0029297h-2.5898437v3.6943359h3.1357422v1.0029297h-3.1357422v5.7890625h-1.0410156v-5.7890625h-3.9672852c-.0296021 1.5488281-.25177 2.6998596-.6665039 3.453125-.4147339.8294373-1.3668518 1.6630859-2.8564453 2.5009766-.2200318-.3046875-.4612427-.6009064-.7236328-.8886719 1.2949218-.6601563 2.1582031-1.3499298 2.5898437-2.0693359.3850708-.5797577.5903321-1.5784455.6157227-2.9960938h-3.3071289zm4.3544922 0h3.9609375v-3.6943359h-3.9609375zm10.3085937-2.7548828h2.6850586c.2073364-.8844452.3829956-1.8492737.5268555-2.8945312l1.0791015.1396484c-.1438598.9606171-.319519 1.8789062-.5268554 2.7548828h7.0141601v.9394531h-7.2553711c-.1523437.5585938-.319519 1.0960236-.5014648 1.6123047h6.296875v.8759766c-.5585938 1.383789-1.4282227 2.5792541-2.6088867 3.5864258 1.1891479.7194061 2.5750122 1.2250976 4.1577148 1.5170898-.3808594.4231873-.677063.7786407-.8886719 1.0664063-1.354187-.4485779-2.7167968-1.1044922-4.0878906-1.9677735-1.1002808.7236328-2.674469 1.4091797-4.7226562 2.0566406-.2369996-.3385467-.4909058-.6516876-.7617188-.9394531 2.0820313-.5416717 3.637207-1.1150665 4.6655274-1.7202148-1.1129761-.9521485-1.9064332-2.1518555-2.3803711-3.5991211-.9267579 2.3190155-2.1878052 4.2232971-3.7832032 5.7128906-.2285156-.3216095-.4528198-.609375-.6728515-.8632812 1.9085388-1.7223359 3.3113403-4.168274 4.2084961-7.3378907h-3.5229493v-.9521484c.3469849-.8040466.6643677-1.6123047.9521485-2.4248047l1.0283203.2792969c-.2962036.7447967-.5966797 1.4641876-.9013672 2.1582031zm8.2011719 3.4277344h-4.5893555c.3808594 1.1722107 1.1362305 2.1814728 2.2661133 3.027832 1.0960388-.9056091 1.8704224-1.9148712 2.3232422-3.027832zm-1.9550781-5.4462891.5585937-.7109375c.8294373.5247498 1.625 1.0706329 2.3867188 1.6376953l-.6855469.8251953c-.7363281-.6263122-1.489563-1.2102813-2.2597656-1.7519531zm4.9384765 10.0546875c.2116089-.0423126.4274292-.0825195.647461-.1206055v-4.9067382h.8125v4.7480468c.3554687-.0761718.7194213-.1544647 1.0917968-.2348632v-5.7827149h-.9394531v.444336h-.8125v-4.3291016h3.6943359v3.8847656h-1.1298828v2.2597656h1.2695313v.7617188h-1.2695313v2.5771484c.4866333-.1100311.9817505-.2285156 1.4853516-.3554687.0169067.3385467.0422974.6474609.0761719.9267578-1.1679688.2454376-2.708313.6305237-4.6210938 1.1552734zm4.2402344-5.852539c1.1044922-.7236329 1.9910278-1.6165314 2.659668-2.678711h-1.9360352v-.8378906h2.3994141c.2454223-.5035858.4485473-1.0410156.609375-1.6123047l.9521484.2285156c-.1481323.4824219-.3215942.9436798-.5205078 1.3837891h4.0371094v.8378906h-2.3740235c.744812 1.1891327 1.6672974 1.9635468 2.7675782 2.3232422-.2285157.3216095-.4316407.6220703-.609375.9013672-.5670777-.3004608-1.0791016-.6686096-1.5361329-1.1044922v.7490234h-4.46875v-.6030273c-.4147338.4020233-.8674926.7722931-1.3583984 1.1108398-.1692505-.220047-.3766479-.4528045-.6220703-.6982421zm.7236328 1.2949218h7.3125v.8378907h-5.0336914l-.4506836 1.1298828h4.5449219c-.0507813.8125-.1100464 1.5615234-.1777344 2.2470703-.1100464 1.1171875-.7236328 1.6757812-1.8408203 1.6757812-.6940308 0-1.4811096-.0084686-2.3613281-.0253906-.0422974-.3131561-.1015625-.6516876-.1777344-1.015625.8886719.0677032 1.6672974.1015625 2.3359375.1015625.6601562 0 1.0241089-.2877502 1.0917969-.8632812.0507812-.4231873.0888672-.8590394.1142578-1.3076172h-4.4814453v-.8251953l.4379883-1.1171875h-1.3139649zm1.4663086-1.9169922h4.1958008c-.5839844-.571289-1.0769654-1.2568359-1.4790039-2.0566406h-1.1743164c-.4231568.7532654-.9373169 1.438797-1.5424805 2.0566406zm-2.7485352-.5585937v-2.4121094h-2.0693359v2.4121094zm9.5595704 3.0087891h5.6240234v-5.3066407h-5.0527344v-.977539h11.2226563v.977539h-5.1035157v5.3066407h5.6621094v.977539h-5.6621094v4.671875h-1.0664062v-4.671875h-5.6240234zm7.680664-1.2695313c.9309998-.981781 1.7688599-2.065094 2.5136719-3.25l.9521484.609375c-.9563903 1.3118591-1.8492737 2.4121094-2.6787109 3.3007813zm-6.461914-2.640625.7998046-.5585937c.9479371 1.1087341 1.7646485 2.1793518 2.4501954 3.211914l-.9013672.6728516c-.6517029-1.0579529-1.4345703-2.1666565-2.3486328-3.3261719zm22.4707031 3.7324219v5.7636719h-1.0410156v-.8378907h-6.9824219v.8378907h-1.0410156v-5.7636719zm-1.866211-5.0400391c1.3287964 1.2356873 2.5856019 2.5009766 3.7705079 3.7958985l-.9013672.7490234c-.338562-.3977814-.6813355-.7892304-1.0283203-1.1743164-3.8001709.1608124-6.703125.2983398-8.7089844.4125976-.4655152.0338593-.9140625.1015625-1.3457031.203125l-.4189454-1.0917968c.3893433-.1438752.7405396-.3427735 1.053711-.5966797 1.4472656-1.184906 2.7717895-2.5517578 3.9736328-4.100586l.9521484.5839844c-1.2695312 1.4895935-2.5940551 2.8141174-3.9736328 3.9736328 2.5940857-.0803985 5.145813-.1735077 7.6552735-.2792968-.579773-.630539-1.1679688-1.2441407-1.7646485-1.8408204zm.8251954 5.9794922h-6.9824219v3.0722656h6.9824219zm12.0034179 3.1674805h-1.402832l-1.0029297-2.6914063h-4.0942383l-.9458008 2.6914063h-1.402832l3.7451172-9.8325196h1.3583984zm-2.7993164-3.8022461-1.4853515-4.0878906c-.0465699-.1311799-.0973511-.3596955-.1523438-.6855469h-.0317383c-.0465698.2962188-.0994262.5247345-.1586914.6855469l-1.4726562 4.0878906zm5.34375.1269531v3.675293h-1.2695312v-9.8325196h2.7929687c1.0621948 0 1.8862915.256012 2.4724121.7680664.5860901.5120545.8791504 1.2441407.8791504 2.1962891 0 .9648438-.3427734 1.7466583-1.0283203 2.345459-.6855469.5988006-1.5424805.8812714-2.5708008.8474121zm0-5.0400391v3.9228516h1.1743164c.7744141 0 1.3626099-.1745605 1.7646485-.5236816.4020385-.3491211.6030273-.8495179.6030273-1.5012207 0-1.2653046-.7490234-1.8979493-2.2470703-1.8979493zm8 5.0400391v3.675293h-1.2695312v-9.8325196h2.7929687c1.0621948 0 1.886322.256012 2.4724121.7680664.5860901.5120545.8791504 1.2441407.8791504 2.1962891 0 .9648438-.3427734 1.7466583-1.0283203 2.345459-.6855469.5988006-1.5424805.8812714-2.5708008.8474121zm0-5.0400391v3.9228516h1.1743164c.7744141 0 1.3626404-.1745605 1.7646485-.5236816.402008-.3491211.6030273-.8495179.6030273-1.5012207 0-1.2653046-.7490234-1.8979493-2.2470703-1.8979493zm5.4145508 8.7153321" fill="#303030"/><path clip-path="url(#k)" d="m486 94v-23c0-2.2080002 1.7919922-4 4-4h3" fill="none" stroke="#00b2a1"/><path clip-path="url(#l)" d="m486 94v-5c0-2.2080002 1.7919922-4 4-4h3" fill="none" stroke="#00b2a1"/><path clip-path="url(#m)" d="m486 94v5c0 2.2080002 1.7919922 4 4 4h3" fill="none" stroke="#00b2a1"/><path clip-path="url(#n)" d="m486 94v23c0 2.2080002 1.7919922 4 4 4h3" fill="none" stroke="#00b2a1"/><path clip-path="url(#o)" d="m473 94h13" fill="none" stroke="#00b2a1"/><path clip-path="url(#p)" d="m427.6538086 94.0561523h2.2939453v-2.5576171h-1.9072266v-.694336h7.8837891v.694336h-1.7929687v2.5576171h2.1708984v.694336h-2.1708984v4.0078125h-.7207032v-4.0078125h-2.746582c-.0205078 1.0722656-.1743164 1.8691406-.4614258 2.390625-.2871094.5742187-.946289 1.1513672-1.977539 1.7314453-.1523438-.2109375-.319336-.4160156-.5009766-.6152344.8964844-.4570312 1.4941406-.9345703 1.7929687-1.4326172.2666016-.4013672.4086915-1.0927734.4262696-2.0742187h-2.2895508zm3.0146484 0h2.7421875v-2.5576171h-2.7421875zm7.1367188-1.9072265h1.8588867c.1435547-.6123047.2651367-1.2802735.3647461-2.0039063l.7470703.0966797c-.0996094.6650391-.2211914 1.3007813-.3647461 1.9072266h4.855957v.6503906h-5.0229492c-.1054687.3867188-.2211914.7587891-.3471679 1.1162109h4.359375v.6064454c-.3867188.9580078-.9887696 1.7856445-1.8061524 2.4829101.8232422.4980469 1.7827149.8481445 2.878418 1.050293-.2636719.2929687-.46875.5390625-.6152344.7382812-.9375-.3105468-1.8808594-.7646484-2.8300781-1.3623047-.7617188.5009766-1.8515625.975586-3.2695313 1.4238282-.1640625-.234375-.3398437-.4511719-.5273437-.6503907 1.4414062-.375 2.5180664-.7719726 3.2299805-1.1909179-.7705079-.6591797-1.3198243-1.4897461-1.6479493-2.4916992-.6416015 1.6054763-1.5146484 2.9238281-2.6191406 3.9550781-.1582031-.2226563-.3134766-.421875-.4658203-.5976563 1.3212891-1.1923904 2.2924805-2.8857269 2.9135742-5.0800781h-2.4389648v-.6591797c.2402343-.5566406.4599609-1.1162109.6591797-1.6787109l.711914.1933594c-.2050781.515625-.4130859 1.0136718-.6240234 1.4941406zm5.6777344 2.3730469h-3.1772461c.2636718.8115234.7866211 1.5102539 1.5688476 2.0961914.7587891-.6269532 1.2949219-1.3256836 1.6083985-2.0961914zm-1.3535157-3.7705079.3867188-.4921875c.5742187.3632813 1.125.741211 1.6523437 1.1337891l-.4746093.5712891c-.5097657-.4335938-1.03125-.8378907-1.5644532-1.2128907zm6.2314453 5.5107422h2.5444336c.038086-.2138672.0629883-.477539.0747071-.7910156h-1.3535157v.2460938h-.6328125v-3.1816407h4.7021485v3.1816407h-.6328125v-.2460938h-1.4765625c-.0175781.3222656-.0439453.5859375-.0791016.7910156h2.7597656v.5625h-2.4257812c.6357422.7119141 1.4765625 1.1455078 2.5224609 1.3007813-.1640625.2167969-.3076172.4365234-.430664.6591797-1.1337891-.3310547-2.0170899-.928711-2.6499024-1.7929688-.4189453.8408203-1.3813476 1.4560547-2.887207 1.8457031-.0996094-.2050781-.2138672-.4072265-.3427734-.6064453 1.3798828-.290039 2.2617187-.758789 2.6455078-1.40625h-2.3378907zm-2.7949218-.5976562c.5068359-.8496094.9096679-1.8339844 1.2084961-2.953125h-1.1030274v-.5800781h1.2216797v-1.9511719h.6152344v1.9511719h1.1425781v.5800781h-1.1425781v1.1601562l.3427734-.28125c.3339844.3574219.6445313.7177735.9316406 1.0810547l-.4833984.4042969c-.2695312-.3896484-.5332031-.7338867-.7910156-1.0327148v4.7592773h-.6152344v-4.7856445c-.3134766 1.0722656-.65625 1.8793945-1.0283203 2.4213867-.0820313-.2519531-.1816406-.5097656-.2988281-.7734375zm6.5390625-5.475586h.6152343v.84375h1.5117188v.5625h-1.5117188v.7119141h-.6152343v-.7119141h-1.5644532v.7119141h-.6152343v-.7119141h-1.3886719v-.5625h1.3886719v-.852539h.6152343v.852539h1.5644532zm.9580078 2.8916016h-3.4365235v.6591797h3.4365235zm-3.4365235 1.8457031h3.4365235v-.6591797h-3.4365235zm4.9833985-3.0761718h4.8867187c-.0234375-.5419922-.0410156-1.116211-.0527343-1.7226563h.7470703c-.0029297.5800781.0058593 1.1542969.0263672 1.7226563h3.0234375v.6591796h-2.9926758c.1142578 2.9531403.6079101 4.7460938 1.480957 5.3789063.3164063.2578125.5390625.1875.6679688-.2109375.0878906-.3046875.1669921-.7558594.2373046-1.3535156.2753907.0996093.5126954.1757812.7119141.2285156-.1113281.6855469-.2314453 1.2392578-.3603516 1.6611328-.140625.4042969-.4101562.6064453-.8085937.6064453-.4042969 0-.8056641-.2050781-1.2041016-.6152344-.8378906-.890625-1.3168945-2.7890472-1.4370117-5.6953125h-4.9262695zm.0351562 5.5722656c.6621094-.0791016 1.3417969-.1655274 2.0390625-.2592774v-2.465332h-1.7138672v-.6591797h4.1308594v.6591797h-1.696289v2.3642578c.6826171-.0966797 1.3828125-.1992187 2.1005859-.3076172-.0117188.2285157-.0175781.4658203-.0175781.7119141-1.7636719.2519531-3.319336.4833984-4.6669922.6943359zm6.2226563-6.7763672.421875-.4482422c.421875.3046875.8496094.6503906 1.2832031 1.0371094l-.5009766.5185547c-.375-.3808594-.7763671-.75-1.2041015-1.1074219zm2.6103515 7.0004883"/><path clip-path="url(#q)" d="m508.8442383 69.9389648h-1.0415039l-3.4233399-5.2954101c-.0966797-.1494141-.1743164-.2973633-.2329101-.4438477h-.0263672c.0234375.1523438.0351562.4702149.0351562.9536133v4.7856445h-.8701171v-6.8071289h1.1030273l3.3310547 5.203125c.1582031.2460938.2519531.4028321.28125.4702149h.0175781c-.0292969-.1933594-.0439453-.5244141-.0439453-.9931641v-4.6801758h.8701172zm1.4453125-4.5219726c.4833984-.3017578 1.0415039-.4526367 1.6743164-.4526367 1.171875 0 1.7578125.6152267 1.7578125 1.8457031v3.1289062h-.8525391v-.7514648h-.0219726c-.3369141.5771484-.8334961.8657227-1.4897461.8657227-.4716797 0-.8466797-.1274414-1.125-.3823243-.2783203-.2548828-.4174805-.5991211-.4174805-1.0327148 0-.9082108.5375977-1.4370117 1.612793-1.5864258l1.4414062-.2021484c0-.793953-.328125-1.190918-.984375-1.190918-.5830078 0-1.1147461.1962891-1.5952148.5888672zm1.4414062 2.2368164c-.3984375.0527344-.6730957.1523437-.8239746.2988281s-.2263183.3515625-.2263183.6152344c0 .2314453.0820312.4204102.2460937.5668945.1640625.1464844.3808594.2197266.6503906.2197266.375 0 .6840821-.1318359.9272461-.3955078.2431641-.2636719.3647461-.5947266.3647461-.9931641v-.4658203zm5.7778321 2.2368164c-.1875.1025391-.440918.1538086-.7602539.1538086-.8701172 0-1.3051758-.481926-1.3051758-1.4458008v-2.8081055h-.834961v-.711914h.834961v-1.1689453l.8569336-.272461v1.4414063h1.2084961v.711914h-1.2084961v2.6542969c0 .319336.0541992.5478516.1625976.6855469.1083985.1376953.2885742.206543.5405274.206543.1933593 0 .3618164-.0541993.5053711-.1625977zm.5610351-6.5258789c0-.1523438.052002-.2805176.1560059-.3845215s.2321777-.1560058.3845215-.1560058c.1552734 0 .2863769.0512695.3933105.1538085.1069336.1025391.1604004.2314454.1604004.3867188 0 .1523437-.0534668.2790527-.1604004.3801269-.1069336.1010743-.2380371.1516114-.3933105.1516114-.1552735 0-.2841797-.0505371-.3867188-.1516114-.102539-.1010742-.1538086-.2277832-.1538086-.3801269zm.1010742 6.5742187v-4.8603515h.8613282v4.8603515zm5.9199219-4.8603515-1.9248047 4.8603515h-.8701172l-1.828125-4.8603515h.9404297l1.1865235 3.4716797c.0966797.2783203.1538086.5112304.1713867.6987304h.0219726c.0292969-.2460937.0805664-.4731445.1538086-.6811523l1.2436524-3.4892578zm5.0439453 2.6499023h-3.4013672c.0146485.5185547.1567383.9191895.4262696 1.2019043.2695312.2827149.6459961.4240723 1.1293945.4240723.5449219 0 1.0444336-.1743164 1.4985352-.5229492v.7690429c-.4277344.3017579-.9946289.4526368-1.7006836.4526368-.703125 0-1.251709-.2226563-1.645752-.6679688s-.5910644-1.0634689-.5910644-1.8544922c0-.7441406.2160644-1.3579101.6481933-1.8413086.4321289-.4833984.9689942-.7250976 1.6105957-.7250976.6357422 0 1.1323242.2043457 1.4897461.6130371s.5361328.9807129.5361328 1.7160644zm-.8613281-.6899414c-.0029297-.4394531-.1069336-.7792969-.3120117-1.0195312-.2050781-.2402344-.4936524-.3603516-.8657227-.3603516-.3427734 0-.6394043.1274414-.8898926.3823242-.2504882.2548828-.4079589.5874024-.4724121.9975586zm10.3598633 2.9003906h-.9711914l-.694336-1.8632812h-2.8344726l-.6547852 1.8632812h-.9711914l2.5927735-6.8071289h.9404296zm-1.9379883-2.6323242-1.0283203-2.8300781c-.0322266-.0908203-.0673828-.2490234-.1054688-.4746094h-.0219726c-.0322266.2050782-.0688477.3632813-.1098633.4746094l-1.0195312 2.8300781zm3.3413086 1.9467774v2.9223633h-.8613281v-7.097168h.8613281v.8393555h.0175781c.3808594-.6357422.9375-.9536133 1.6699219-.9536133.6210937 0 1.1081543.2175293 1.4611816.6525879.3530274.4350586.5295411 1.0187988.5295411 1.7512207 0 .8086013-.1999512 1.4582519-.5998536 1.9489746-.3999023.4907226-.9382324.736084-1.6149902.736084-.6240234 0-1.105957-.2666016-1.4458008-.7998047zm-.0043945-1.3183594c0 .3955078.1274414.7287598.3823242.9997559.2548828.270996.5742187.4064941.9580078.4064941.4570312 0 .8144531-.1757813 1.0722656-.5273438s.3867188-.8378906.3867188-1.4589843c0-.5244141-.1201172-.9353028-.3603516-1.232666-.2402344-.2973633-.5683594-.446045-.984375-.446045-.4248047 0-.7734375.1508789-1.0458984.4526368-.272461.3017578-.4086914.6884765-.4086914 1.1601562zm6.0043945 1.3183594v2.9223633h-.8613281v-7.097168h.8613281v.8393555h.0175781c.3808594-.6357422.9375-.9536133 1.6699219-.9536133.6210937 0 1.1081543.2175293 1.4611816.6525879.3530274.4350586.5295411 1.0187988.5295411 1.7512207 0 .8086013-.1999512 1.4582519-.5998536 1.9489746-.3999023.4907226-.9382324.736084-1.6149902.736084-.6240234 0-1.105957-.2666016-1.4458008-.7998047zm-.0043945-1.3183594c0 .3955078.1274414.7287598.3823242.9997559.2548828.270996.5742187.4064941.9580078.4064941.4570312 0 .8144531-.1757813 1.0722656-.5273438s.3867188-.8378906.3867188-1.4589843c0-.5244141-.1201172-.9353028-.3603516-1.232666-.2402344-.2973633-.5683594-.446045-.984375-.446045-.4248047 0-.7734375.1508789-1.0458984.4526368-.272461.3017578-.4086914.6884765-.4086914 1.1601562zm4.1220703 2.0039062"/><path clip-path="url(#r)" d="m508.4882813 87.9521484h-.8789063v-3.0673828h-3.4453125v3.0673828h-.8789062v-6.8071289h.8789062v2.9575196h3.4453125v-2.9575196h.8789063zm5.6420898-4.8603515-2.2060547 5.5942383c-.4101562 1.037117-.9887695 1.555664-1.7358398 1.555664-.2138672 0-.3969727-.0234375-.5493164-.0703125v-.7558594c.1669921.0644532.328125.0966797.4833984.0966797.3896484 0 .6811523-.2285156.8745117-.6855468l.3735352-.8833008-1.9072266-4.8515625h.9536133l1.2700195 3.6518554.1054688.3999024h.0219726c.0175782-.0908203.0527344-.2211914.1054688-.3911133l1.3271484-3.6606445zm1.90625 4.1748047v.6855468h-.8613281v-7.1938476h.8613281v3.1728515h.0175781c.3808594-.6357421.9375-.9536132 1.6699219-.9536132.609375 0 1.0935059.2145996 1.4523926.6437988s.5383301 1.0158691.5383301 1.7600098c0 .8203201-.2014161 1.4729003-.6042481 1.9577636s-.9396973.727295-1.6105957.727295c-.6328125 0-1.1147461-.2666016-1.4458008-.7998047zm-.0043945-1.3139649c0 .3925781.1274414.7243653.3823242.9953613.2548828.2709961.5742187.4064942.9580078.4064942.4570312 0 .8144531-.1757813 1.0722656-.5273438s.3867188-.8378906.3867188-1.4589843c0-.5126953-.1201172-.9206543-.3603516-1.223877-.2402344-.3032226-.5683594-.454834-.984375-.454834-.421875 0-.7697754.1508789-1.0437012.4526367-.2739257.3017579-.4108886.6855469-.4108886 1.1513672zm7.7490234-2.0083008c-.1435547-.102539-.3413086-.1538086-.5932617-.1538086-.3339844 0-.609375.1560059-.8261719.4680176s-.3251953.7229004-.3251953 1.232666v2.4609375h-.8613281v-4.8603515h.8613281v.9887695h.0175781c.2460938-.7148437.6708985-1.0722656 1.2744141-1.0722656.196289 0 .347168.0219726.4526367.065918zm.2885742-2.5664062c0-.1523438.052002-.2805176.1560059-.3845215s.2321777-.1560059.3845215-.1560059c.1552734 0 .2863769.0512696.3933105.1538086.1069336.1025391.1604004.2314454.1604004.3867188 0 .1523437-.0534668.2790527-.1604004.3801269-.1069336.1010743-.2380371.1516114-.3933105.1516114-.1552735 0-.2841797-.0505371-.3867188-.1516114-.102539-.1010742-.1538086-.2277832-.1538086-.3801269zm.1010742 6.5742187v-4.8603515h.8613282v4.8603515zm6.2231446 0h-.8613282v-.8085937h-.0175781c-.3544922.6152344-.9052734.9228516-1.6523437.9228516-.6152344 0-1.1044922-.2189942-1.4677735-.6569825-.3632812-.4379883-.5449218-1.0290527-.5449218-1.7731933 0-.802742.2050781-1.4465332.6152343-1.9313965.4101563-.4848633.9462891-.7272949 1.6083985-.7272949.6621093 0 1.1425781.2578125 1.4414062.7734375h.0175781v-2.9926758h.8613282zm-.8569336-2.8916015c0-.3896485-.1281739-.7155762-.3845215-.9777832-.2563477-.2622071-.5720215-.3933106-.9470215-.3933106-.4570312 0-.8173828.1706543-1.0810547.5119629s-.3955078.8063965-.3955078 1.3952637c0 .5419922.126709.970459.380127 1.2854004.2534179.3149414.5910644.4724121 1.0129394.4724121.4160156 0 .7558594-.154541 1.0195313-.4636231.2636718-.309082.3955078-.6936035.3955078-1.1535644zm11.0961914 2.8916015h-.9711914l-.694336-1.8632812h-2.8344726l-.6547852 1.8632812h-.9711914l2.5927735-6.8071289h.9404296zm-1.9379883-2.6323242-1.0283203-2.8300781c-.0322266-.0908203-.0673828-.2490234-.1054688-.4746094h-.0219726c-.0322266.2050781-.0688477.3632813-.1098633.4746094l-1.0195312 2.8300781zm3.3413086 1.9467774v2.9223632h-.8613281v-7.0971679h.8613281v.8393554h.0175781c.3808594-.6357421.9375-.9536132 1.6699219-.9536132.6210937 0 1.1081543.2175293 1.4611816.6525879.3530274.4350585.5295411 1.0187988.5295411 1.7512207 0 .8086013-.1999512 1.4582519-.5998536 1.9489746-.3999023.4907226-.9382324.736084-1.6149902.736084-.6240234 0-1.105957-.2666016-1.4458008-.7998047zm-.0043945-1.3183594c0 .3955078.1274414.7287598.3823242.9997558.2548828.2709961.5742187.4064942.9580078.4064942.4570312 0 .8144531-.1757813 1.0722656-.5273438s.3867188-.8378906.3867188-1.4589843c0-.5244141-.1201172-.9353028-.3603516-1.2326661-.2402344-.2973632-.5683594-.4460449-.984375-.4460449-.4248047 0-.7734375.1508789-1.0458984.4526367-.272461.3017579-.4086914.6884766-.4086914 1.1601563zm6.0043945 1.3183594v2.9223632h-.8613281v-7.0971679h.8613281v.8393554h.0175781c.3808594-.6357421.9375-.9536132 1.6699219-.9536132.6210937 0 1.1081543.2175293 1.4611816.6525879.3530274.4350585.5295411 1.0187988.5295411 1.7512207 0 .8086013-.1999512 1.4582519-.5998536 1.9489746-.3999023.4907226-.9382324.736084-1.6149902.736084-.6240234 0-1.105957-.2666016-1.4458008-.7998047zm-.0043945-1.3183594c0 .3955078.1274414.7287598.3823242.9997558.2548828.2709961.5742187.4064942.9580078.4064942.4570312 0 .8144531-.1757813 1.0722656-.5273438s.3867188-.8378906.3867188-1.4589843c0-.5244141-.1201172-.9353028-.3603516-1.2326661-.2402344-.2973632-.5683594-.4460449-.984375-.4460449-.4248047 0-.7734375.1508789-1.0458984.4526367-.272461.3017579-.4086914.6884766-.4086914 1.1601563zm4.1220703 2.0039062"/><path clip-path="url(#s)" d="m511.8303223 99.1713867-1.9072266 6.8071289h-1.0239258l-1.3710937-4.9042968c-.0615235-.2226563-.0981446-.4570313-.1098633-.703125h-.0175781c-.0175782.243164-.0585938.4746093-.1230469.6943359l-1.3842774 4.9130859h-1.0151367l-1.9731445-6.8071289h.9711914l1.3886719 5.1416016c.0615234.2314453.0981445.4643555.1098633.6987305h.0263671c.0146485-.1757813.0629883-.4086915.1450196-.6987305l1.4721679-5.1416016h.8657227l1.40625 5.1811524c.046875.1699218.0849609.3867187.1142578.6503906h.0175781c.0146485-.1904297.0571289-.4130859.1274414-.6679688l1.3359375-5.1635742zm4.6845703 4.5966797h-3.4013672c.0146484.5185547.1567383.9191895.4262695 1.2019043.2695313.2827148.6459961.4240723 1.1293946.4240723.5449218 0 1.0444335-.1743164 1.4985351-.5229492v.7690429c-.4277344.3017578-.9946289.4526367-1.7006836.4526367-.703125 0-1.251709-.2226562-1.6457519-.6679687-.394043-.4453125-.5910645-1.0634766-.5910645-1.8544922 0-.7441406.2160645-1.3579102.6481934-1.8413086s.9689941-.7250976 1.6105957-.7250976c.6357422 0 1.1323242.2043457 1.4897461.6130371.3574218.4086914.5361328.9807129.5361328 1.7160644zm-.8613281-.6899414c-.0029297-.4394531-.1069336-.7792969-.3120118-1.0195312-.2050781-.2402344-.4936523-.3603516-.8657226-.3603516-.3427735 0-.6394043.1274414-.8898926.3823242s-.407959.5874024-.4724121.9975586zm2.7631835 2.2148438v.6855468h-.8613281v-7.1938476h.8613281v3.1728515h.0175782c.3808593-.6357422.9375-.9536132 1.6699218-.9536132.609375 0 1.0935059.2145996 1.4523926.6437988s.5383301 1.0158691.5383301 1.7600097c0 .8203125-.201416 1.4729004-.604248 1.9577637-.4028321.4848633-.9396973.7272949-1.6105957.7272949-.6328125 0-1.1147461-.2666015-1.4458008-.7998046zm-.0043945-1.3139649c0 .3925781.1274414.7243652.3823242.9953613s.5742188.4064942.9580078.4064942c.4570313 0 .8144532-.1757813 1.0722657-.5273438s.3867187-.8378906.3867187-1.4589843c0-.5126954-.1201172-.9206543-.3603515-1.223877-.2402344-.3032227-.5683594-.454834-.984375-.454834-.421875 0-.7697754.1508789-1.0437012.4526367s-.4108887.6855469-.4108887 1.1513672zm13.6010742 1.9995117h-.9711914l-.6943359-1.8632812h-2.8344727l-.6547851 1.8632812h-.9711914l2.5927734-6.8071289h.9404297zm-1.9379882-2.6323242-1.0283204-2.8300781c-.0322265-.0908203-.0673828-.2490235-.1054687-.4746094h-.0219727c-.0322265.2050781-.0688476.3632813-.1098632.4746094l-1.0195313 2.8300781zm3.3413085 1.9467774v2.9223632h-.8613281v-7.0971679h.8613281v.8393554h.0175782c.3808593-.6357422.9375-.9536132 1.6699218-.9536132.6210938 0 1.1081543.2175292 1.4611817.6525878.3530273.4350586.529541 1.0187989.529541 1.7512207 0 .8085938-.1999512 1.458252-.5998535 1.9489747-.3999024.4907226-.9382324.7360839-1.6149902.7360839-.6240235 0-1.1059571-.2666015-1.4458008-.7998046zm-.0043945-1.3183594c0 .3955078.1274414.7287597.3823242.9997558s.5742188.4064942.9580078.4064942c.4570313 0 .8144532-.1757813 1.0722657-.5273438s.3867187-.8378906.3867187-1.4589843c0-.5244141-.1201172-.9353028-.3603515-1.2326661-.2402344-.2973632-.5683594-.4460449-.984375-.4460449-.4248047 0-.7734375.1508789-1.0458985.4526367-.2724609.3017578-.4086914.6884766-.4086914 1.1601563zm6.0043945 1.3183594v2.9223632h-.8613281v-7.0971679h.8613281v.8393554h.0175782c.3808593-.6357422.9375-.9536132 1.6699218-.9536132.6210938 0 1.1081543.2175292 1.4611817.6525878.3530273.4350586.529541 1.0187989.529541 1.7512207 0 .8085938-.1999512 1.458252-.5998535 1.9489747-.3999024.4907226-.9382324.7360839-1.6149902.7360839-.6240235 0-1.1059571-.2666015-1.4458008-.7998046zm-.0043945-1.3183594c0 .3955078.1274414.7287597.3823242.9997558s.5742188.4064942.9580078.4064942c.4570313 0 .8144532-.1757813 1.0722657-.5273438s.3867187-.8378906.3867187-1.4589843c0-.5244141-.1201172-.9353028-.3603515-1.2326661-.2402344-.2973632-.5683594-.4460449-.984375-.4460449-.4248047 0-.7734375.1508789-1.0458985.4526367-.2724609.3017578-.4086914.6884766-.4086914 1.1601563zm4.1220703 2.0039062"/><path clip-path="url(#t)" d="m503.704834 122.3591309v2.5444336h-.8789063v-6.807129h1.9335938c.7353515 0 1.3059082.1772461 1.7116699.5317383s.6086426.8613282.6086426 1.5205078c0 .6679688-.2373047 1.2092286-.7119141 1.6237793-.4746094.4145508-1.0678711.6101075-1.7797851.58667zm0-3.4892579v2.7158204h.8129883c.5361328 0 .9433593-.1208496 1.2216797-.3625489.2783203-.2416992.4174804-.5881347.4174804-1.0393066 0-.8759766-.5185547-1.3139649-1.555664-1.3139649zm13.2861328-.7734375-1.9072266 6.807129h-1.0239257l-1.3710938-4.9042969c-.0615234-.2226563-.0981445-.4570313-.1098633-.703125h-.0175781c-.0175781.243164-.0585938.4746094-.1230469.6943359l-1.3842773 4.913086h-1.0151367l-1.9731446-6.807129h.9711914l1.3886719 5.1416016c.0615234.2314453.0981445.4643555.1098633.6987305h.0263672c.0146484-.1757813.0629883-.4086914.1450195-.6987305l1.472168-5.1416016h.8657226l1.40625 5.1811524c.046875.1699219.084961.3867187.1142578.6503906h.0175782c.0146484-.1904297.0571289-.4130859.1274414-.6679687l1.3359375-5.1635743zm6.1831055 6.807129h-.9711914l-.694336-1.8632813h-2.8344726l-.6547852 1.8632813h-.9711914l2.5927734-6.807129h.9404297zm-1.9379883-2.6323243-1.0283203-2.8300781c-.0322266-.0908203-.0673828-.2490234-.1054688-.4746094h-.0219726c-.0322266.2050782-.0688477.3632813-.1098633.4746094l-1.0195313 2.8300781zm2.043457 2.6323243"/><g fill="none"><path clip-path="url(#u)" d="m486 193v-50c0-2.2080078 1.7919922-4 4-4h3" stroke="#00b2a1"/><path clip-path="url(#v)" d="m486 193v-32c0-2.2079926 1.7919922-4 4-4h3" stroke="#00b2a1"/><path clip-path="url(#w)" d="m486 193v-14c0-2.2080078 1.7919922-4 4-4h3" stroke="#00b2a1"/><path clip-path="url(#x)" d="m486 193h4 3" stroke="#00b2a1"/><path clip-path="url(#y)" d="m486 193v14c0 2.2080078 1.7919922 4 4 4h3" stroke="#00b2a1"/><path clip-path="url(#z)" d="m486 193v32c0 2.2080078 1.7919922 4 4 4h3" stroke="#00b2a1"/><path clip-path="url(#A)" d="m486 193v50c0 2.2080078 1.7919922 4 4 4h3" stroke="#00b2a1"/><path clip-path="url(#B)" d="m473 193h13" stroke="#00b2a1"/></g><path clip-path="url(#C)" d="m427.6494141 193.0561523h2.2939453v-2.5576171h-1.9072266v-.694336h7.8837891v.694336h-1.7929688v2.5576171h2.1708985v.694336h-2.1708985v4.0078125h-.7207031v-4.0078125h-2.746582c-.0205078 1.0722656-.1743164 1.8691406-.4614258 2.390625-.2871094.5742187-.9462891 1.1513672-1.9775391 1.7314453-.1523437-.2109375-.3193359-.4160156-.5009765-.6152344.8964843-.4570312 1.4941406-.9345703 1.7929687-1.4326172.2666016-.4013672.4086914-1.0927734.4262695-2.0742187h-2.2895507zm3.0146484 0h2.7421875v-2.5576171h-2.7421875zm7.1367188-1.9072265h1.8588867c.1435547-.6123047.2651367-1.2802735.3647461-2.0039063l.7470703.0966797c-.0996094.6650391-.2211914 1.3007813-.3647461 1.9072266h4.855957v.6503906h-5.0229492c-.1054688.3867188-.2211914.7587891-.347168 1.1162109h4.359375v.6064454c-.3867187.9580078-.9887695 1.7856445-1.8061523 2.4829101.8232422.4980469 1.7827148.8481445 2.878418 1.050293-.2636719.2929687-.46875.5390625-.6152344.7382812-.9375-.3105468-1.8808594-.7646484-2.8300781-1.3623047-.7617188.5009766-1.8515625.975586-3.2695313 1.4238282-.1640625-.234375-.3398437-.4511719-.5273437-.6503907 1.4414062-.375 2.5180664-.7719726 3.2299804-1.1909179-.7705078-.6591797-1.3198242-1.4897461-1.6479492-2.4916992-.6416016 1.6054687-1.5146484 2.9238281-2.6191406 3.9550781-.1582031-.2226563-.3134766-.421875-.4658203-.5976563 1.321289-1.1923828 2.2924804-2.8857269 2.9135742-5.0800781h-2.4389649v-.6591797c.2402344-.5566406.459961-1.1162109.6591797-1.6787109l.7119141.1933594c-.2050781.515625-.4130859 1.0136718-.6240234 1.4941406zm5.6777343 2.3730469h-3.1772461c.2636719.8115234.7866211 1.5102539 1.5688477 2.0961914.7587891-.6269532 1.2949219-1.3256836 1.6083984-2.0961914zm-1.3535156-3.7705079.3867188-.4921875c.5742187.3632813 1.125.741211 1.6523437 1.1337891l-.4746094.5712891c-.5097656-.4335938-1.03125-.8378907-1.5644531-1.2128907zm6.8291016-.0527343h5.1855468v.6328125h-4.5263671v6.4863281h4.649414v.6328125h-5.3085937zm-3.3574219 4.9746093c.6181641-.9785156 1.059082-2.0390625 1.3227539-3.1816406h-1.2612305v-.6152344h1.265625v-1.7138671h.6503907v1.7138671h1.0986328v.6152344h-1.0986328v1.4018555l.3867187-.355957c.2519531.2578125.5566406.5947265.9140625 1.0107421l-.4833984.4482422c-.2402344-.3222656-.5126953-.6591797-.8173828-1.0107422v4.8427735h-.6503907v-4.706543c-.3017578.984375-.6503906 1.7592774-1.0458984 2.324707-.0761719-.2519531-.1699219-.5097656-.28125-.7734375zm4.3154297.4570313h1.7841797v-1.3535156h-1.40625v-.5976563h1.40625v-1.265625h-1.5644532v-.5976562h3.8144532v.5976562h-1.5996094v1.265625h1.40625v.5976563h-1.40625v1.3535156h1.7841797v.5976562h-4.21875zm13.4384765 1.6435547c-.2167968.2402344-.3984375.4628906-.5449218.6679687-1.4589844-.4980468-2.625-1.2758789-3.4980469-2.3334961v2.7465821h-.6679688v-2.7597657c-.984375 1.0722657-2.1621093 1.8896485-3.5332031 2.4521485-.1347656-.1757813-.3046875-.375-.5097656-.5976563 1.3330078-.4541015 2.5136719-1.1220703 3.5419922-2.0039062h-3.3837891v-.6152344h3.8847656v-.984375h.6679688v.984375h3.9287109v.6152344h-3.4584961c.9462891.9169922 2.1372071 1.5263672 3.5727539 1.828125zm-3.8320312-6.8730469h3.1992187v3.4628906h-.6503906v-.4482422h-1.8984375v.4746094h-.6503906zm-4.6494141.2373047h1.265625c.0175782-.3046875.0263672-.6416016.0263672-1.0107422h.6503906c0 .3662109-.0073242.703125-.0219726 1.0107422h1.9731445c-.0292969.8085937-.0615234 1.4619141-.0966797 1.9599609-.0351562.5332032-.1376953.890625-.3076172 1.0722657-.1523437.1816406-.4453125.2724609-.8789062.2724609-.1757813 0-.4042969-.0029297-.6855469-.0087891-.0410156-.234375-.0908203-.4541015-.149414-.6591797.3457031.0351563.6123046.0527344.7998046.0527344.3398438 0 .5244141-.1845703.553711-.5537109.046875-.5800781.0791015-1.0927735.0966797-1.538086h-1.3491211c-.0498047 1.2304688-.5991211 2.2763672-1.6479492 3.1376954-.1347657-.1582032-.3046875-.319336-.5097657-.4833985.9082032-.6796875 1.40625-1.5644531 1.4941407-2.6542969h-1.2128907zm7.1982422.3603516h-1.8984375v1.8193359h1.8984375zm1.40625 6.1479492"/><path clip-path="url(#D)" d="m508.0454102 143.0002441h-1.0371094l-1.1293945-1.8896484c-.225586-.3779297-.432129-.6350098-.619629-.7712402-.1875-.1362305-.411621-.2043457-.6723632-.2043457h-.6328125v2.8652343h-.8789063v-6.8071289h2.0742188c.6621093 0 1.180664.159668 1.555664.4790039.375.319336.5625.7661133.5625 1.3403321 0 .9433593-.5039062 1.555664-1.5117187 1.836914v.0219727c.1875.0791016.3493652.1918945.4855957.3383789.1362304.1464844.3127441.3969727.529541.7514648zm-4.0913086-6.0380859v2.4038086h1.0371093c.4013672 0 .727295-.1171875.9777832-.3515625.2504883-.234375.3757325-.5419922.3757325-.9228516 0-.3544922-.1142578-.6313476-.3427735-.8305664-.2285156-.1992187-.5610351-.2988281-.9975586-.2988281zm8.9707031 3.8276367h-3.4013672c.0146484.5185547.1567383.9191895.4262695 1.2019043.2695313.2827149.6459961.4240723 1.1293946.4240723.5449218 0 1.0444336-.1743164 1.4985351-.5229492v.7690429c-.4277344.3017578-.9946289.4526368-1.7006836.4526368-.703125 0-1.251709-.2226563-1.6457519-.6679688-.394043-.4453125-.5910645-1.0634766-.5910645-1.8544922 0-.7441406.2160645-1.3579101.6481934-1.8413086.4321289-.4833984.9689941-.7250976 1.6105957-.7250976.6357422 0 1.1323242.2043457 1.4897461.6130371s.5361328.9807129.5361328 1.7160644zm-.8613281-.6899414c-.0029297-.4394531-.1069336-.7792969-.3120118-1.0195312-.2050781-.2402344-.4936523-.3603516-.8657226-.3603516-.3427734 0-.6394043.1274414-.8898926.3823242s-.407959.5874024-.4724121.9975586zm2.0161132-1.621582c.4833985-.3017578 1.041504-.4526367 1.6743165-.4526367 1.171875 0 1.7578125.6152343 1.7578125 1.8457031v3.1289062h-.8525391v-.7514648h-.0219727c-.336914.5771484-.8334961.8657227-1.4897461.8657227-.4716796 0-.8466796-.1274415-1.125-.3823243-.2783203-.2548828-.4174804-.5991211-.4174804-1.0327148 0-.9082031.5375976-1.4370117 1.6127929-1.5864258l1.4414063-.2021484c0-.7939453-.328125-1.190918-.984375-1.190918-.5830078 0-1.1147461.1962891-1.5952149.5888672zm1.4414063 2.2368164c-.3984375.0527344-.6730957.1523437-.8239746.2988281s-.2263184.3515625-.2263184.6152344c0 .2314453.0820313.4204101.2460938.5668945s.3808594.2197266.6503906.2197266c.375 0 .684082-.131836.9272461-.3955078.2431641-.2636719.3647461-.5947266.3647461-.9931641v-.4658203zm6.8017578 2.0654297c-.3720703.2226562-.8203125.3339844-1.3447266.3339844-.703125 0-1.2685546-.225586-1.696289-.6767579-.4277344-.4511718-.6416016-1.0356445-.6416016-1.7534179 0-.796875.2307129-1.439209.6921387-1.927002.4614258-.4877929 1.0788574-.7316894 1.8522949-.7316894.4453125 0 .8261719.0791015 1.1425781.2373047v.852539c-.3427734-.2519531-.7236328-.3779297-1.1425781-.3779297-.4921875 0-.8928223.1706543-1.2019043.5119629s-.463623.7961426-.463623 1.364502c0 .5595703.1457519.9975586.4372558 1.3139648.2915039.3164063.6848145.4746094 1.1799317.4746094.4189453 0 .8144531-.1376953 1.1865234-.4130859zm3.9760742.1713867c-.1875.1025391-.4409179.1538086-.7602539.1538086-.8701172 0-1.3051758-.4819336-1.3051758-1.4458008v-2.8081055h-.8349609v-.711914h.8349609v-1.1689453l.8569336-.272461v1.4414063h1.2084961v.711914h-1.2084961v2.6542969c0 .319336.0541993.5478516.1625977.6855469s.2885742.206543.5405273.206543c.1933594 0 .3618164-.0541993.5053711-.1625977zm9.3354492.0483398h-1.0415039l-3.4233398-5.2954101c-.0966797-.1494141-.1743164-.2973633-.2329102-.4438477h-.0263671c.0234375.1523438.0351562.4702149.0351562.9536133v4.7856445h-.8701172v-6.8071289h1.1030274l3.3310546 5.203125c.1582032.2460938.2519532.4028321.28125.4702149h.0175782c-.0292969-.1933594-.0439453-.5244141-.0439453-.9931641v-4.6801758h.8701171zm1.4453125-4.5219726c.4833985-.3017578 1.041504-.4526367 1.6743165-.4526367 1.171875 0 1.7578125.6152343 1.7578125 1.8457031v3.1289062h-.8525391v-.7514648h-.0219727c-.336914.5771484-.8334961.8657227-1.4897461.8657227-.4716796 0-.8466796-.1274415-1.125-.3823243-.2783203-.2548828-.4174804-.5991211-.4174804-1.0327148 0-.9082031.5375976-1.4370117 1.6127929-1.5864258l1.4414063-.2021484c0-.7939453-.328125-1.190918-.984375-1.190918-.5830078 0-1.1147461.1962891-1.5952149.5888672zm1.4414063 2.2368164c-.3984375.0527344-.6730957.1523437-.8239746.2988281s-.2263184.3515625-.2263184.6152344c0 .2314453.0820313.4204101.2460938.5668945s.3808594.2197266.6503906.2197266c.375 0 .684082-.131836.9272461-.3955078.2431641-.2636719.3647461-.5947266.3647461-.9931641v-.4658203zm5.777832 2.2368164c-.1875.1025391-.4409179.1538086-.7602539.1538086-.8701172 0-1.3051758-.4819336-1.3051758-1.4458008v-2.8081055h-.8349609v-.711914h.8349609v-1.1689453l.8569336-.272461v1.4414063h1.2084961v.711914h-1.2084961v2.6542969c0 .319336.0541993.5478516.1625977.6855469s.2885742.206543.5405273.206543c.1933594 0 .3618164-.0541993.5053711-.1625977zm.5610352-6.5258789c0-.1523438.0520019-.2805176.1560058-.3845215s.2321778-.1560059.3845215-.1560059c.1552735 0 .286377.0512696.3933106.1538086.1069336.1025391.1604004.2314454.1604004.3867188 0 .1523437-.0534668.2790527-.1604004.3801269-.1069336.1010743-.2380371.1516114-.3933106.1516114-.1552734 0-.2841797-.0505371-.3867187-.1516114-.1025391-.1010742-.1538086-.2277832-.1538086-.3801269zm.1010742 6.5742187v-4.8603515h.8613281v4.8603515zm5.9199219-4.8603515-1.9248047 4.8603515h-.8701172l-1.828125-4.8603515h.9404297l1.1865234 3.4716797c.0966797.2783203.1538086.5112304.1713867.6987304h.0219727c.0292969-.2460937.0805664-.4731445.1538086-.6811523l1.2436523-3.4892578zm5.0439453 2.6499023h-3.4013672c.0146484.5185547.1567383.9191895.4262695 1.2019043.2695313.2827149.6459961.4240723 1.1293946.4240723.5449218 0 1.0444336-.1743164 1.4985351-.5229492v.7690429c-.4277344.3017578-.9946289.4526368-1.7006836.4526368-.703125 0-1.251709-.2226563-1.6457519-.6679688-.394043-.4453125-.5910645-1.0634766-.5910645-1.8544922 0-.7441406.2160645-1.3579101.6481934-1.8413086.4321289-.4833984.9689941-.7250976 1.6105957-.7250976.6357422 0 1.1323242.2043457 1.4897461.6130371s.5361328.9807129.5361328 1.7160644zm-.8613281-.6899414c-.0029297-.4394531-.1069336-.7792969-.3120118-1.0195312-.2050781-.2402344-.4936523-.3603516-.8657226-.3603516-.3427734 0-.6394043.1274414-.8898926.3823242s-.407959.5874024-.4724121.9975586zm1.2392578 2.9003906"/><path clip-path="url(#E)" d="m506.2587891 155.0148926h-2.6279297v2.2763672h2.4345703v.7734375h-2.4345703v2.9750976h-.8789063v-6.8071289h3.506836zm1.3789062 6.0249023v-7.1938476h.8613281v7.1938476zm6.0166016 0h-.8657227v-.7646484h-.0175781c-.3251953.5859375-.824707.8789062-1.4985352.8789062-1.1513671 0-1.7270507-.6884765-1.7270507-2.0654297v-2.9091796h.852539v2.7817382c0 .9873047.3779297 1.4809571 1.1337891 1.4809571.375 0 .6782226-.1384278.909668-.4152832.2314453-.2768555.3471679-.6262207.3471679-1.0480957v-2.7993164h.8657227zm4.321289-.0483398c-.1875.102539-.4409179.1538086-.7602539.1538086-.8701172 0-1.3051757-.4819336-1.3051757-1.4458008v-2.8081055h-.834961v-.711914h.834961v-1.1689454l.8569335-.2724609v1.4414063h1.2084961v.711914h-1.2084961v2.6542969c0 .3193359.0541993.5478516.1625977.6855469s.2885742.2065429.5405273.2065429c.1933594 0 .3618165-.0541992.5053711-.1625976zm3 0c-.1875.102539-.4409179.1538086-.7602539.1538086-.8701172 0-1.3051757-.4819336-1.3051757-1.4458008v-2.8081055h-.834961v-.711914h.834961v-1.1689454l.8569335-.2724609v1.4414063h1.2084961v.711914h-1.2084961v2.6542969c0 .3193359.0541993.5478516.1625977.6855469s.2885742.2065429.5405273.2065429c.1933594 0 .3618165-.0541992.5053711-.1625976zm4.6259766-2.1621094h-3.4013672c.0146485.5185547.1567383.9191895.4262695 1.2019043.2695313.2827148.6459961.4240723 1.1293946.4240723.5449219 0 1.0444336-.1743164 1.4985351-.5229493v.769043c-.4277343.3017578-.9946289.4526367-1.7006836.4526367-.703125 0-1.2517089-.2226562-1.6457519-.6679687s-.5910645-1.0634766-.5910645-1.8544922c0-.7441406.2160645-1.3579102.6481934-1.8413086s.9689941-.7250977 1.6105957-.7250977c.6357422 0 1.1323242.2043458 1.4897461.6130372s.5361328.9807128.5361328 1.7160644zm-.8613281-.6899414c-.0029297-.4394531-.1069336-.7792969-.3120117-1.0195313-.2050782-.2402343-.4936524-.3603515-.8657227-.3603515-.3427734 0-.6394043.1274414-.8898926.3823242s-.407959.5874023-.4724121.9975586zm4.5078125-1.1074219c-.1435547-.102539-.3413086-.1538086-.5932617-.1538086-.3339844 0-.609375.1560059-.8261719.4680176s-.3251953.7229004-.3251953 1.232666v2.4609375h-.8613282v-4.8603515h.8613282v.9887695h.0175781c.2460937-.7148438.6708984-1.0722656 1.2744141-1.0722656.196289 0 .3471679.0219726.4526367.0659179zm.0615234 4.0078125"/><path clip-path="url(#F)" d="m505.2351074 172.935791h-.6547851v5.3217774h.6547851v.7426757h-2.1884765v-.7426757h.6547851v-5.3217774h-.6547851v-.7426758h2.1884765zm1.03125 3.6870117c0-.8027343.2241211-1.4362793.6723633-1.9006347.4482422-.4643555 1.0561523-.6965332 1.8237305-.6965332.7294922 0 1.3015136.2233886 1.7160644.670166.4145508.4467773.6218262 1.064209.6218262 1.8522949 0 .7675781-.2211914 1.387207-.6635742 1.8588867s-1.0356446.7075196-1.7797852.7075196c-.7265625 0-1.3066406-.2285157-1.7402344-.6855469-.4335937-.4570313-.6503906-1.0590821-.6503906-1.8061524zm.8789063-.0263672c0 .5595704.1413574 1.0004883.4240722 1.322754.2827149.3222656.6628418.4833984 1.1403809.4833984.4921875 0 .8671875-.1574707 1.125-.4724121s.3867187-.7668457.3867187-1.3557129c0-.5917969-.1289062-1.0458984-.3867187-1.3623047-.2578125-.3164062-.6328125-.4746094-1.125-.4746094-.4833984 0-.8649902.1655274-1.1447754.4965821-.2797851.3310546-.4196777.7851562-.4196777 1.3623046zm9.5551758 2.4038086h-.8569336v-2.7641601c0-.9990235-.3647461-1.4985352-1.0942383-1.4985352-.3779297 0-.6884766.140625-.9316406.421875-.2431641.28125-.3647461.6372071-.3647461 1.0678711v2.7729492h-.8613282v-4.8603515h.8613282v.8041992h.0175781c.3662109-.6123047.8979492-.918457 1.5952148-.918457.5332032 0 .9389649.1706543 1.2172852.5119629s.4174805.838623.4174805 1.4919433zm1.7856445-6.5742187c0-.1523438.0520019-.2805176.1560058-.3845215.104004-.1040039.2321778-.1560059.3845215-.1560059.1552735 0 .286377.0512696.3933106.1538086.1069336.1025391.1604004.2314454.1604004.3867188 0 .1523437-.0534668.2790527-.1604004.3801269-.1069336.1010743-.2380371.1516114-.3933106.1516114-.1552734 0-.2841797-.0505371-.3867187-.1516114-.1025391-.1010742-.1538086-.2277832-.1538086-.3801269zm.1010742 6.5742187v-4.8603515h.8613281v4.8603515zm5.3618164-.2197265c-.3720703.2226562-.8203125.3339844-1.3447266.3339844-.703125 0-1.2685546-.225586-1.696289-.6767579-.4277344-.4511718-.6416016-1.0356445-.6416016-1.7534179 0-.796875.2307129-1.439209.6921387-1.927002.4614258-.4877929 1.0788574-.7316894 1.8522949-.7316894.4453125 0 .8261719.0791015 1.1425781.2373047v.852539c-.3427734-.2519531-.7236328-.3779297-1.1425781-.3779297-.4921875 0-.8928222.1706543-1.2019043.5119629-.309082.3413086-.463623.7961426-.463623 1.364502 0 .5595703.1457519.9975586.4372558 1.3139648.2915039.3164063.6848145.4746094 1.1799317.4746094.4189453 0 .8144531-.1376953 1.1865234-.4130859zm.3867188.2197265"/><path clip-path="url(#G)" d="m511.7609863 190.0393066-1.9072265 6.8071289h-1.0239258l-1.3710938-4.9042968c-.0615234-.2226563-.0981445-.4570313-.1098632-.703125h-.0175782c-.0175781.243164-.0585937.4746093-.1230468.6943359l-1.3842774 4.9130859h-1.0151367l-1.9731445-6.8071289h.9711914l1.3886718 5.1416016c.0615235.2314453.0981446.4643555.1098633.6987305h.0263672c.0146484-.1757813.0629883-.4086914.1450195-.6987305l1.472168-5.1416016h.8657227l1.40625 5.1811524c.046875.1699219.0849609.3867187.1142578.6503906h.0175781c.0146484-.1904297.0571289-.4130859.1274414-.6679687l1.3359375-5.1635743zm4.6845703 4.5966797h-3.4013671c.0146484.5185547.1567382.9191895.4262695 1.2019043.2695312.2827149.6459961.4240723 1.1293945.4240723.5449219 0 1.0444336-.1743164 1.4985352-.5229492v.7690429c-.4277344.3017579-.9946289.4526368-1.7006836.4526368-.703125 0-1.251709-.2226563-1.645752-.6679688-.3940429-.4453125-.5910644-1.0634766-.5910644-1.8544922 0-.7441406.2160644-1.3579101.6481933-1.8413086.4321289-.4833984.9689942-.7250976 1.6105957-.7250976.6357422 0 1.1323243.2043457 1.4897461.6130371.3574219.4086914.5361328.9807129.5361328 1.7160644zm-.8613281-.6899414c-.0029297-.4394531-.1069336-.7792969-.3120117-1.0195312-.2050781-.2402344-.4936523-.3603516-.8657227-.3603516-.3427734 0-.6394043.1274414-.8898925.3823242-.2504883.2548828-.407959.5874024-.4724121.9975586zm5.8613281.6899414h-3.4013671c.0146484.5185547.1567382.9191895.4262695 1.2019043.2695312.2827149.6459961.4240723 1.1293945.4240723.5449219 0 1.0444336-.1743164 1.4985352-.5229492v.7690429c-.4277344.3017579-.9946289.4526368-1.7006836.4526368-.703125 0-1.251709-.2226563-1.645752-.6679688-.3940429-.4453125-.5910644-1.0634766-.5910644-1.8544922 0-.7441406.2160644-1.3579101.6481933-1.8413086.4321289-.4833984.9689942-.7250976 1.6105957-.7250976.6357422 0 1.1323243.2043457 1.4897461.6130371.3574219.4086914.5361328.9807129.5361328 1.7160644zm-.8613281-.6899414c-.0029297-.4394531-.1069336-.7792969-.3120117-1.0195312-.2050781-.2402344-.4936523-.3603516-.8657227-.3603516-.3427734 0-.6394043.1274414-.8898925.3823242-.2504883.2548828-.407959.5874024-.4724121.9975586zm5.5800781-1.9599609-1.6259765 2.4477539 1.6040039 2.4125976h-1.0019531l-.9272461-1.546875c-.0498047-.0820312-.1201172-.2080078-.2109375-.3779296h-.0175782c-.0029296.0175781-.0761718.1435546-.2197265.3779296l-.9448242 1.546875h-.9887696l1.6523438-2.3862304-1.5776367-2.4741211h1.0019531l.909668 1.6259765c.055664.0996094.1230468.2285157.2021484.3867188h.0175781l1.1821289-2.0126953zm.1142579 4.8603515"/><path clip-path="url(#H)" d="m508.4472656 213.9389648h-1.0415039l-3.4233398-5.2954101c-.0966797-.1494141-.1743164-.2973633-.2329102-.4438477h-.0263672c.0234375.1523438.0351563.4702149.0351563.9536133v4.7856445h-.8701172v-6.8071289h1.1030273l3.3310547 5.203125c.1582032.2460938.2519532.4028321.28125.4702149h.0175782c-.0292969-.1933594-.0439454-.5244141-.0439454-.9931641v-4.6801758h.8701172zm1.4453125-4.5219726c.4833985-.3017578 1.0415039-.4526367 1.6743164-.4526367 1.171875 0 1.7578125.6152343 1.7578125 1.8457031v3.1289062h-.852539v-.7514648h-.0219727c-.336914.5771484-.8334961.8657227-1.4897461.8657227-.4716797 0-.8466797-.1274414-1.125-.3823243-.2783203-.2548828-.4174804-.5991211-.4174804-1.0327148 0-.9082031.5375976-1.4370117 1.6127929-1.5864258l1.4414063-.2021484c0-.7939453-.328125-1.190918-.984375-1.190918-.5830078 0-1.1147461.1962891-1.5952149.5888672zm1.4414063 2.2368164c-.3984375.0527344-.6730957.1523437-.8239746.2988281s-.2263184.3515625-.2263184.6152344c0 .2314453.0820313.4204102.2460938.5668945.1640625.1464844.3808593.2197266.6503906.2197266.375 0 .684082-.1318359.9272461-.3955078.243164-.2636719.3647461-.5947266.3647461-.9931641v-.4658203zm5.777832 2.2368164c-.1875.1025391-.440918.1538086-.7602539.1538086-.8701172 0-1.3051758-.4819336-1.3051758-1.4458008v-2.8081055h-.8349609v-.711914h.8349609v-1.1689453l.8569336-.272461v1.4414063h1.2084961v.711914h-1.2084961v2.6542969c0 .319336.0541992.5478516.1625977.6855469.1083984.1376953.2885742.206543.5405273.206543.1933594 0 .3618164-.0541993.5053711-.1625977zm.5610352-6.5258789c0-.1523438.0520019-.2805176.1560058-.3845215s.2321778-.1560058.3845215-.1560058c.1552734 0 .286377.0512695.3933106.1538085.1069335.1025391.1604003.2314454.1604003.3867188 0 .1523437-.0534668.2790527-.1604003.3801269-.1069336.1010743-.2380372.1516114-.3933106.1516114s-.2841797-.0505371-.3867187-.1516114c-.1025391-.1010742-.1538086-.2277832-.1538086-.3801269zm.1010742 6.5742187v-4.8603515h.8613281v4.8603515zm5.9199219-4.8603515-1.9248047 4.8603515h-.8701172l-1.828125-4.8603515h.9404297l1.1865234 3.4716797c.0966797.2783203.1538086.5112304.1713867.6987304h.0219727c.0292969-.2460937.0805664-.4731445.1538086-.6811523l1.2436523-3.4892578zm5.0439453 2.6499023h-3.4013672c.0146484.5185547.1567383.9191895.4262695 1.2019043.2695313.2827149.6459961.4240723 1.1293945.4240723.5449219 0 1.0444336-.1743164 1.4985352-.5229492v.7690429c-.4277344.3017579-.9946289.4526368-1.7006836.4526368-.703125 0-1.251709-.2226563-1.6457519-.6679688-.394043-.4453125-.5910645-1.0634766-.5910645-1.8544922 0-.7441406.2160645-1.3579101.6481934-1.8413086.4321289-.4833984.9689941-.7250976 1.6105957-.7250976.6357422 0 1.1323242.2043457 1.4897461.6130371.3574218.4086914.5361328.9807129.5361328 1.7160644zm-.8613282-.6899414c-.0029296-.4394531-.1069335-.7792969-.3120117-1.0195312-.2050781-.2402344-.4936523-.3603516-.8657226-.3603516-.3427735 0-.6394043.1274414-.8898926.3823242s-.407959.5874024-.4724121.9975586zm1.6953125 1.6215821c.2080079.1816406.4863282.3310546.834961.4482421s.6796875.1757813.993164.1757813c.9550782 0 1.4326172-.3398438 1.4326172-1.0195313 0-.1904296-.0512695-.3618164-.1538086-.5141601-.102539-.1523438-.243164-.2871094-.421875-.4042969-.1787109-.1171875-.5141601-.2973633-1.0063476-.5405273-.6826172-.3398438-1.1323242-.6555176-1.3491211-.9470215s-.3251953-.6247559-.3251953-.9997559c0-.5654297.2270508-1.0136719.6811523-1.3447265.4541016-.3310547 1.0268555-.4965821 1.7182617-.4965821.6767579 0 1.1733399.0820313 1.4897461.2460938v.9580078c-.4101562-.2841797-.9287109-.4262695-1.555664-.4262695-.4160157 0-.755127.0871582-1.017334.2614746s-.3933106.416748-.3933106.7272949c0 .2753906.0908204.4995117.272461.6723633.1816406.1728515.5756836.4086914 1.1821289.7075195.6679687.3193359 1.1352539.6386719 1.4018555.9580078.2666015.319336.3999023.6782227.3999023 1.0766602 0 .5976562-.2167969 1.0561523-.6503906 1.3754883-.4335938.3193359-1.0356446.4790039-1.8061524.4790039-.2695312 0-.5837402-.0373536-.9426269-.1120606s-.6203614-.1677246-.7844239-.2790527zm8.5639649 1.059082c-.3720703.2226562-.8203125.3339844-1.3447266.3339844-.703125 0-1.2685547-.225586-1.696289-.6767579-.4277344-.4511718-.6416016-1.0356445-.6416016-1.7534179 0-.796875.2307129-1.439209.6921387-1.927002.4614258-.4877929 1.0788574-.7316894 1.8522949-.7316894.4453125 0 .8261719.0791015 1.1425781.2373047v.852539c-.3427734-.2519531-.7236328-.3779297-1.1425781-.3779297-.4921875 0-.8928223.1706543-1.2019043.5119629s-.463623.7961426-.463623 1.364502c0 .5595703.1457519.9975586.4372558 1.3139648.2915039.3164063.6848145.4746094 1.1799317.4746094.4189453 0 .8144531-.1376953 1.1865234-.4130859zm4.2485351-3.788086c-.1435546-.102539-.3413085-.1538085-.5932617-.1538085-.3339843 0-.609375.1560058-.8261718.4680175-.2167969.3120117-.3251954.7229004-.3251954 1.232666v2.4609375h-.8613281v-4.8603515h.8613281v.9887695h.0175782c.2460937-.7148437.6708984-1.0722656 1.274414-1.0722656.1962891 0 .347168.0219726.4526367.065918zm.2885743-2.5664062c0-.1523438.0520019-.2805176.1560058-.3845215s.2321778-.1560058.3845215-.1560058c.1552734 0 .286377.0512695.3933106.1538085.1069335.1025391.1604003.2314454.1604003.3867188 0 .1523437-.0534668.2790527-.1604003.3801269-.1069336.1010743-.2380372.1516114-.3933106.1516114s-.2841797-.0505371-.3867187-.1516114c-.1025391-.1010742-.1538086-.2277832-.1538086-.3801269zm.1010742 6.5742187v-4.8603515h.8613281v4.8603515zm2.8657226-.6855468v2.9223633h-.8613281v-7.097168h.8613281v.8393555h.0175782c.3808593-.6357422.9375-.9536133 1.6699218-.9536133.6210938 0 1.1081543.2175293 1.4611817.6525879.3530273.4350586.529541 1.0187988.529541 1.7512207 0 .8085937-.1999512 1.4582519-.5998535 1.9489746-.3999024.4907226-.9382324.736084-1.6149903.736084-.6240234 0-1.105957-.2666016-1.4458007-.7998047zm-.0043945-1.3183594c0 .3955078.1274414.7287598.3823242.9997559.2548828.270996.5742188.4064941.9580078.4064941.4570313 0 .8144532-.1757813 1.0722657-.5273438s.3867187-.8378906.3867187-1.4589843c0-.5244141-.1201172-.9353028-.3603515-1.232666-.2402344-.2973633-.5683594-.446045-.984375-.446045-.4248047 0-.7734375.1508789-1.0458985.4526368-.2724609.3017578-.4086914.6884765-.4086914 1.1601562zm7.4765625 1.9555664c-.1875.1025391-.440918.1538086-.7602539.1538086-.8701172 0-1.3051758-.4819336-1.3051758-1.4458008v-2.8081055h-.8349609v-.711914h.8349609v-1.1689453l.8569336-.272461v1.4414063h1.2084961v.711914h-1.2084961v2.6542969c0 .319336.0541992.5478516.1625977.6855469.1083984.1376953.2885742.206543.5405273.206543.1933594 0 .3618164-.0541993.5053711-.1625977zm.2504883.0483398"/><path clip-path="url(#I)" d="m508.1630859 231.6972656c-.5009765.2636719-1.1293945.3955078-1.8852539.3955078-.9755859 0-1.7548828-.3098144-2.3378906-.9294433s-.8745117-1.439209-.8745117-2.4587403c0-1.0957031.328125-1.977539.984375-2.6455078.65625-.6679687 1.4897461-1.0019531 2.5004883-1.0019531.6503906 0 1.1879883.0922852 1.6127929.2768555v.918457c-.4863281-.2695312-1.0209961-.4042969-1.6040039-.4042969-.758789 0-1.3769531.2526856-1.8544922.7580567-.477539.5053711-.7163085 1.1872558-.7163085 2.0456543 0 .8144531.2226562 1.4611816.6679687 1.9401855s1.0283203.7185059 1.7490234.7185059c.6738282 0 1.2597657-.1523438 1.7578125-.4570313zm.9067383-2.0961914c0-.8027344.2241211-1.4362793.6723633-1.9006347.4482422-.4643555 1.0561523-.6965332 1.8237305-.6965332.7294922 0 1.3015136.2233886 1.7160644.670166.4145508.4467773.6218262 1.064209.6218262 1.8522949 0 .7675781-.2211914 1.387207-.6635742 1.8588867s-1.0356446.7075195-1.7797852.7075195c-.7265625 0-1.3066406-.2285156-1.7402344-.6855468-.4335937-.4570313-.6503906-1.0590821-.6503906-1.8061524zm.8789063-.0263672c0 .5595703.1413574 1.0004883.4240722 1.3227539.2827149.3222657.6628418.4833985 1.1403809.4833985.4921875 0 .8671875-.1574707 1.125-.4724121s.3867187-.7668457.3867187-1.3557129c0-.5917969-.1289062-1.0458985-.3867187-1.3623047-.2578125-.3164063-.6328125-.4746094-1.125-.4746094-.4833984 0-.8649902.1655274-1.1447754.496582-.2797852.3310547-.4196777.7851563-.4196777 1.3623047zm8.0522461-1.6040039c-.1435547-.102539-.3413086-.1538086-.5932618-.1538086-.3339843 0-.609375.1560059-.8261718.4680176-.2167969.3120117-.3251953.7229004-.3251953 1.232666v2.4609375h-.8613282v-4.8603515h.8613282v.9887695h.0175781c.2460937-.7148438.6708984-1.0722656 1.274414-1.0722656.1962891 0 .347168.0219726.4526368.0659179zm4.6127929 4.0078125h-.8613281v-.8085937h-.0175781c-.3544922.6152344-.9052735.9228515-1.6523438.9228515-.6152343 0-1.1044922-.2189941-1.4677734-.6569824-.3632813-.4379883-.5449219-1.0290527-.5449219-1.7731933 0-.8027344.2050781-1.4465332.6152344-1.9313965.4101562-.4848633.9462891-.7272949 1.6083984-.7272949.6621094 0 1.1425782.2578125 1.4414063.7734375h.0175781v-2.9926758h.8613281zm-.8569336-2.8916015c0-.3896485-.1281738-.7155762-.3845214-.9777832-.2563477-.2622071-.5720215-.3933106-.9470215-.3933106-.4570313 0-.8173828.1706543-1.0810547.5119629s-.3955078.8063965-.3955078 1.3952637c0 .5419922.126709.970459.3801269 1.2854004.253418.3149414.5910645.4724121 1.0129395.4724121.4160156 0 .7558594-.154541 1.0195312-.4636231.2636719-.309082.3955078-.6936035.3955078-1.1535644zm2.3129883.5141601c0-.8027344.2241211-1.4362793.6723633-1.9006347.4482422-.4643555 1.0561523-.6965332 1.8237305-.6965332.7294922 0 1.3015136.2233886 1.7160644.670166.4145508.4467773.6218262 1.064209.6218262 1.8522949 0 .7675781-.2211914 1.387207-.6635742 1.8588867s-1.0356446.7075195-1.7797852.7075195c-.7265625 0-1.3066406-.2285156-1.7402344-.6855468-.4335937-.4570313-.6503906-1.0590821-.6503906-1.8061524zm.8789063-.0263672c0 .5595703.1413574 1.0004883.4240722 1.3227539.2827149.3222657.6628418.4833985 1.1403809.4833985.4921875 0 .8671875-.1574707 1.125-.4724121s.3867187-.7668457.3867187-1.3557129c0-.5917969-.1289062-1.0458985-.3867187-1.3623047-.2578125-.3164063-.6328125-.4746094-1.125-.4746094-.4833984 0-.8649902.1655274-1.1447754.496582-.2797852.3310547-.4196777.7851563-.4196777 1.3623047zm9.3618164-2.4565429-1.9248047 4.8603515h-.8701172l-1.828125-4.8603515h.9404297l1.1865234 3.4716797c.0966797.2783203.1538086.5112304.1713867.6987304h.0219727c.0292969-.2460937.0805664-.4731445.1538086-.6811523l1.2436523-3.4892578zm1.1987304.3383789c.4833985-.3017578 1.041504-.4526367 1.6743165-.4526367 1.171875 0 1.7578125.6152343 1.7578125 1.8457031v3.1289062h-.8525391v-.7514648h-.0219727c-.336914.5771484-.8334961.8657226-1.4897461.8657226-.4716796 0-.8466796-.1274414-1.125-.3823242-.2783203-.2548828-.4174804-.5991211-.4174804-1.0327148 0-.9082031.5375976-1.4370117 1.6127929-1.5864258l1.4414063-.2021484c0-.7939454-.328125-1.190918-.984375-1.190918-.5830078 0-1.1147461.1962891-1.5952149.5888672zm1.4414063 2.2368164c-.3984375.0527344-.6730957.1523437-.8239746.2988281s-.2263184.3515625-.2263184.6152344c0 .2314453.0820313.4204101.2460938.5668945s.3808594.2197266.6503906.2197266c.375 0 .684082-.131836.9272461-.3955078.2431641-.2636719.3647461-.5947266.3647461-.9931641v-.4658203zm9.1660156-4.5175781-3.2695312 7.9277343h-.7998047l3.2739258-7.9277343zm4.2670899 4.2583007v2.5444336h-.8789063v-6.8071289h1.9335938c.7353515 0 1.3059082.1772461 1.7116699.5317383s.6086426.8613281.6086426 1.5205078c0 .6679688-.2373047 1.2092285-.7119141 1.6237793s-1.0678711.6101074-1.7797852.5866699zm0-3.4892578v2.7158203h.8129882c.5361329 0 .9433594-.1208496 1.2216797-.3625488s.4174805-.5881348.4174805-1.0393066c0-.8759766-.5185547-1.3139649-1.5556641-1.3139649zm9.1157226 6.0336914h-.8569336v-2.7949218c0-.9785157-.3632812-1.4677735-1.0898437-1.4677735-.3720703 0-.6811524.1428223-.9272461.4284668-.2460938.2856445-.3691406.6452637-.3691406 1.0788574v2.7553711h-.8613282v-7.1938476h.8613282v3.1333008h.0175781c.3720703-.609375.9008789-.9140625 1.5864258-.9140625 1.0927734 0 1.6391601.6606445 1.6391601 1.9819335zm1.5703125-2.3774414c0-.8027344.2241211-1.4362793.6723633-1.9006347.4482422-.4643555 1.0561523-.6965332 1.8237305-.6965332.7294922 0 1.3015136.2233886 1.7160644.670166.4145508.4467773.6218262 1.064209.6218262 1.8522949 0 .7675781-.2211914 1.387207-.6635742 1.8588867s-1.0356446.7075195-1.7797852.7075195c-.7265625 0-1.3066406-.2285156-1.7402344-.6855468-.4335937-.4570313-.6503906-1.0590821-.6503906-1.8061524zm.8789063-.0263672c0 .5595703.1413574 1.0004883.4240722 1.3227539.2827149.3222657.6628418.4833985 1.1403809.4833985.4921875 0 .8671875-.1574707 1.125-.4724121s.3867187-.7668457.3867187-1.3557129c0-.5917969-.1289062-1.0458985-.3867187-1.3623047-.2578125-.3164063-.6328125-.4746094-1.125-.4746094-.4833984 0-.8649902.1655274-1.1447754.496582-.2797852.3310547-.4196777.7851563-.4196777 1.3623047zm9.5551758 2.4038086h-.8569336v-2.7641601c0-.9990235-.3647461-1.4985352-1.0942383-1.4985352-.3779297 0-.6884766.140625-.9316406.421875-.2431641.28125-.3647461.637207-.3647461 1.0678711v2.7729492h-.8613282v-4.8603515h.8613282v.8041992h.0175781c.3662109-.6123047.8979492-.918457 1.5952148-.918457.5332032 0 .9389649.1706542 1.2172852.5119628s.4174805.8386231.4174805 1.4919434zm5.8505859-2.2104492h-3.4013672c.0146484.5185547.1567383.9191895.4262695 1.2019043.2695313.2827148.6459961.4240723 1.1293946.4240723.5449218 0 1.0444336-.1743164 1.4985351-.5229492v.7690429c-.4277344.3017578-.9946289.4526367-1.7006836.4526367-.703125 0-1.251709-.2226562-1.6457519-.6679687-.394043-.4453125-.5910645-1.0634766-.5910645-1.8544922 0-.7441406.2160645-1.3579102.6481934-1.8413086s.9689941-.7250976 1.6105957-.7250976c.6357422 0 1.1323242.2043457 1.4897461.6130371s.5361328.9807129.5361328 1.7160644zm-.8613281-.6899414c-.0029297-.4394531-.1069336-.7792969-.3120118-1.0195312-.2050781-.2402344-.4936523-.3603516-.8657226-.3603516-.3427734 0-.6394043.1274414-.8898926.3823242s-.407959.5874024-.4724121.9975586zm7.1577148 2.4345703c-.6796875.3867188-1.4472656.5800781-2.3027344.5800781-.984375 0-1.7775879-.3112793-2.3796386-.9338379-.6020508-.6225585-.9030762-1.4538574-.9030762-2.4938964 0-1.0517578.3325195-1.9160157.9975586-2.5927735.665039-.6767578 1.5175781-1.0151367 2.5576172-1.0151367.7353515 0 1.3579101.1171875 1.8676758.3515625v.9492188c-.5449219-.3427735-1.1938477-.5141602-1.9467774-.5141602-.7412109 0-1.3520508.253418-1.8325195.7602539-.4804688.5068359-.7207031 1.1748047-.7207031 2.0039063 0 .852539.2211914 1.5161132.6635742 1.9907226s1.040039.7119141 1.7929687.7119141c.5185547 0 .9594727-.0996094 1.3227539-.2988281v-1.8413086h-1.4765625v-.7778321h2.3598633zm1.8583984-4.0561523c.4833985-.3017578 1.041504-.4526367 1.6743165-.4526367 1.171875 0 1.7578125.6152343 1.7578125 1.8457031v3.1289062h-.8525391v-.7514648h-.0219727c-.336914.5771484-.8334961.8657226-1.4897461.8657226-.4716796 0-.8466796-.1274414-1.125-.3823242-.2783203-.2548828-.4174804-.5991211-.4174804-1.0327148 0-.9082031.5375976-1.4370117 1.6127929-1.5864258l1.4414063-.2021484c0-.7939454-.328125-1.190918-.984375-1.190918-.5830078 0-1.1147461.1962891-1.5952149.5888672zm1.4414063 2.2368164c-.3984375.0527344-.6730957.1523437-.8239746.2988281s-.2263184.3515625-.2263184.6152344c0 .2314453.0820313.4204101.2460938.5668945s.3808594.2197266.6503906.2197266c.375 0 .684082-.131836.9272461-.3955078.2431641-.2636719.3647461-.5947266.3647461-.9931641v-.4658203zm4.3056641 1.5996094v2.9223632h-.8613282v-7.0971679h.8613282v.8393554h.0175781c.3808594-.6357422.9375-.9536132 1.6699219-.9536132.6210937 0 1.1081543.2175292 1.4611816.6525878s.529541 1.0187989.529541 1.7512207c0 .8085938-.1999512 1.458252-.5998535 1.9489747-.3999023.4907226-.9382324.7360839-1.6149902.7360839-.6240235 0-1.1059571-.2666015-1.4458008-.7998046zm-.0043946-1.3183594c0 .3955078.1274414.7287597.3823242.9997558.2548829.2709961.5742188.4064942.9580079.4064942.4570312 0 .8144531-.1757813 1.0722656-.5273438s.3867187-.8378906.3867187-1.4589843c0-.5244141-.1201172-.9353028-.3603515-1.2326661-.2402344-.2973632-.5683594-.4460449-.984375-.4460449-.4248047 0-.7734375.1508789-1.0458985.4526367-.2724609.3017578-.4086914.6884766-.4086914 1.1601563zm4.1220703 2.0039062"/><path clip-path="url(#J)" d="m508.6772461 251.0002441h-1.0678711l-1.5205078-2.5620117c-.0351563-.0585937-.0864258-.1757812-.1538086-.3515625h-.0219727c-.0058593.0234375-.0585937.1420899-.1582031.3559571l-1.5644531 2.5576171h-1.0722656l2.2631836-3.4189453-2.0830079-3.3881836h1.0766602l1.3447266 2.3554688c.0791015.1376953.1582031.2988281.2373047.4833984h.0175781c.0703125-.1582031.1567383-.3266601.2592773-.5053711l1.40625-2.3334961h1.0063477l-2.1269531 3.375zm1.2099609-4.5219726c.4833985-.3017578 1.0415039-.4526367 1.6743164-.4526367 1.171875 0 1.7578125.6152343 1.7578125 1.8457031v3.1289062h-.852539v-.7514648h-.0219727c-.336914.5771484-.8334961.8657227-1.4897461.8657227-.4716797 0-.8466797-.1274415-1.125-.3823243s-.4174804-.5991211-.4174804-1.0327148c0-.9082031.5375976-1.4370117 1.6127929-1.5864258l1.4414063-.2021484c0-.7939453-.328125-1.190918-.984375-1.190918-.5830078 0-1.1147461.1962891-1.5952149.5888672zm1.4414063 2.2368164c-.3984375.0527344-.6730957.1523437-.8239746.2988281s-.2263184.3515625-.2263184.6152344c0 .2314453.0820313.4204101.2460938.5668945s.3808593.2197266.6503906.2197266c.375 0 .684082-.131836.9272461-.3955078.243164-.2636719.3647461-.5947266.3647461-.9931641v-.4658203zm10.4404297 2.2851562h-.8613282v-2.7905273c0-.5273438-.0820312-.904541-.2460937-1.1315918s-.4335938-.3405762-.8085938-.3405762c-.3164062 0-.5874023.1479492-.8129882.4438477-.225586.2958984-.3383789.6459961-.3383789 1.050293v2.7685546h-.8613282v-2.8784179c0-.9228516-.355957-1.3842774-1.0678711-1.3842774-.328125 0-.5998535.140625-.8151855.421875s-.3229981.6401367-.3229981 1.0766602v2.7641601h-.8613281v-4.8603515h.8613281v.7690429h.0175782c.3457031-.5888671.8510742-.8833007 1.5161133-.8833007.3251953 0 .6123046.0893554.8613281.2680664.2490234.1787109.421875.4204101.5185547.7250976.3603515-.6621093.899414-.993164 1.6171875-.993164 1.0693359 0 1.6040039.6591797 1.6040039 1.977539zm1.118164-4.5219726c.4833985-.3017578 1.0415039-.4526367 1.6743164-.4526367 1.171875 0 1.7578125.6152343 1.7578125 1.8457031v3.1289062h-.852539v-.7514648h-.0219727c-.336914.5771484-.8334961.8657227-1.4897461.8657227-.4716797 0-.8466797-.1274415-1.125-.3823243s-.4174804-.5991211-.4174804-1.0327148c0-.9082031.5375976-1.4370117 1.6127929-1.5864258l1.4414063-.2021484c0-.7939453-.328125-1.190918-.984375-1.190918-.5830078 0-1.1147461.1962891-1.5952149.5888672zm1.4414063 2.2368164c-.3984375.0527344-.6730957.1523437-.8239746.2988281s-.2263184.3515625-.2263184.6152344c0 .2314453.0820313.4204101.2460938.5668945s.3808593.2197266.6503906.2197266c.375 0 .684082-.131836.9272461-.3955078.243164-.2636719.3647461-.5947266.3647461-.9931641v-.4658203zm6.050293-1.7226563c-.1435547-.102539-.3413086-.1538086-.5932618-.1538086-.3339843 0-.609375.1560059-.8261718.4680176-.2167969.3120117-.3251954.7229004-.3251954 1.232666v2.4609375h-.8613281v-4.8603515h.8613281v.9887695h.0175782c.2460937-.7148437.6708984-1.0722656 1.274414-1.0722656.1962891 0 .347168.0219726.4526368.065918zm.2885742-2.5664062c0-.1523438.0520019-.2805176.1560058-.3845215s.2321778-.1560059.3845215-.1560059c.1552735 0 .286377.0512696.3933106.1538086.1069336.1025391.1604004.2314454.1604004.3867188 0 .1523437-.0534668.2790527-.1604004.3801269-.1069336.1010743-.2380371.1516114-.3933106.1516114-.1552734 0-.2841797-.0505371-.3867187-.1516114-.1025391-.1010742-.1538086-.2277832-.1538086-.3801269zm.1010742 6.5742187v-4.8603515h.8613281v4.8603515zm6.1132812 0h-.8569336v-2.7641601c0-.9990235-.364746-1.4985352-1.0942382-1.4985352-.3779297 0-.6884766.140625-.9316407.421875-.243164.28125-.3647461.6372071-.3647461 1.0678711v2.7729492h-.8613281v-4.8603515h.8613281v.8041992h.0175782c.3662109-.6123047.8979492-.918457 1.5952148-.918457.5332031 0 .9389649.1706543 1.2172852.5119629s.4174804.838623.4174804 1.4919433zm.6679688 0"/><path clip-path="url(#K)" d="m274.918457 288.9921875v-4.0371094h-3.6943359c-.1438599 1.760437-.6559143 3.2203675-1.5361328 4.3798828-.2200318-.2792968-.4697266-.571289-.7490235-.8759765.5501404-.778656.9225464-1.6419068 1.1171875-2.5898438.1862183-.9140625.2792969-2.2089843.2792969-3.8847656v-4.5322266h10.3466797v10.0927735c0 1.0071716-.4781799 1.5107422-1.4345703 1.5107422-.5839844 0-1.2398987-.0126953-1.9677734-.038086-.0422974-.2792968-.105774-.6305542-.1904297-1.0537109.7363281.0507812 1.3330078.0761719 1.790039.0761719.5247498 0 .7871094-.2496949.7871094-.7490235v-2.3359375h-3.7324219v4.0371094zm1.015625-4.9511719h3.7324219v-2.3740234h-3.7324219zm3.7324219-5.649414h-3.7324219v2.3613281h3.7324219zm-8.3725586 5.649414h3.6245117v-2.3740234h-3.5673828c.0253906.8209839.0063477 1.6123047-.0571289 2.3740234zm.0571289-5.649414v2.3613281h3.5673828v-2.3613281zm18.7446289 9.1088867h-1.4980468l-1.6313477-2.7294922c-.3258667-.5458984-.6242065-.9172363-.8950195-1.1140137-.270813-.1967773-.5945435-.295166-.9711914-.295166h-.9140625v4.1386719h-1.2695313v-9.8325195h2.9960938c.9563903 0 1.7053833.2306213 2.2470703.6918945s.8125 1.1065979.8125 1.9360351c0 1.3626404-.7278443 2.2470704-2.1835938 2.6533204v.0317382c.270813.1142578.5046387.2771912.701416.4887696.1967774.2115783.4517212.5733947.7648926 1.0854492zm-5.9096679-8.7216797v3.472168h1.4980468c.579773 0 1.0505371-.1692505 1.4123535-.5078125.3618165-.338562.5427247-.7828675.5427247-1.3330078 0-.5120545-.1650391-.9119263-.4951172-1.1997071-.3300782-.2877807-.8103638-.4316406-1.440918-.4316406zm12.2910156 5.5288086h-4.913086c.0211792.7490234.2263794 1.3276977.6157227 1.736084.3893433.4083862.9331055.6125488 1.6313477.6125488.7871093 0 1.5086059-.25177 2.1645507-.7553711v1.1108399c-.6178588.435852-1.436676.6538085-2.4565429.6538085-1.015625 0-1.8080139-.3215942-2.3771973-.9648437-.5691833-.6432495-.8537598-1.5361328-.8537598-2.6787109 0-1.0748902.3120728-1.9614258.9362793-2.659668.6242066-.6982422 1.3996582-1.0473633 2.3264161-1.0473633.9183044 0 1.635559.295166 2.1518554.8854981.5162964.590332.7744141 1.4165649.7744141 2.4787597zm-1.2441406-.996582c-.0042115-.6347657-.15448-1.1256409-.4506836-1.4726563-.2962037-.3470154-.7130433-.5205078-1.2504883-.5205078-.4951172 0-.923584.184082-1.2854004.5522461s-.5892944.8484497-.6823731 1.440918zm2.6899414-2.3422852c.6982422-.4358826 1.5043945-.6538086 2.418457-.6538086 1.6927185 0 2.5390625.8886719 2.5390625 2.6660156v4.5195313h-1.2314453v-1.0854492h-.0317383c-.4866333.8336792-1.2039185 1.2504882-2.1518555 1.2504882-.6813354 0-1.2229614-.184082-1.625-.552246-.4020385-.3681641-.6030273-.865387-.6030273-1.4916993 0-1.3118591.7765198-2.0756836 2.3295898-2.2915039l2.0820313-.2919922c0-1.14682-.473938-1.7202148-1.421875-1.7202148-.8421326 0-1.6101685.2835083-2.3041992.8505859zm2.0820312 3.230957c-.575531.0761719-.972229.2200623-1.1901855.4316407-.2179566.2115783-.3269043.5078125-.3269043.8886718 0 .3342896.1184692.6072388.3554687.8188477s.5501099.3173828.9394531.3173828c.5416871 0 .9880982-.1904297 1.3393555-.5712891.3512573-.3808593.5268555-.8590393.5268555-1.4345703v-.6728515zm9.6025391 2.9833985c-.5374451.3215942-1.1848755.4824218-1.9423828.4824218-1.015625 0-1.8323365-.3258361-2.4501953-.977539-.6178589-.6517029-.9267579-1.4959107-.9267579-2.5327149 0-1.151062.333252-2.0788574.9997559-2.7834472.6665039-.7045899 1.5583496-1.0568848 2.6755371-1.0568848.6432495 0 1.1933594.1142578 1.6503906.3427734v1.2314454c-.4951172-.3639527-1.045227-.5458985-1.6503906-.5458985-.7109375 0-1.2896118.2464905-1.736084.739502-.4464721.4930114-.6696777 1.1499634-.6696777 1.9709472 0 .8082886.2105102 1.440918.6315918 1.8979493.4210815.4570312.9891662.6855468 1.7043457.6855468.6051636 0 1.1764221-.1989135 1.7138672-.5966797zm5.5209961.2475586c-.270813.1481323-.6369019.2221679-1.0981446.2221679-1.2568359 0-1.8852539-.6961059-1.8852539-2.0883789v-4.0561523h-1.2060547v-1.0283203h1.2060547v-1.6884766l1.237793-.3935547v2.0820313h1.7456055v1.0283203h-1.7456055v3.8339844c0 .4612426.0783081.7913208.2348633.9902343.1565552.1989136.4168091.2983399.7807617.2983399.2792969 0 .522644-.0783081.7299805-.2348633zm13.8178711.0698242h-1.5043946l-4.9448242-7.6489258c-.1396484-.2158203-.25177-.4295349-.3364258-.6411133h-.0380859c.0338745.2200623.0507812.6791992.0507812 1.3774414v6.9125977h-1.2568359v-9.8325195h1.5932617l4.8115235 7.515625c.2285156.3554687.3639526.5818481.40625.6791992h.0253906c-.0422974-.2792969-.0634766-.7574768-.0634766-1.4345703v-6.7602539h1.256836zm2.9765625-6.5317383c.6982422-.4358826 1.5043945-.6538086 2.418457-.6538086 1.6927185 0 2.5390625.8886719 2.5390625 2.6660156v4.5195313h-1.2314453v-1.0854492h-.0317383c-.4866333.8336792-1.2039185 1.2504882-2.1518555 1.2504882-.6813354 0-1.2229614-.184082-1.625-.552246-.4020385-.3681641-.6030273-.865387-.6030273-1.4916993 0-1.3118591.7765198-2.0756836 2.3295898-2.2915039l2.0820313-.2919922c0-1.14682-.473938-1.7202148-1.421875-1.7202148-.8421326 0-1.6101685.2835083-2.3041992.8505859zm2.0820312 3.230957c-.575531.0761719-.972229.2200623-1.1901855.4316407-.2179566.2115783-.3269043.5078125-.3269043.8886718 0 .3342896.1184692.6072388.3554687.8188477s.5501099.3173828.9394531.3173828c.5416871 0 .9880982-.1904297 1.3393555-.5712891.3512573-.3808593.5268555-.8590393.5268555-1.4345703v-.6728515zm8.1235352 3.2309571c-.270813.1481323-.6369019.2221679-1.0981446.2221679-1.2568359 0-1.8852539-.6961059-1.8852539-2.0883789v-4.0561523h-1.2060547v-1.0283203h1.2060547v-1.6884766l1.237793-.3935547v2.0820313h1.7456055v1.0283203h-1.7456055v3.8339844c0 .4612426.0783081.7913208.2348633.9902343.1565552.1989136.4168091.2983399.7807617.2983399.2792969 0 .522644-.0783081.7299805-.2348633zm1.4770508-9.4262696c0-.2200622.0751342-.4051819.2253417-.5554199.1502076-.150238.3353882-.2253418.55542-.2253418.2243042 0 .4136352.0740662.5681152.222168s.2316895.33432.2316895.5585937c0 .2200623-.0772095.4030762-.2316895.5490723s-.343811.2189941-.5681152.2189941-.4104615-.072998-.5585938-.2189941-.2221679-.32901-.2221679-.5490723zm.145996 9.4960938v-7.0205078h1.2441407v7.0205078zm8.6621094-7.0205078-2.7802734 7.0205078h-1.256836l-2.640625-7.0205078h1.3583985l1.7138672 5.0146484c.1396484.4020386.2221679.7384644.2475586 1.0092774h.0317382c.0422974-.3554688.1163941-.6834107.222168-.9838868l1.7963867-5.040039zm7.0634766 3.8276367h-4.913086c.0211792.7490234.2263794 1.3276977.6157227 1.736084.3893433.4083862.9331055.6125488 1.6313477.6125488.7871093 0 1.5086059-.25177 2.1645507-.7553711v1.1108399c-.6178588.435852-1.436676.6538085-2.4565429.6538085-1.015625 0-1.8080139-.3215942-2.3771973-.9648437-.5691833-.6432495-.8537598-1.5361328-.8537598-2.6787109 0-1.0748902.3120728-1.9614258.9362793-2.659668.6242066-.6982422 1.3996582-1.0473633 2.3264161-1.0473633.9183044 0 1.635559.295166 2.1518554.8854981.5162964.590332.7744141 1.4165649.7744141 2.4787597zm-1.2441406-.996582c-.0042115-.6347657-.15448-1.1256409-.4506836-1.4726563-.2962037-.3470154-.7130433-.5205078-1.2504883-.5205078-.4951172 0-.923584.184082-1.2854004.5522461s-.5892944.8484497-.6823731 1.440918zm1.6679687-.9965821h3.3134766v-3.6943359h-2.7548828v-1.0029297h11.3876953v1.0029297h-2.5898438v3.6943359h3.1357422v1.0029297h-3.1357422v5.7890625h-1.0410156v-5.7890625h-3.9672852c-.029602 1.5488281-.25177 2.6998596-.6665039 3.453125-.4147339.8294373-1.3668518 1.663086-2.8564453 2.5009766-.2200317-.3046875-.4612427-.6008911-.7236328-.8886719 1.2949219-.6601562 2.1582031-1.3499146 2.5898438-2.0693359.3850708-.579773.590332-1.5784302.6157226-2.9960938h-3.3071289zm4.3544922 0h3.9609375v-3.6943359h-3.9609375zm10.3085937-2.7548828h2.6850586c.207367-.8844604.3829651-1.8492737.5268555-2.8945312l1.0791016.1396484c-.1438904.9606323-.3194886 1.8789063-.5268555 2.7548828h7.0141602v.9394531h-7.2553711c-.1523438.5585938-.3194886 1.0960083-.5014649 1.6123047h6.296875v.8759766c-.5585937 1.3837891-1.4282226 2.5792541-2.6088867 3.5864258 1.1891479.7194214 2.5750122 1.2250976 4.1577148 1.5170898-.3808593.4231568-.6770935.7786255-.8886718 1.0664063-1.354187-.4485474-2.7167969-1.1044922-4.0878907-1.9677735-1.1002807.7236328-2.674469 1.4091797-4.7226562 2.0566407-.236969-.3385621-.4908753-.6516724-.7617188-.9394532 2.0820313-.541687 3.6372071-1.1150512 4.6655274-1.7202148-1.1129761-.9521485-1.9064026-2.1518555-2.3803711-3.5991211-.9267578 2.3190307-2.1878052 4.2232971-3.7832031 5.7128906-.2285157-.3215942-.4528199-.609375-.6728516-.8632812 1.9085388-1.7223511 3.3113709-4.168274 4.2084961-7.3378907h-3.5229492v-.9521484c.3469848-.8040466.6643677-1.6123047.9521484-2.4248047l1.0283203.2792969c-.2962341.744812-.5966797 1.4641724-.9013672 2.1582031zm8.2011719 3.4277344h-4.5893554c.3808593 1.1722107 1.1362304 2.1814575 2.2661132 3.027832 1.0960388-.9056091 1.8704529-1.9148559 2.3232422-3.027832zm-1.9550781-5.4462891.5585937-.7109375c.8294373.5247498 1.625 1.0706177 2.3867188 1.6376953l-.6855469.8251954c-.7363281-.6263123-1.4895935-1.2102662-2.2597656-1.7519532zm13.831543 9.9594727h-1.4028321l-1.0029297-2.6914063h-4.0942382l-.9458008 2.6914063h-1.402832l3.7451171-9.8325195h1.3583985zm-2.7993164-3.8022461-1.4853516-4.0878906c-.0465393-.1311951-.0973206-.3596802-.1523438-.6855469h-.0317382c-.0465393.2962341-.0994568.5247497-.1586914.6855469l-1.4726563 4.0878906zm5.34375.1269531v3.675293h-1.2695313v-9.8325195h2.7929688c1.0621948 0 1.886322.2560119 2.4724121.7680664.5860901.5120544.8791504 1.2441406.8791504 2.196289 0 .9648438-.3427735 1.7466431-1.0283204 2.345459-.6855468.5988159-1.5424804.8812561-2.5708007.8474121zm0-5.040039v3.9228515h1.1743164c.774414 0 1.3626403-.1745605 1.7646484-.5236816s.6030273-.8495179.6030273-1.5012207c0-1.2653199-.7490234-1.8979492-2.2470703-1.8979492zm8 5.040039v3.675293h-1.2695313v-9.8325195h2.7929688c1.0621948 0 1.886322.2560119 2.4724121.7680664.5860901.5120544.8791504 1.2441406.8791504 2.196289 0 .9648438-.3427735 1.7466431-1.0283204 2.345459-.6855468.5988159-1.5424804.8812561-2.5708007.8474121zm0-5.040039v3.9228515h1.1743164c.774414 0 1.3626403-.1745605 1.7646484-.5236816s.6030273-.8495179.6030273-1.5012207c0-1.2653199-.7490234-1.8979492-2.2470703-1.8979492zm5.4145507 8.715332" fill="#303030"/></svg>